<svg width="24" height="24" viewBox="0 0 24 24" fill="none" xmlns="http://www.w3.org/2000/svg">
<g clip-path="url(#clip0_2098_16538)">
<path fill-rule="evenodd" clip-rule="evenodd" d="M0 0H24V24H0V0Z" fill="white"/>
<path fill-rule="evenodd" clip-rule="evenodd" d="M1.05642 22.1247H0.987817C0.987817 22.0904 0.970635 22.0389 0.970635 22.0216C0.970635 22.0045 0.970635 21.9703 0.919088 21.9703H0.815994V22.1247H0.764447V21.7641H0.919088C0.987817 21.7641 1.03924 21.7814 1.03924 21.8499C1.03924 21.9014 1.02206 21.9187 1.005 21.9357C1.02218 21.953 1.03924 21.9702 1.03924 22.0045V22.0731C1.03924 22.0904 1.03924 22.0904 1.05642 22.0904V22.1247ZM0.987817 21.8672C0.987817 21.8156 0.953452 21.8156 0.93627 21.8156H0.815994V21.9187H0.919088C0.953452 21.9187 0.987817 21.9014 0.987817 21.8672ZM1.27979 21.9358C1.27979 21.7299 1.10809 21.5579 0.884723 21.5579C0.678659 21.5579 0.506836 21.7299 0.506836 21.9358C0.506836 22.159 0.678659 22.331 0.884723 22.331C1.10797 22.3309 1.27979 22.159 1.27979 21.9358ZM1.22825 21.9358C1.22825 22.1248 1.07373 22.2621 0.884723 22.2621C0.695717 22.2621 0.558383 22.1247 0.558383 21.9358C0.558383 21.7641 0.695842 21.6094 0.884723 21.6094C1.0736 21.6094 1.22825 21.7641 1.22825 21.9358ZM22.3892 14.9967C22.3892 15.5121 22.0628 15.7523 21.4788 15.7523H20.3625V15.2369H21.4788C21.5819 15.2369 21.6678 15.2199 21.7023 15.1856C21.7365 15.1511 21.7709 15.0996 21.7709 15.031C21.7709 14.9621 21.7366 14.8935 21.7023 14.8593C21.6678 14.8248 21.5992 14.8077 21.4961 14.8077C20.9638 14.7904 20.2938 14.8248 20.2938 14.0691C20.2938 13.7255 20.517 13.3476 21.1182 13.3476H22.2689V13.863H21.204C21.1011 13.863 21.0323 13.863 20.9807 13.8972C20.9292 13.9487 20.8949 14.0003 20.8949 14.0862C20.8949 14.1721 20.9465 14.2237 21.0151 14.2581C21.0839 14.2752 21.1527 14.2924 21.2386 14.2924H21.5476C21.874 14.2924 22.0801 14.361 22.2176 14.4814C22.3204 14.6015 22.3892 14.7563 22.3892 14.9967ZM19.9673 14.4814C19.8299 14.361 19.6237 14.2924 19.2973 14.2924H18.9883C18.9025 14.2924 18.8337 14.2751 18.7651 14.2581C18.6962 14.2237 18.6449 14.1721 18.6449 14.0862C18.6449 14.0003 18.662 13.9487 18.7307 13.8972C18.7822 13.863 18.8509 13.863 18.9539 13.863H20.0189V13.3476H18.8682C18.2497 13.3476 18.0435 13.7255 18.0435 14.0691C18.0435 14.8247 18.7135 14.7904 19.246 14.8077C19.3489 14.8077 19.4177 14.8248 19.452 14.8593C19.4862 14.8935 19.5208 14.9621 19.5208 15.031C19.5208 15.0996 19.4864 15.1511 19.452 15.1856C19.4004 15.2199 19.3318 15.2369 19.2287 15.2369H18.1123V15.7523H19.2287C19.8126 15.7523 20.139 15.512 20.139 14.9967C20.139 14.7563 20.0704 14.6015 19.9673 14.4814ZM17.7687 15.2543H16.4121V14.7734H17.7345V14.2926H16.4121V13.8459H17.7687V13.3479H15.8452V15.7524H17.7687V15.2543ZM15.2268 13.4681C15.0377 13.365 14.8145 13.3477 14.5225 13.3477H13.2001V15.7523H13.7839V14.8763H14.4024C14.6083 14.8763 14.7287 14.8936 14.8146 14.9794C14.9177 15.0996 14.9177 15.3058 14.9177 15.4604V15.7523H15.4844V15.2885C15.4844 15.0652 15.4673 14.9621 15.3986 14.842C15.347 14.7731 15.2442 14.6873 15.1067 14.6358C15.2611 14.5845 15.519 14.3783 15.519 14.0003C15.5189 13.7256 15.4158 13.571 15.2268 13.4681ZM11.9634 13.3477H10.1255L9.38687 14.1379L8.68264 13.3477H6.3639V15.7523H8.6484L9.38699 14.9621L10.0912 15.7523H11.2077V14.9452H11.9291C12.4271 14.9452 12.9254 14.8077 12.9254 14.1379C12.9253 13.4852 12.41 13.3477 11.9634 13.3477ZM14.763 14.3441C14.6772 14.3783 14.5913 14.3783 14.4882 14.3783L13.7839 14.3956V13.8458H14.4882C14.5913 13.8458 14.6943 13.8458 14.763 13.8973C14.8318 13.9318 14.8831 14.0004 14.8831 14.1035C14.8831 14.2066 14.8318 14.2925 14.763 14.3441ZM11.9634 14.4642H11.2076V13.8458H11.9634C12.1695 13.8458 12.3069 13.9318 12.3069 14.1379C12.3069 14.3441 12.1694 14.4642 11.9634 14.4642ZM9.74758 14.55L10.6407 13.6055V15.5463L9.74758 14.55ZM8.3563 15.2543H6.93067V14.7734H8.20166V14.2926H6.93067V13.8459H8.37349L9.00898 14.5501L8.3563 15.2543ZM20.7917 11.6129H19.9673L18.8852 9.80941V11.6129H17.7174L17.4939 11.0804H16.2917L16.0684 11.6129H15.3984C15.1237 11.6129 14.763 11.5442 14.557 11.338C14.368 11.132 14.2649 10.8572 14.2649 10.4277C14.2649 10.067 14.3165 9.74068 14.5739 9.48307C14.7456 9.29407 15.0549 9.20828 15.4499 9.20828H15.9995V9.72362H15.4499C15.2439 9.72362 15.1235 9.75799 15.0034 9.86108C14.9003 9.96418 14.8487 10.1531 14.8487 10.4107C14.8487 10.6683 14.9003 10.8573 15.0034 10.9776C15.0892 11.0633 15.2439 11.0977 15.3983 11.0977H15.6561L16.4804 9.2084H17.3393L18.3011 11.4756V9.20828H19.1944L20.2078 10.8743V9.20828H20.7916V11.6129H20.7917ZM13.9729 9.20828H13.3891V11.6129H13.9729V9.20828ZM12.7534 9.31137C12.5644 9.20828 12.3584 9.20828 12.0664 9.20828H10.7438V11.6129H11.3105V10.7369H11.9289C12.135 10.7369 12.2725 10.7541 12.3583 10.84C12.4614 10.9603 12.4441 11.1664 12.4441 11.3038V11.6129H13.0279V11.132C13.0279 10.9259 13.0109 10.8228 12.9251 10.7025C12.8735 10.6338 12.7704 10.5479 12.6503 10.4965C12.8047 10.4277 13.0625 10.2388 13.0625 9.86096C13.0626 9.58617 12.9422 9.43152 12.7534 9.31137ZM10.3315 11.1149H8.9918V10.6339H10.3143V10.1359H8.9918V9.70644H10.3315V9.2084H8.40785V11.6131H10.3315V11.1149ZM7.97842 9.20828H7.03376L6.32953 10.84L5.57376 9.20828H4.64629V11.4755L3.66727 9.20828H2.80852L1.77796 11.6129H2.39627L2.61952 11.0804H3.82178L4.04503 11.6129H5.21306V9.72362L6.05462 11.6129H6.55266L7.39434 9.72362V11.6129H7.97829V9.20828H7.97842ZM17.288 10.5652L16.8928 9.62053L16.4979 10.5652H17.288ZM12.3069 10.1874C12.2211 10.239 12.1352 10.239 12.0149 10.239H11.3105V9.70657H12.0148C12.1179 9.70657 12.2379 9.70657 12.3067 9.74093C12.3754 9.79248 12.4098 9.86121 12.4098 9.96418C12.4098 10.0671 12.3755 10.1529 12.3069 10.1874ZM2.82558 10.5652L3.22065 9.62053L3.61572 10.5652H2.82558ZM22.2518 1.66797H1.76065V10.3248L2.46488 8.72742H3.95912L4.16531 9.12249V8.72742H5.91728L6.31235 9.58617L6.69024 8.72742H12.2725C12.53 8.72742 12.7532 8.77897 12.9252 8.9163V8.72742H14.4538V8.9163C14.7113 8.77884 15.0376 8.72742 15.4156 8.72742H17.6313L17.8375 9.12249V8.72742H19.4692L19.7097 9.12249V8.72742H21.3069V12.0939H19.6925L19.3835 11.5787V12.0939H17.3738L17.1506 11.5443H16.6523L16.429 12.0939H15.3814C14.9691 12.0939 14.6599 11.9908 14.4539 11.8879V12.0939H11.9634V11.321C11.9634 11.2179 11.9462 11.2007 11.8774 11.2007H11.7917V12.0938H6.98221V11.6644L6.81052 12.0938H5.79713L5.62543 11.6815V12.0938H3.68445L3.47839 11.5442H2.98022L2.75698 12.0938H1.76065V22.2449H22.2518V16.0786C22.0286 16.1817 21.7193 16.2332 21.4102 16.2332H19.9158V16.0271C19.7441 16.1646 19.4348 16.2332 19.143 16.2332H14.4366V15.4604C14.4366 15.3573 14.4196 15.3573 14.3335 15.3573H14.2477V16.2332H12.7018V15.323C12.4443 15.4431 12.1522 15.4431 11.8946 15.4431H11.7228V16.2332H9.83349L9.38699 15.7179L8.88896 16.2332H5.84855V12.8669H8.94025L9.38687 13.382L9.86785 12.8669H11.9462C12.1865 12.8669 12.5817 12.9011 12.7534 13.0728V12.8669H14.6083C14.7973 12.8669 15.1581 12.9011 15.3984 13.0728V12.8669H18.1982V13.0729C18.3528 12.9355 18.6449 12.867 18.9024 12.867H20.4654V13.0729C20.6373 12.9528 20.8776 12.867 21.1869 12.867H22.2518V1.66797Z" fill="#0077A6"/>
</g>
<defs>
<clipPath id="clip0_2098_16538">
<rect width="24" height="24" fill="white"/>
</clipPath>
</defs>
</svg>
