<svg width="20px" height="16" viewBox="0 0 21 16" fill="none" xmlns="http://www.w3.org/2000/svg">
    <path fill-rule="evenodd" clip-rule="evenodd"
        d="M9.27631 0.390524C9.797 0.911223 9.797 1.75544 9.27631 2.27614L3.55245 8L9.27631 13.7239C9.797 14.2446 9.797 15.0888 9.27631 15.6095C8.75561 16.1302 7.91139 16.1302 7.39069 15.6095L0.72402 8.94281C0.203321 8.42211 0.203321 7.57789 0.72402 7.05719L7.39069 0.390524C7.91139 -0.130175 8.75561 -0.130175 9.27631 0.390524Z"
        fill="#06122B" />
    <path
        d="M1.66683 8C1.66683 7.26362 2.26378 6.66667 3.00016 6.66667H19.0002C19.7365 6.66667 20.3335 7.26362 20.3335 8C20.3335 8.73638 19.7365 9.33333 19.0002 9.33333H3.00016C2.26378 9.33333 1.66683 8.73638 1.66683 8Z"
        fill="#06122B" />
</svg>