<svg width="185" height="184" viewBox="0 0 185 184" fill="none" xmlns="http://www.w3.org/2000/svg">
<g clip-path="url(#clip0_2215_61216)">
<path d="M181.243 74.3242H4.75781V183.998H181.243V74.3242Z" fill="#133E96"/>
<path d="M181.246 74.3239L97.9421 1.88459C95.052 -0.628196 90.9496 -0.628196 88.0594 1.88459L4.75586 74.3239H181.246Z" fill="#133E96"/>
<path d="M165.036 15.7578H20.9648V183.999H165.036V15.7578Z" fill="#F1F1F1"/>
<path d="M150.634 34.3398H35.3691V40.1325H150.634V34.3398Z" fill="#E6E6E6"/>
<path d="M150.634 49.2344H35.3691V55.0271H150.634V49.2344Z" fill="#E6E6E6"/>
<path d="M150.634 64.1289H35.3691V69.9216H150.634V64.1289Z" fill="#E6E6E6"/>
<path d="M150.634 79.0195H35.3691V84.8122H150.634V79.0195Z" fill="#E6E6E6"/>
<path d="M150.634 93.9141H35.3691V99.7068H150.634V93.9141Z" fill="#E6E6E6"/>
<path d="M150.634 108.809H35.3691V114.601H150.634V108.809Z" fill="#E6E6E6"/>
<path d="M150.634 123.703H35.3691V129.496H150.634V123.703Z" fill="#E6E6E6"/>
<path d="M181.243 183.998H4.75781L71.3732 132.413L71.4668 132.336L86.6663 120.566C90.3965 117.676 95.6067 117.676 99.3369 120.566L114.532 132.334L114.641 132.419L181.243 183.998Z" fill="#133E96"/>
<path d="M4.75586 74.3242V129.161V183.998L75.5716 129.161L4.75586 74.3242Z" fill="#1646AA"/>
<path d="M181.245 183.998V129.161V74.3242L110.432 129.161L181.245 183.998Z" fill="#1646AA"/>
</g>
<defs>
<clipPath id="clip0_2215_61216">
<rect width="176.49" height="184" fill="white" transform="translate(4.75586)"/>
</clipPath>
</defs>
</svg>
