<svg width="10" height="10" viewBox="0 0 10 10" fill="none" xmlns="http://www.w3.org/2000/svg">
<path d="M0.734287 0.731113C0.343769 1.12163 0.34379 1.75483 0.734287 2.14533L3.56271 4.97375L0.734287 7.80218C0.343769 8.1927 0.34379 8.8259 0.734287 9.21639C1.12478 9.60689 1.75798 9.60691 2.1485 9.21639L4.97693 6.38797L7.80535 9.21639C8.19585 9.60689 8.82905 9.60691 9.21957 9.21639C9.61009 8.82588 9.61007 8.19268 9.21957 7.80218L6.39114 4.97375L9.21957 2.14533C9.61009 1.75481 9.61007 1.12161 9.21957 0.731113C8.82907 0.340616 8.19587 0.340595 7.80535 0.731113L4.97693 3.55954L2.1485 0.731113C1.758 0.340616 1.12481 0.340595 0.734287 0.731113Z" fill="#06122B"/>
</svg>
