<svg width="20" height="16" viewBox="0 0 20 16" fill="none" xmlns="http://www.w3.org/2000/svg">
<path fill-rule="evenodd" clip-rule="evenodd" d="M8.22425 2.05532C8.02085 2.00649 7.79315 2.00006 7.01178 2.00006H5.8C4.94342 2.00006 4.36113 2.00084 3.91104 2.03761C3.47262 2.07343 3.24842 2.13836 3.09202 2.21805C2.7157 2.4098 2.40973 2.71576 2.21799 3.09208C2.1383 3.24848 2.07337 3.47269 2.03755 3.9111C2.00078 4.36119 2 4.94348 2 5.80006V10.2001C2 11.0566 2.00078 11.6389 2.03755 12.089C2.07337 12.5274 2.1383 12.7516 2.21799 12.908C2.40973 13.2844 2.7157 13.5903 3.09202 13.7821C3.24842 13.8618 3.47262 13.9267 3.91104 13.9625C4.36113 13.9993 4.94342 14.0001 5.8 14.0001H14.2C15.0566 14.0001 15.6389 13.9993 16.089 13.9625C16.5274 13.9267 16.7516 13.8618 16.908 13.7821C17.2843 13.5903 17.5903 13.2844 17.782 12.908C17.8617 12.7516 17.9266 12.5274 17.9624 12.089C17.9992 11.6389 18 11.0566 18 10.2001V7.80006C18 6.94348 17.9992 6.36119 17.9624 5.9111C17.9266 5.47269 17.8617 5.24848 17.782 5.09208C17.5903 4.71576 17.2843 4.4098 16.908 4.21805C16.7516 4.13836 16.5274 4.07343 16.089 4.03761C15.6389 4.00084 15.0566 4.00006 14.2 4.00006H11C10.7348 4.00006 10.4804 3.89471 10.2929 3.70717L9.69878 3.11306C9.14627 2.56055 8.98072 2.40408 8.80236 2.29478C8.62341 2.18513 8.42832 2.10432 8.22425 2.05532ZM7.11366 3.08906e-05C7.74865 -0.000271186 8.22845 -0.000499591 8.69114 0.110583C9.09929 0.20857 9.48947 0.370188 9.84735 0.589502C10.2531 0.838129 10.5922 1.17756 11.041 1.62678C11.0647 1.65049 11.0887 1.67451 11.113 1.69884L11.4142 2.00006L14.2413 2.00006C15.0463 2.00005 15.7106 2.00004 16.2518 2.04426C16.8139 2.09018 17.3306 2.18875 17.816 2.43604C18.5686 2.81953 19.1805 3.43145 19.564 4.1841C19.8113 4.66944 19.9099 5.18614 19.9558 5.74824C20 6.28943 20 6.95378 20 7.75874V10.2414C20 11.0463 20 11.7107 19.9558 12.2519C19.9099 12.814 19.8113 13.3307 19.564 13.816C19.1805 14.5687 18.5686 15.1806 17.816 15.5641C17.3306 15.8114 16.8139 15.9099 16.2518 15.9559C15.7106 16.0001 15.0463 16.0001 14.2413 16.0001H5.75873C4.95374 16.0001 4.28938 16.0001 3.74817 15.9559C3.18608 15.9099 2.66937 15.8114 2.18404 15.5641C1.43139 15.1806 0.819468 14.5687 0.435975 13.816C0.188684 13.3307 0.0901197 12.814 0.0441945 12.2519C-2.28137e-05 11.7107 -1.23241e-05 11.0463 4.31291e-07 10.2414V5.75876C-1.23241e-05 4.95379 -2.28137e-05 4.28943 0.0441945 3.74824C0.0901197 3.18614 0.188684 2.66944 0.435975 2.1841C0.819468 1.43145 1.43139 0.81953 2.18404 0.436037C2.66937 0.188746 3.18608 0.0901819 3.74817 0.0442567C4.28937 3.9354e-05 4.95373 4.98449e-05 5.7587 6.26003e-05L7.01178 6.30771e-05C7.04618 6.30771e-05 7.08014 4.68646e-05 7.11366 3.08906e-05Z" fill="#1646AA"/>
</svg>
