<svg width="20" height="22" viewBox="0 0 20 22" fill="none" xmlns="http://www.w3.org/2000/svg">
    <path
        d="M2 0C0.895431 0 0 0.89543 0 2V20C0 21.1046 0.895431 22 2 22H18C19.1046 22 20 21.1046 20 20V10H14C12.3431 10 11 8.65685 11 7V0H2Z"
        fill="#EDEDED" />

    <path d="M13 0V7C13 7.55228 13.4477 8 14 8H20L13 0Z" fill="#EDEDED" />

    <svg width="14" height="25" viewBox="0 0 14 1" fill="none" xmlns="http://www.w3.org/2000/svg">
        <path
            d="M1.82158 6C1.24896 6 0.802213 5.80964 0.481328 5.42893C0.160443 5.04822 0 4.51396 0 3.82614C0 3.13579 0.161826 2.59898 0.485477 2.21574C0.811895 1.82995 1.26279 1.63706 1.83817 1.63706C2.44122 1.63706 2.90042 1.84137 3.21577 2.25H3.26556C3.21853 1.94797 3.19502 1.70939 3.19502 1.53426V0H4.17427V5.92386H3.41079L3.24066 5.37183H3.19502C2.88243 5.79061 2.42462 6 1.82158 6ZM2.08299 5.27665C2.48409 5.27665 2.77593 5.17386 2.95851 4.96827C3.14108 4.76015 3.23513 4.42386 3.24066 3.95939V3.83376C3.24066 3.3033 3.14661 2.9264 2.95851 2.70305C2.7704 2.4797 2.4758 2.36802 2.07469 2.36802C1.73167 2.36802 1.4675 2.49619 1.28216 2.75254C1.09682 3.00635 1.00415 3.36929 1.00415 3.84137C1.00415 4.30838 1.09405 4.66497 1.27386 4.91117C1.45367 5.15482 1.72337 5.27665 2.08299 5.27665Z"
            fill="#8C8C8C" />
        <path
            d="M9.639 3.81091C9.639 4.49873 9.44675 5.03553 9.06224 5.42132C8.67773 5.80711 8.14246 6 7.45643 6C7.02766 6 6.64869 5.91117 6.3195 5.7335C5.99032 5.55584 5.73721 5.30076 5.56017 4.96827C5.38313 4.63579 5.29461 4.25 5.29461 3.81091C5.29461 3.12817 5.48548 2.59518 5.86722 2.21193C6.24896 1.82868 6.787 1.63706 7.48133 1.63706C8.14523 1.63706 8.67082 1.83376 9.05809 2.22716C9.44537 2.61802 9.639 3.14594 9.639 3.81091ZM6.29876 3.81091C6.29876 4.78299 6.69018 5.26904 7.47303 5.26904C8.24758 5.26904 8.63485 4.78299 8.63485 3.81091C8.63485 2.84898 8.24481 2.36802 7.46473 2.36802C7.05533 2.36802 6.75795 2.49239 6.57261 2.74112C6.39004 2.98985 6.29876 3.34645 6.29876 3.81091Z"
            fill="#8C8C8C" />
        <path
            d="M12.6141 6C11.9198 6 11.3914 5.81472 11.029 5.44416C10.6694 5.07107 10.4896 4.5368 10.4896 3.84137C10.4896 3.13325 10.6777 2.58883 11.0539 2.20812C11.4329 1.82741 11.9793 1.63706 12.6929 1.63706C13.177 1.63706 13.6127 1.71954 14 1.88452L13.7054 2.60406C13.2932 2.45685 12.953 2.38325 12.6846 2.38325C11.8907 2.38325 11.4938 2.86675 11.4938 3.83376C11.4938 4.30584 11.592 4.66117 11.7884 4.89975C11.9876 5.13579 12.278 5.25381 12.6598 5.25381C13.0941 5.25381 13.5048 5.15482 13.8921 4.95685V5.73731C13.7178 5.83122 13.5311 5.89848 13.332 5.93909C13.1355 5.9797 12.8963 6 12.6141 6Z"
            fill="#8C8C8C" />
    </svg>
</svg>