<svg width="24" height="24" viewBox="0 0 24 24" fill="none" xmlns="http://www.w3.org/2000/svg">
<path d="M7.73594 7.73038C7.34542 8.1209 7.34544 8.7541 7.73594 9.14459L10.5644 11.973L7.73594 14.8014C7.34542 15.192 7.34544 15.8252 7.73594 16.2157C8.12643 16.6062 8.75963 16.6062 9.15015 16.2157L11.9786 13.3872L14.807 16.2157C15.1975 16.6062 15.8307 16.6062 16.2212 16.2157C16.6117 15.8251 16.6117 15.1919 16.2212 14.8014L13.3928 11.973L16.2212 9.14459C16.6117 8.75408 16.6117 8.12088 16.2212 7.73038C15.8307 7.33988 15.1975 7.33986 14.807 7.73038L11.9786 10.5588L9.15015 7.73038C8.75965 7.33988 8.12645 7.33986 7.73594 7.73038Z" fill="white"/>
</svg>
