<svg width="30" height="30" viewBox="0 0 24 24" fill="none" xmlns="http://www.w3.org/2000/svg">
<path fill-rule="evenodd" clip-rule="evenodd" d="M15.3775 8.01521L10.0784 9.35387C9.7221 9.44389 9.44385 9.72214 9.35383 10.0785L8.01521 15.3775C7.92249 15.7446 8.25542 16.0775 8.62244 15.9848L13.9215 14.6461C14.2778 14.5561 14.5561 14.2779 14.6461 13.9215L15.9847 8.62244C16.0774 8.25542 15.7445 7.92249 15.3775 8.01521ZM12.9999 12C12.9999 12.5523 12.5522 13 11.9999 13C11.4477 13 10.9999 12.5523 10.9999 12C10.9999 11.4477 11.4477 11 11.9999 11C12.5522 11 12.9999 11.4477 12.9999 12Z" fill="#ffffff"/>
<path fill-rule="evenodd" clip-rule="evenodd" d="M22 12C22 17.5228 17.5228 22 12 22C6.47715 22 2 17.5228 2 12C2 6.47715 6.47715 2 12 2C17.5228 2 22 6.47715 22 12ZM20 12C20 16.4183 16.4183 20 12 20C7.58172 20 4 16.4183 4 12C4 7.58172 7.58172 4 12 4C16.4183 4 20 7.58172 20 12Z" fill="#ffffff"/>
</svg>
