<?xml version="1.0" standalone="no"?>
<!DOCTYPE svg PUBLIC "-//W3C//DTD SVG 20010904//EN"
 "http://www.w3.org/TR/2001/REC-SVG-20010904/DTD/svg10.dtd">
<svg version="1.0" xmlns="http://www.w3.org/2000/svg"
 width="256.000000pt" height="210.000000pt" viewBox="0 0 256.000000 256.000000"
 preserveAspectRatio="xMidYMid meet">

<g transform="translate(0.000000,256.000000) scale(0.100000,-0.100000)"
fill="white" stroke="none">
<path d="M1675 2506 c-51 -22 -70 -52 -70 -107 l0 -49 253 -252 c138 -139 252
-256 252 -260 0 -3 -448 -6 -995 -6 l-995 0 -30 -22 c-64 -45 -58 -147 12
-190 33 -20 47 -20 1178 -20 1131 0 1145 0 1178 20 18 11 40 36 48 56 30 72
27 77 -369 472 -200 199 -370 362 -378 362 -8 0 -23 2 -34 5 -11 3 -33 -1 -50
-9z"/>
<path d="M111 947 c-63 -32 -84 -117 -43 -174 11 -15 177 -184 369 -374 286
-284 354 -347 382 -353 49 -9 101 19 125 67 34 70 24 85 -249 357 -135 135
-245 248 -245 252 0 5 446 8 990 8 1076 0 1029 -2 1060 55 31 57 7 132 -51
162 -19 10 -280 13 -1169 13 -889 0 -1150 -3 -1169 -13z"/>
</g>
</svg>
