<svg width="24" height="24" viewBox="0 0 24 24" fill="none" xmlns="http://www.w3.org/2000/svg">
<path fill-rule="evenodd" clip-rule="evenodd" d="M7 2C7.55229 2 8 2.44772 8 3V5.00008L8.35719 5H15.6428L16 5.00008V3C16 2.44772 16.4477 2 17 2C17.5523 2 18 2.44772 18 3V5.03669C18.1062 5.0427 18.2091 5.04969 18.3086 5.05782C19.0375 5.11737 19.6777 5.24318 20.27 5.54497C21.2108 6.02433 21.9757 6.78924 22.455 7.73005C22.7568 8.32234 22.8826 8.96253 22.9422 9.69138C23 10.3992 23 11.2733 23 12.3571V12.3572V15.6428V15.6429C23 16.7267 23 17.6008 22.9422 18.3086C22.8826 19.0375 22.7568 19.6777 22.455 20.27C21.9757 21.2108 21.2108 21.9757 20.27 22.455C19.6777 22.7568 19.0375 22.8826 18.3086 22.9422C17.6008 23 16.7267 23 15.6429 23H15.6428H8.35717H8.35707C7.27334 23 6.39923 23 5.69138 22.9422C4.96253 22.8826 4.32234 22.7568 3.73005 22.455C2.78924 21.9757 2.02434 21.2108 1.54497 20.27C1.24318 19.6777 1.11737 19.0375 1.05782 18.3086C0.999983 17.6007 0.999991 16.7266 1 15.6428V15.6428V12.3572V12.3572C0.999991 11.2734 0.999983 10.3993 1.05782 9.69138C1.11737 8.96253 1.24318 8.32234 1.54497 7.73005C2.02434 6.78924 2.78924 6.02433 3.73005 5.54497C4.32234 5.24318 4.96253 5.11737 5.69138 5.05782C5.79092 5.04969 5.89376 5.0427 6 5.03669V3C6 2.44772 6.44772 2 7 2ZM16 7.00012V8C16 8.55228 16.4477 9 17 9C17.5523 9 18 8.55228 18 8V7.04039C18.0497 7.04371 18.0982 7.04729 18.1458 7.05118C18.7509 7.10062 19.0986 7.19279 19.362 7.32698C19.9265 7.6146 20.3854 8.07354 20.673 8.63803C20.8072 8.90138 20.8994 9.24907 20.9488 9.85424C20.9992 10.4711 21 11.2634 21 12.4V15.6C21 16.7366 20.9992 17.5289 20.9488 18.1458C20.8994 18.7509 20.8072 19.0986 20.673 19.362C20.3854 19.9265 19.9265 20.3854 19.362 20.673C19.0986 20.8072 18.7509 20.8994 18.1458 20.9488C17.5289 20.9992 16.7366 21 15.6 21H8.4C7.26339 21 6.47108 20.9992 5.85424 20.9488C5.24907 20.8994 4.90138 20.8072 4.63803 20.673C4.07354 20.3854 3.6146 19.9265 3.32698 19.362C3.1928 19.0986 3.10062 18.7509 3.05118 18.1458C3.00078 17.5289 3 16.7366 3 15.6V12.4C3 11.2634 3.00078 10.4711 3.05118 9.85424C3.10062 9.24907 3.1928 8.90138 3.32698 8.63803C3.6146 8.07354 4.07354 7.6146 4.63803 7.32698C4.90138 7.19279 5.24907 7.10062 5.85424 7.05118C5.90176 7.04729 5.95032 7.04371 6 7.04039V8C6 8.55228 6.44772 9 7 9C7.55229 9 8 8.55228 8 8V7.00012L8.4 7H15.6L16 7.00012ZM6 12C6 11.4477 6.44772 11 7 11C7.55229 11 8 11.4477 8 12C8 12.5523 7.55229 13 7 13C6.44772 13 6 12.5523 6 12ZM17 11C16.4477 11 16 11.4477 16 12C16 12.5523 16.4477 13 17 13C17.5523 13 18 12.5523 18 12C18 11.4477 17.5523 11 17 11ZM11 12C11 11.4477 11.4477 11 12 11C12.5523 11 13 11.4477 13 12C13 12.5523 12.5523 13 12 13C11.4477 13 11 12.5523 11 12ZM12 16C11.4477 16 11 16.4477 11 17C11 17.5523 11.4477 18 12 18C12.5523 18 13 17.5523 13 17C13 16.4477 12.5523 16 12 16ZM16 17C16 16.4477 16.4477 16 17 16C17.5523 16 18 16.4477 18 17C18 17.5523 17.5523 18 17 18C16.4477 18 16 17.5523 16 17ZM7 16C6.44772 16 6 16.4477 6 17C6 17.5523 6.44772 18 7 18C7.55229 18 8 17.5523 8 17C8 16.4477 7.55229 16 7 16Z" fill="white"/>
</svg>
