<svg width="24" height="24" viewBox="0 0 24 24" fill="none" xmlns="http://www.w3.org/2000/svg">
<path fill-rule="evenodd" clip-rule="evenodd" d="M18.0685 3.1745C16.5065 1.61241 13.9738 1.6124 12.4117 3.17449L5.50561 10.0805C5.22816 10.358 5.03845 10.7109 4.9601 11.0954L4.04229 15.5991C3.75606 17.0037 4.99689 18.2445 6.40144 17.9582L10.905 17.0403C11.2895 16.9619 11.6424 16.7722 11.9198 16.4948L18.8259 9.58872C20.388 8.02662 20.388 5.49395 18.8259 3.93186L18.0685 3.1745ZM13.8259 4.58871C14.607 3.80767 15.8733 3.80767 16.6543 4.58872L17.4117 5.34607C18.1927 6.12712 18.1927 7.39345 17.4117 8.1745L17 8.58614L13.4143 5.00036L13.8259 4.58871ZM12 6.41457L8.41425 10.0003L12 13.5861L15.5858 10.0003L12 6.41457ZM6.91982 11.4948L7.00003 11.4146L10.5858 15.0003L10.5056 15.0806L6.00201 15.9985L6.91982 11.4948Z" fill="#06122B"/>
<path d="M5 20.0002C4.44772 20.0002 4 20.448 4 21.0002C4 21.5525 4.44772 22.0002 5 22.0002H19C19.5523 22.0002 20 21.5525 20 21.0002C20 20.448 19.5523 20.0002 19 20.0002H5Z" fill="#06122B"/>
</svg>
