<svg width="18" height="18" viewBox="0 0 18 18" fill="none" xmlns="http://www.w3.org/2000/svg">
<path d="M16 12.2L16 9C16 8.44771 16.4477 8 17 8C17.5523 8 18 8.44771 18 9V12.2413C18 13.0463 18 13.7106 17.9558 14.2518C17.9099 14.8139 17.8113 15.3306 17.564 15.816C17.1805 16.5686 16.5686 17.1805 15.816 17.564C15.3306 17.8113 14.8139 17.9099 14.2518 17.9558C13.7106 18 13.0463 18 12.2413 18H5.75872C4.95375 18 4.28937 18 3.74817 17.9558C3.18608 17.9099 2.66937 17.8113 2.18404 17.564C1.43139 17.1805 0.819468 16.5686 0.435975 15.816C0.188683 15.3306 0.0901192 14.8139 0.0441941 14.2518C-2.20649e-05 13.7106 -1.25008e-05 13.0463 4.39778e-07 12.2413V9C4.39778e-07 8.44771 0.447717 8 1 8C1.55229 8 2 8.44772 2 9L2 12.2C2 13.0566 2.00078 13.6389 2.03755 14.089C2.07337 14.5274 2.1383 14.7516 2.21799 14.908C2.40973 15.2843 2.71569 15.5903 3.09202 15.782C3.24842 15.8617 3.47262 15.9266 3.91104 15.9624C4.36113 15.9992 4.94342 16 5.8 16H12.2C13.0566 16 13.6389 15.9992 14.089 15.9624C14.5274 15.9266 14.7516 15.8617 14.908 15.782C15.2843 15.5903 15.5903 15.2843 15.782 14.908C15.8617 14.7516 15.9266 14.5274 15.9624 14.089C15.9992 13.6389 16 13.0566 16 12.2Z" fill="#06122B"/>
<path d="M9 0C9.55228 0 10 0.447715 10 1V9.58579L11.2929 8.29289C11.6834 7.90237 12.3166 7.90237 12.7071 8.29289C13.0976 8.68342 13.0976 9.31658 12.7071 9.70711L9.70711 12.7071C9.31658 13.0976 8.68342 13.0976 8.29289 12.7071L5.29289 9.70711C4.90237 9.31658 4.90237 8.68342 5.29289 8.29289C5.68342 7.90237 6.31658 7.90237 6.70711 8.29289L8 9.58579V1C8 0.447715 8.44772 0 9 0Z" fill="#06122B"/>
</svg>
