<svg width="24" height="24" viewBox="0 0 24 24" fill="none" xmlns="http://www.w3.org/2000/svg">
<path d="M12 11C12 12.1046 11.1046 13 10 13C8.89543 13 8 12.1046 8 11C8 9.89543 8.89543 9 10 9C11.1046 9 12 9.89543 12 11Z" fill="#06122B"/>
<path d="M15.7068 16.2953L13.7236 14.2987C13.3247 13.8972 12.6751 13.8972 12.2762 14.2987L10.293 16.2953C9.66631 16.9263 10.1132 18.0001 11.0025 18.0001H14.9973C15.8866 18.0001 16.3335 16.9263 15.7068 16.2953Z" fill="#06122B"/>
<path fill-rule="evenodd" clip-rule="evenodd" d="M13.1137 2.00003C13.7487 1.99973 14.2284 1.9995 14.6911 2.11058C15.0993 2.20857 15.4895 2.37019 15.8474 2.5895C16.2531 2.83813 16.5922 3.17756 17.041 3.62678L18.3733 4.95909C18.8225 5.40789 19.1619 5.74699 19.4106 6.15271C19.6299 6.5106 19.7915 6.90078 19.8895 7.30892C20.0006 7.77161 20.0003 8.25142 20 8.8864L20 16.2414C20 17.0463 20 17.7107 19.9558 18.2519C19.9099 18.814 19.8113 19.3307 19.564 19.816C19.1805 20.5687 18.5686 21.1806 17.816 21.5641C17.3306 21.8114 16.8139 21.9099 16.2518 21.9559C15.7106 22.0001 15.0463 22.0001 14.2413 22.0001H9.75868C8.95372 22.0001 8.28937 22.0001 7.74818 21.9559C7.18608 21.9099 6.66938 21.8114 6.18404 21.5641C5.43139 21.1806 4.81947 20.5687 4.43598 19.816C4.18868 19.3307 4.09012 18.814 4.0442 18.2519C3.99998 17.7107 3.99999 17.0463 4 16.2414V7.75875C3.99999 6.95379 3.99998 6.28943 4.0442 5.74824C4.09012 5.18614 4.18868 4.66944 4.43598 4.1841C4.81947 3.43145 5.43139 2.81953 6.18404 2.43604C6.66938 2.18875 7.18608 2.09018 7.74818 2.04426C8.28937 2.00004 8.95373 2.00005 9.7587 2.00006L13.1137 2.00003ZM9.8 4.00006H13V6.00006C13 7.65692 14.3431 9.00006 16 9.00006H18V16.2001C18 17.0566 17.9992 17.6389 17.9624 18.089C17.9266 18.5274 17.8617 18.7516 17.782 18.908C17.5903 19.2844 17.2843 19.5903 16.908 19.7821C16.7516 19.8618 16.5274 19.9267 16.089 19.9625C15.6389 19.9993 15.0566 20.0001 14.2 20.0001H9.8C8.94342 20.0001 8.36113 19.9993 7.91104 19.9625C7.47262 19.9267 7.24842 19.8618 7.09202 19.7821C6.7157 19.5903 6.40974 19.2844 6.21799 18.908C6.1383 18.7516 6.07337 18.5274 6.03755 18.089C6.00078 17.6389 6 17.0566 6 16.2001V7.80006C6 6.94348 6.00078 6.36119 6.03755 5.9111C6.07337 5.47269 6.1383 5.24848 6.21799 5.09208C6.40974 4.71576 6.7157 4.4098 7.09202 4.21805C7.24842 4.13836 7.47262 4.07343 7.91104 4.03761C8.36113 4.00084 8.94342 4.00006 9.8 4.00006ZM16.887 6.30128C17.2479 6.66216 17.4398 6.85796 17.56 7.00006H16C15.4477 7.00006 15 6.55235 15 6.00006V4.44009C15.1421 4.56026 15.3379 4.75218 15.6988 5.11306L16.887 6.30128Z" fill="#06122B"/>
</svg>
