<svg width="25" height="24" viewBox="0 0 25 24" fill="none" xmlns="http://www.w3.org/2000/svg">
<g clip-path="url(#clip0_7947_15076)">
<path d="M3.16554 7.90606L22.8608 3.73382C22.8608 3.73382 23.8807 3.53861 23.1719 4.06821L10.1623 13.1411C10.0601 13.2559 9.93482 13.3497 9.79383 13.417C9.65285 13.4843 9.49911 13.5236 9.34184 13.5326C9.18458 13.5417 9.02702 13.5202 8.87864 13.4695C8.73025 13.4189 8.5941 13.3401 8.47834 13.2378L3.02095 10.3378C-0.22468 8.74955 3.16554 7.90606 3.16554 7.90606Z" stroke="#F5F5F5" stroke-width="1.75"/>
<path d="M13.9496 21.0799L23.3886 4.07856C23.3886 4.07856 23.3649 3.77072 23.0102 4.05986L9.73494 13.5461C9.68882 13.5695 9.64981 13.6039 9.62174 13.6459C9.59366 13.688 9.57748 13.7363 9.57477 13.7862C9.57207 13.836 9.58292 13.8857 9.60629 13.9303C9.62965 13.975 9.66473 14.013 9.70807 14.0408L11.5615 20.6419C12.7363 22.6236 13.9496 21.0799 13.9496 21.0799Z" stroke="#F5F5F5" stroke-width="1.75"/>
</g>
<defs>
<clipPath id="clip0_7947_15076">
<rect width="24" height="24" fill="white" transform="translate(0.5)"/>
</clipPath>
</defs>
</svg>
