<svg width="60" height="60" viewBox="0 0 60 60" fill="none" xmlns="http://www.w3.org/2000/svg">
<rect x="1" y="1" width="58" height="58" rx="29" fill="#5177C6" stroke="white" stroke-width="2"/>
<path fill-rule="evenodd" clip-rule="evenodd" d="M34.2413 22H25.7587C24.9537 22 24.2894 22 23.7482 22.0442C23.1861 22.0901 22.6694 22.1887 22.184 22.436C21.4314 22.8195 20.8195 23.4314 20.436 24.184C20.1887 24.6694 20.0901 25.1861 20.0442 25.7482C20 26.2894 20 26.9537 20 27.7587V32.2413C20 33.0463 20 33.7106 20.0442 34.2518C20.0901 34.8139 20.1887 35.3306 20.436 35.816C20.8195 36.5686 21.4314 37.1805 22.184 37.564C22.6694 37.8113 23.1861 37.9099 23.7482 37.9558C24.2894 38 24.9537 38 25.7587 38H34.2413C35.0462 38 35.7106 38 36.2518 37.9558C36.8139 37.9099 37.3306 37.8113 37.816 37.564C38.5686 37.1805 39.1805 36.5686 39.564 35.816C39.8113 35.3306 39.9099 34.8139 39.9558 34.2518C39.9853 33.891 39.9951 33.4755 39.9984 33H40V32.3133C40 32.2894 40 32.2654 40 32.2413V27.7587C40 27.7346 40 27.7106 40 27.6867V27H39.9984C39.9951 26.5245 39.9853 26.109 39.9558 25.7482C39.9099 25.1861 39.8113 24.6694 39.564 24.184C39.1805 23.4314 38.5686 22.8195 37.816 22.436C37.3306 22.1887 36.8139 22.0901 36.2518 22.0442C35.7106 22 35.0463 22 34.2413 22ZM37.9982 27C37.9951 26.5545 37.9864 26.2046 37.9624 25.911C37.9266 25.4726 37.8617 25.2484 37.782 25.092C37.5903 24.7157 37.2843 24.4097 36.908 24.218C36.7516 24.1383 36.5274 24.0734 36.089 24.0376C35.6389 24.0008 35.0566 24 34.2 24H25.8C24.9434 24 24.3611 24.0008 23.911 24.0376C23.4726 24.0734 23.2484 24.1383 23.092 24.218C22.7157 24.4097 22.4097 24.7157 22.218 25.092C22.1383 25.2484 22.0734 25.4726 22.0376 25.911C22.0008 26.3611 22 26.9434 22 27.8V32.2C22 33.0566 22.0008 33.6389 22.0376 34.089C22.0734 34.5274 22.1383 34.7516 22.218 34.908C22.4097 35.2843 22.7157 35.5903 23.092 35.782C23.2484 35.8617 23.4726 35.9266 23.911 35.9624C24.3611 35.9992 24.9434 36 25.8 36H34.2C35.0566 36 35.6389 35.9992 36.089 35.9624C36.5274 35.9266 36.7516 35.8617 36.908 35.782C37.2843 35.5903 37.5903 35.2843 37.782 34.908C37.8617 34.7516 37.9266 34.5274 37.9624 34.089C37.9864 33.7954 37.9951 33.4455 37.9982 33H35C33.3431 33 32 31.6569 32 30C32 28.3431 33.3431 27 35 27H37.9982ZM36 30C36 30.5523 35.5523 31 35 31C34.4477 31 34 30.5523 34 30C34 29.4477 34.4477 29 35 29C35.5523 29 36 29.4477 36 30Z" fill="white"/>
</svg>
