<svg width="24" height="24" viewBox="0 0 24 24" fill="none" xmlns="http://www.w3.org/2000/svg">
<path d="M16 12C16 11.4477 15.5523 11 15 11C14.4477 11 14 11.4477 14 12C14 12.5523 14.4477 13 15 13C15.4032 13 15.7506 12.7614 15.8968 12.4429C15.9674 12.2906 16 12.1491 16 12Z" fill="white"/>
<path fill-rule="evenodd" clip-rule="evenodd" d="M7.17241 0C5.36641 0 4 1.53402 4 3.30233V20.6977C4 22.466 5.36641 24 7.17241 24H16.8276C18.6336 24 20 22.466 20 20.6977V3.30233C20 1.53402 18.6336 0 16.8276 0H7.17241ZM6 3.30233C6 2.52756 6.57883 2 7.17241 2H16.8276C17.4212 2 18 2.52756 18 3.30233V20.6977C18 21.4724 17.4212 22 16.8276 22H7.17241C6.57883 22 6 21.4724 6 20.6977V3.30233Z" fill="white"/>
</svg>
