<svg width="24" height="24" viewBox="0 0 24 24" fill="none" xmlns="http://www.w3.org/2000/svg">
<path fill-rule="evenodd" clip-rule="evenodd" d="M14.1089 4.84525C14.1089 4.79353 14.0551 4.69141 13.9132 4.69141H10.0871C9.94525 4.69141 9.8915 4.79353 9.8915 4.84525V5.76833C9.8915 5.82005 9.94525 5.92218 10.0871 5.92218H13.9132C14.0551 5.92218 14.1089 5.82005 14.1089 5.76833V4.84525ZM13.9132 2.69141C15.092 2.69141 16.1089 3.62247 16.1089 4.84525V5.76833C16.1089 5.84647 16.1047 5.92343 16.0967 5.99902H19.1163C20.7723 5.99902 22 7.41549 22 9.01626V17.9818C22 19.5826 20.7723 20.999 19.1163 20.999H4.88372C3.22769 20.999 2 19.5826 2 17.9818V9.01626C2 7.41549 3.22769 5.99902 4.88372 5.99902H7.90373C7.89565 5.92343 7.8915 5.84647 7.8915 5.76833V4.84525C7.8915 3.62247 8.90837 2.69141 10.0871 2.69141H13.9132ZM20 9.01626C20 8.38885 19.5409 7.99902 19.1163 7.99902H4.88372C4.45905 7.99902 4 8.38885 4 9.01626V11.7182L8 12.7182V12.5186C8 11.146 9.09592 9.99902 10.4896 9.99902H13.5104C14.9041 9.99902 16 11.146 16 12.5186V12.6263L20 11.7032V9.01626ZM20 13.7558L15.9921 14.6807C15.8912 15.9624 14.8354 16.999 13.5104 16.999H10.4896C9.20051 16.999 8.16618 16.0178 8.01818 14.7843L4 13.7798V17.9818C4 18.6092 4.45905 18.999 4.88372 18.999H19.1163C19.5409 18.999 20 18.6092 20 17.9818V13.7558ZM14 14.4795C14 14.7853 13.7621 14.999 13.5104 14.999H10.4896C10.2379 14.999 10 14.7853 10 14.4795V12.5186C10 12.2128 10.2379 11.999 10.4896 11.999H13.5104C13.7621 11.999 14 12.2128 14 12.5186V14.4795Z" fill="white"/>
</svg>
