<svg width="48" height="48" viewBox="0 0 48 48" fill="none" xmlns="http://www.w3.org/2000/svg">
<path d="M11 20C11 18.8954 11.8954 18 13 18H19C20.1046 18 21 18.8954 21 20C21 21.1046 20.1046 22 19 22H18V30C18 31.1046 17.1046 32 16 32C14.8954 32 14 31.1046 14 30V22H13C11.8954 22 11 21.1046 11 20Z" fill="#1646AA"/>
<path d="M25.696 18.9399C25.2231 18.1833 24.3063 17.8315 23.4486 18.0774C22.591 18.3234 22 19.1077 22 19.9999V29.9999C22 31.1045 22.8954 31.9999 24 31.9999C25.1046 31.9999 26 31.1045 26 29.9999V26.9735L27.304 29.0599C27.6695 29.6447 28.3104 29.9999 29 29.9999C29.6896 29.9999 30.3305 29.6447 30.696 29.0599L32 26.9735V29.9999C32 31.1045 32.8954 31.9999 34 31.9999C35.1046 31.9999 36 31.1045 36 29.9999V19.9999C36 19.1077 35.409 18.3234 34.5514 18.0774C33.6937 17.8315 32.7769 18.1833 32.304 18.9399L29 24.2263L25.696 18.9399Z" fill="#1646AA"/>
<path fill-rule="evenodd" clip-rule="evenodd" d="M24 44C35.0457 44 44 35.0457 44 24C44 12.9543 35.0457 4 24 4C12.9543 4 4 12.9543 4 24C4 35.0457 12.9543 44 24 44ZM24 40C32.8366 40 40 32.8366 40 24C40 15.1634 32.8366 8 24 8C15.1634 8 8 15.1634 8 24C8 32.8366 15.1634 40 24 40Z" fill="#1646AA"/>
</svg>
