<svg width="24" height="24" viewBox="0 0 24 24" fill="none" xmlns="http://www.w3.org/2000/svg">
<path d="M20.9487 4.3165C21.1234 3.79256 20.8402 3.22624 20.3163 3.05159C19.7923 2.87694 19.226 3.1601 19.0513 3.68404L17.0747 9.61404C16.8396 10.3193 15.9445 10.5306 15.4189 10.0049L13.9954 8.58141C12.4184 7.00446 9.73324 7.63834 9.02801 9.75405L7.05134 15.684C6.8767 16.208 7.15986 16.7743 7.6838 16.949C8.20774 17.1236 8.77406 16.8404 8.94871 16.3165L10.9254 10.3865C11.1605 9.68127 12.0555 9.46997 12.5812 9.99562L14.0047 11.4191C15.5816 12.9961 18.2668 12.3622 18.972 10.2465L20.9487 4.3165Z" fill="white"/>
<path d="M5 4.00024C5 3.44796 4.55228 3.00024 4 3.00024C3.44772 3.00024 3 3.44796 3 4.00024V17.0002C3 19.2094 4.79086 21.0002 7 21.0002H20C20.5523 21.0002 21 20.5525 21 20.0002C21 19.448 20.5523 19.0002 20 19.0002H7C5.89543 19.0002 5 18.1048 5 17.0002V4.00024Z" fill="white"/>
</svg>
