<svg width="24" height="24" viewBox="0 0 24 24" fill="none" xmlns="http://www.w3.org/2000/svg">
<path d="M7 5C7.55229 5 8 5.44771 8 5.99999C8 6.1491 7.96736 6.2906 7.89683 6.44285C7.75061 6.76139 7.40317 6.99998 7 6.99998C6.44771 6.99998 6 6.55227 6 5.99999C6 5.44771 6.44771 5 7 5Z" fill="white"/>
<path fill-rule="evenodd" clip-rule="evenodd" d="M10.85 15.6245C10.1108 15.8681 9.3208 16 8.5 16C4.35786 16 1 12.6421 1 8.5C1 4.35786 4.35786 1 8.5 1C12.6421 1 16 4.35786 16 8.5C16 9.67955 15.7277 10.7955 15.2425 11.7884L21.2591 17.2571C21.773 17.7242 22.0078 18.4244 21.8795 19.1068L21.7016 20.0522C21.5491 20.8629 20.9146 21.4968 20.1037 21.6484L18.7899 21.8941C18.1893 22.0064 17.5703 21.838 17.1093 21.4369L16.4023 20.8216C16.0707 20.533 15.8434 20.1432 15.7556 19.7124L15.6216 19.0554L15.211 18.9851C14.36 18.8394 13.6986 18.1641 13.5706 17.3103L13.5279 17.025L12.8508 16.9693C12.3715 16.93 11.9224 16.7192 11.5859 16.3757L10.85 15.6245ZM14 8.5C14 11.5376 11.5376 14 8.5 14C5.46243 14 3 11.5376 3 8.5C3 5.46243 5.46243 3 8.5 3C11.5376 3 14 5.46243 14 8.5ZM12.735 14.6907L13.0146 14.9761L13.6916 15.0317C14.6168 15.1077 15.3682 15.8104 15.5058 16.7285L15.5485 17.0138L15.9592 17.0841C16.7723 17.2233 17.4165 17.8475 17.5813 18.6559L17.7153 19.3129L18.4222 19.9282L19.7361 19.6825L19.9139 18.7371L14.1179 13.4689C13.7094 13.9305 13.2449 14.3413 12.735 14.6907Z" fill="white"/>
</svg>
