<svg width="40" height="40" viewBox="0 0 40 40" fill="none" xmlns="http://www.w3.org/2000/svg">
    <path
    d="M6.66634 1.66699C4.82539 1.66699 3.33301 3.15938 3.33301 5.00032V35.0003C3.33301 36.8413 4.82539 38.3337 6.66634 38.3337H33.333C35.174 38.3337 36.6663 36.8413 36.6663 35.0003V18.3337H26.6663C23.9049 18.3337 21.6663 16.0951 21.6663 13.3337V1.66699H6.66634Z"
    fill="#EDEDED"
    />
    <path
    d="M24.9997 1.66699V13.3337C24.9997 14.2541 25.7459 15.0003 26.6663 15.0003H36.6663L24.9997 1.66699Z"
    fill="#EDEDED"
    />
    <path
    d="M12.3177 31.9438C11.3233 31.9438 10.5515 31.6179 10.0022 30.966H9.90275C9.96904 31.5704 10.0022 31.9374 10.0022 32.0669V35.0003H8.33301V24.6523H9.68256C9.72044 24.7861 9.79857 25.1056 9.91696 25.6107H10.0022C10.5231 24.8854 11.3044 24.5227 12.3461 24.5227C13.3263 24.5227 14.0887 24.8465 14.6333 25.4941C15.1826 26.1417 15.4572 27.0504 15.4572 28.2203C15.4572 29.3903 15.1778 30.3033 14.6191 30.9595C14.0651 31.6157 13.2979 31.9438 12.3177 31.9438ZM11.9129 25.7661C11.2499 25.7661 10.7646 25.9431 10.4568 26.2971C10.1537 26.6511 10.0022 27.2166 10.0022 27.9937V28.2203C10.0022 29.0924 10.1537 29.7248 10.4568 30.1177C10.7598 30.5062 11.2547 30.7005 11.9413 30.7005C12.519 30.7005 12.9641 30.4846 13.2766 30.0529C13.5892 29.6212 13.7454 29.006 13.7454 28.2074C13.7454 27.4044 13.5892 26.7979 13.2766 26.3877C12.9688 25.9733 12.5143 25.7661 11.9129 25.7661Z"
    fill="#8C8C8C"
    />
    <path
    d="M20.0457 31.9438C19.0655 31.9438 18.3008 31.62 17.7515 30.9725C17.2022 30.3249 16.9275 29.4162 16.9275 28.2462C16.9275 27.072 17.2045 26.1589 17.7586 25.507C18.3173 24.8508 19.0892 24.5227 20.0741 24.5227C21.1064 24.5227 21.8925 24.8703 22.4323 25.5653H22.5175C22.437 25.0516 22.3968 24.6458 22.3968 24.3479V21.7382H24.073V31.8143H22.7661L22.4749 30.8753H22.3968C21.8617 31.5877 21.078 31.9438 20.0457 31.9438ZM20.4932 30.7135C21.1798 30.7135 21.6794 30.5386 21.9919 30.1889C22.3044 29.8349 22.4654 29.2629 22.4749 28.4729V28.2592C22.4749 27.3569 22.3139 26.7158 21.9919 26.3359C21.6699 25.956 21.1656 25.7661 20.479 25.7661C19.8918 25.7661 19.4396 25.9841 19.1223 26.4201C18.8051 26.8518 18.6464 27.4692 18.6464 28.2721C18.6464 29.0665 18.8003 29.673 19.1081 30.0918C19.4159 30.5062 19.8776 30.7135 20.4932 30.7135Z"
    fill="#8C8C8C"
    />
    <path
    d="M30.4017 25.8049H28.4839V31.8143H26.8077V25.8049H25.5149V25.0926L26.8077 24.6264V24.1601C26.8077 23.314 27.0255 22.688 27.4611 22.2822C27.8968 21.8721 28.5621 21.667 29.457 21.667C30.0442 21.667 30.6219 21.7555 31.1902 21.9325L30.7498 23.0852C30.3378 22.9643 29.9448 22.9038 29.5707 22.9038C29.1919 22.9038 28.9149 23.0118 28.7397 23.2276C28.5692 23.4392 28.4839 23.7586 28.4839 24.186V24.6523H30.4017V25.8049Z"
    fill="#8C8C8C"
    />
</svg>