<svg width="24" height="24" viewBox="0 0 24 24" fill="none" xmlns="http://www.w3.org/2000/svg">
<path fill-rule="evenodd" clip-rule="evenodd" d="M17.032 3H6.96802C6.52939 2.99999 6.15087 2.99998 5.83762 3.02135C5.50779 3.04386 5.17788 3.09336 4.85195 3.22836C4.11687 3.53285 3.53285 4.11687 3.22836 4.85195C3.09336 5.17788 3.04386 5.50779 3.02135 5.83762C2.99998 6.15087 2.99999 6.52934 3 6.96797V7.03198C2.99999 7.47061 2.99998 7.84914 3.02135 8.16238C3.04386 8.49221 3.09336 8.82212 3.22836 9.14805C3.53285 9.88314 4.11687 10.4672 4.85195 10.7716C5.17788 10.9066 5.50779 10.9561 5.83762 10.9787C6.15088 11 6.52936 11 6.96801 11H17.032C17.4706 11 17.8491 11 18.1624 10.9787C18.4922 10.9561 18.8221 10.9066 19.1481 10.7716C19.8831 10.4672 20.4672 9.88314 20.7716 9.14805C20.9066 8.82212 20.9561 8.49221 20.9787 8.16238C21 7.84913 21 7.47064 21 7.03199V6.96801C21 6.52936 21 6.15088 20.9787 5.83762C20.9561 5.50779 20.9066 5.17788 20.7716 4.85195C20.4672 4.11687 19.8831 3.53285 19.1481 3.22836C18.8221 3.09336 18.4922 3.04386 18.1624 3.02135C17.8491 2.99998 17.4706 2.99999 17.032 3ZM5.61732 5.07612C5.65893 5.05889 5.74576 5.03227 5.97376 5.01671C6.21074 5.00054 6.52038 5 7 5H17C17.4796 5 17.7893 5.00054 18.0262 5.01671C18.2542 5.03227 18.3411 5.05889 18.3827 5.07612C18.6277 5.17762 18.8224 5.37229 18.9239 5.61732C18.9411 5.65893 18.9677 5.74576 18.9833 5.97376C18.9995 6.21074 19 6.52038 19 7C19 7.47963 18.9995 7.78926 18.9833 8.02624C18.9677 8.25424 18.9411 8.34107 18.9239 8.38269C18.8224 8.62771 18.6277 8.82239 18.3827 8.92388C18.3411 8.94112 18.2542 8.96774 18.0262 8.98329C17.7893 8.99946 17.4796 9 17 9H7C6.52038 9 6.21074 8.99946 5.97376 8.98329C5.74576 8.96774 5.65893 8.94112 5.61732 8.92388C5.37229 8.82239 5.17762 8.62771 5.07612 8.38269C5.05889 8.34107 5.03227 8.25424 5.01671 8.02624C5.00054 7.78926 5 7.47963 5 7C5 6.52038 5.00054 6.21074 5.01671 5.97376C5.03227 5.74576 5.05889 5.65893 5.07612 5.61732C5.17762 5.37229 5.37229 5.17762 5.61732 5.07612Z" fill="currentColor"/>
<path fill-rule="evenodd" clip-rule="evenodd" d="M17.032 13H6.96802C6.52939 13 6.15087 13 5.83762 13.0214C5.50779 13.0439 5.17788 13.0934 4.85195 13.2284C4.11687 13.5328 3.53285 14.1169 3.22836 14.852C3.09336 15.1779 3.04386 15.5078 3.02135 15.8376C2.99998 16.1509 2.99999 16.5293 3 16.968V17.032C2.99999 17.4706 2.99998 17.8491 3.02135 18.1624C3.04386 18.4922 3.09336 18.8221 3.22836 19.1481C3.53285 19.8831 4.11687 20.4672 4.85195 20.7716C5.17788 20.9066 5.50779 20.9561 5.83762 20.9787C6.15088 21 6.52936 21 6.96801 21H17.032C17.4706 21 17.8491 21 18.1624 20.9787C18.4922 20.9561 18.8221 20.9066 19.1481 20.7716C19.8831 20.4672 20.4672 19.8831 20.7716 19.1481C20.9066 18.8221 20.9561 18.4922 20.9787 18.1624C21 17.8491 21 17.4706 21 17.032V16.968C21 16.5294 21 16.1509 20.9787 15.8376C20.9561 15.5078 20.9066 15.1779 20.7716 14.852C20.4672 14.1169 19.8831 13.5328 19.1481 13.2284C18.8221 13.0934 18.4922 13.0439 18.1624 13.0214C17.8491 13 17.4706 13 17.032 13ZM5.61732 15.0761C5.65893 15.0589 5.74576 15.0323 5.97376 15.0167C6.21074 15.0005 6.52038 15 7 15H17C17.4796 15 17.7893 15.0005 18.0262 15.0167C18.2542 15.0323 18.3411 15.0589 18.3827 15.0761C18.6277 15.1776 18.8224 15.3723 18.9239 15.6173C18.9411 15.6589 18.9677 15.7458 18.9833 15.9738C18.9995 16.2107 19 16.5204 19 17C19 17.4796 18.9995 17.7893 18.9833 18.0262C18.9677 18.2542 18.9411 18.3411 18.9239 18.3827C18.8224 18.6277 18.6277 18.8224 18.3827 18.9239C18.3411 18.9411 18.2542 18.9677 18.0262 18.9833C17.7893 18.9995 17.4796 19 17 19H7C6.52038 19 6.21074 18.9995 5.97376 18.9833C5.74576 18.9677 5.65893 18.9411 5.61732 18.9239C5.37229 18.8224 5.17762 18.6277 5.07612 18.3827C5.05889 18.3411 5.03227 18.2542 5.01671 18.0262C5.00054 17.7893 5 17.4796 5 17C5 16.5204 5.00054 16.2107 5.01671 15.9738C5.03227 15.7458 5.05889 15.6589 5.07612 15.6173C5.17762 15.3723 5.37229 15.1776 5.61732 15.0761Z" fill="currentColor"/>
</svg>
