<svg width="48" height="48" viewBox="0 0 48 48" fill="none" xmlns="http://www.w3.org/2000/svg">
<path d="M19.5338 19.7312C20.4899 20.2843 21.7134 19.9576 22.2665 19.0015C24.1805 16.2308 27.8802 19.92 24.8468 21.7233C24.3016 22.0474 23.5885 22.587 23.0462 23.2479C22.5327 23.8737 22.061 24.7343 22.0056 25.7921C21.9985 25.8604 21.9949 25.9298 21.9949 26C21.9949 27.1046 22.8903 28 23.9949 28C25.5194 28 25.8096 27.1901 26.1024 26.3728C26.2908 25.847 26.4803 25.3182 27.0001 25C28.6533 23.988 30.0001 22.1955 30.0001 20C30.0001 16.6863 27.3138 14 24.0001 14C21.7768 14 19.8384 15.2104 18.804 16.9985C18.2509 17.9547 18.5777 19.1781 19.5338 19.7312Z" fill="#1646AA"/>
<path d="M21.9949 32C21.9949 30.8954 22.8903 30 23.9949 30C25.0994 30 25.9949 30.8954 25.9949 32C25.9949 33.1046 25.0994 34 23.9949 34C22.8903 34 21.9949 33.1046 21.9949 32Z" fill="#1646AA"/>
<path fill-rule="evenodd" clip-rule="evenodd" d="M27.2856 6H20.7144C18.5468 5.99998 16.7985 5.99997 15.3828 6.11564C13.9251 6.23474 12.6447 6.48636 11.4601 7.08994C9.57848 8.04867 8.04867 9.57848 7.08994 11.4601C6.48636 12.6447 6.23474 13.9251 6.11564 15.3828C5.99997 16.7985 5.99998 18.5468 6 20.7144V27.2856C5.99998 29.4532 5.99997 31.2015 6.11564 32.6173C6.23474 34.0749 6.48636 35.3553 7.08994 36.5399C8.04867 38.4215 9.57848 39.9513 11.4601 40.9101C12.6447 41.5136 13.9251 41.7653 15.3828 41.8844C16.7985 42 18.5467 42 20.7141 42H27.2857C29.4531 42 31.2015 42 32.6173 41.8844C34.0749 41.7653 35.3553 41.5136 36.5399 40.9101C38.4215 39.9513 39.9513 38.4215 40.9101 36.5399C41.5136 35.3553 41.7653 34.0749 41.8844 32.6173C42 31.2015 42 29.4533 42 27.2859V20.7143C42 18.5469 42 16.7985 41.8844 15.3828C41.7653 13.9251 41.5136 12.6447 40.9101 11.4601C39.9513 9.57848 38.4215 8.04867 36.5399 7.08994C35.3553 6.48636 34.0749 6.23474 32.6173 6.11564C31.2015 5.99997 29.4532 5.99998 27.2856 6ZM13.2761 10.654C13.8028 10.3856 14.4981 10.2012 15.7085 10.1024C16.9422 10.0016 18.5268 10 20.8 10H27.2C29.4732 10 31.0578 10.0016 32.2915 10.1024C33.5019 10.2012 34.1972 10.3856 34.7239 10.654C35.8529 11.2292 36.7708 12.1471 37.346 13.2761C37.6144 13.8028 37.7988 14.4981 37.8976 15.7085C37.9984 16.9422 38 18.5268 38 20.8V27.2C38 29.4732 37.9984 31.0578 37.8976 32.2915C37.7988 33.5019 37.6144 34.1972 37.346 34.7239C36.7708 35.8529 35.8529 36.7708 34.7239 37.346C34.1972 37.6144 33.5019 37.7988 32.2915 37.8976C31.0578 37.9984 29.4732 38 27.2 38H20.8C18.5268 38 16.9422 37.9984 15.7085 37.8976C14.4981 37.7988 13.8028 37.6144 13.2761 37.346C12.1471 36.7708 11.2292 35.8529 10.654 34.7239C10.3856 34.1972 10.2012 33.5019 10.1024 32.2915C10.0016 31.0578 10 29.4732 10 27.2V20.8C10 18.5268 10.0016 16.9422 10.1024 15.7085C10.2012 14.4981 10.3856 13.8028 10.654 13.2761C11.2292 12.1471 12.1471 11.2292 13.2761 10.654Z" fill="#1646AA"/>
</svg>
