<svg width="48" height="48" viewBox="0 0 48 48" fill="none" xmlns="http://www.w3.org/2000/svg">
<path d="M24 14C22.8954 14 22 14.8954 22 16C22 17.1046 22.8954 18 24 18H32C33.1046 18 34 17.1046 34 16C34 14.8954 33.1046 14 32 14H24Z" fill="#1646AA"/>
<path d="M22 24C22 22.8954 22.8954 22 24 22H32C33.1046 22 34 22.8954 34 24C34 25.1046 33.1046 26 32 26H24C22.8954 26 22 25.1046 22 24Z" fill="#1646AA"/>
<path d="M22 32C22 30.8954 22.8954 30 24 30H32C33.1046 30 34 30.8954 34 32C34 33.1046 33.1046 34 32 34H24C22.8954 34 22 33.1046 22 32Z" fill="#1646AA"/>
<path d="M18 32C18 33.1046 17.1046 34 16 34C14.8954 34 14 33.1046 14 32C14 30.8954 14.8954 30 16 30C17.1046 30 18 30.8954 18 32Z" fill="#1646AA"/>
<path d="M16 26C17.1046 26 18 25.1046 18 24C18 22.8954 17.1046 22 16 22C14.8954 22 14 22.8954 14 24C14 25.1046 14.8954 26 16 26Z" fill="#1646AA"/>
<path d="M18 16C18 17.1046 17.1046 18 16 18C14.8954 18 14 17.1046 14 16C14 14.8954 14.8954 14 16 14C17.1046 14 18 14.8954 18 16Z" fill="#1646AA"/>
<path fill-rule="evenodd" clip-rule="evenodd" d="M27.2856 6H20.7144C18.5468 5.99998 16.7985 5.99997 15.3828 6.11564C13.9251 6.23474 12.6447 6.48636 11.4601 7.08994C9.57848 8.04867 8.04867 9.57848 7.08994 11.4601C6.48636 12.6447 6.23474 13.9251 6.11564 15.3828C5.99997 16.7985 5.99998 18.5468 6 20.7144V27.2856C5.99998 29.4532 5.99997 31.2015 6.11564 32.6173C6.23474 34.0749 6.48636 35.3553 7.08994 36.5399C8.04867 38.4215 9.57848 39.9513 11.4601 40.9101C12.6447 41.5136 13.9251 41.7653 15.3828 41.8844C16.7985 42 18.5467 42 20.7141 42H27.2857C29.4531 42 31.2015 42 32.6173 41.8844C34.0749 41.7653 35.3553 41.5136 36.5399 40.9101C38.4215 39.9513 39.9513 38.4215 40.9101 36.5399C41.5136 35.3553 41.7653 34.0749 41.8844 32.6173C42 31.2015 42 29.4533 42 27.2859V20.7143C42 18.5469 42 16.7985 41.8844 15.3828C41.7653 13.9251 41.5136 12.6447 40.9101 11.4601C39.9513 9.57848 38.4215 8.04867 36.5399 7.08994C35.3553 6.48636 34.0749 6.23474 32.6173 6.11564C31.2015 5.99997 29.4532 5.99998 27.2856 6ZM13.2761 10.654C13.8028 10.3856 14.4981 10.2012 15.7085 10.1024C16.9422 10.0016 18.5268 10 20.8 10H27.2C29.4732 10 31.0578 10.0016 32.2915 10.1024C33.5019 10.2012 34.1972 10.3856 34.7239 10.654C35.8529 11.2292 36.7708 12.1471 37.346 13.2761C37.6144 13.8028 37.7988 14.4981 37.8976 15.7085C37.9984 16.9422 38 18.5268 38 20.8V27.2C38 29.4732 37.9984 31.0578 37.8976 32.2915C37.7988 33.5019 37.6144 34.1972 37.346 34.7239C36.7708 35.8529 35.8529 36.7708 34.7239 37.346C34.1972 37.6144 33.5019 37.7988 32.2915 37.8976C31.0578 37.9984 29.4732 38 27.2 38H20.8C18.5268 38 16.9422 37.9984 15.7085 37.8976C14.4981 37.7988 13.8028 37.6144 13.2761 37.346C12.1471 36.7708 11.2292 35.8529 10.654 34.7239C10.3856 34.1972 10.2012 33.5019 10.1024 32.2915C10.0016 31.0578 10 29.4732 10 27.2V20.8C10 18.5268 10.0016 16.9422 10.1024 15.7085C10.2012 14.4981 10.3856 13.8028 10.654 13.2761C11.2292 12.1471 12.1471 11.2292 13.2761 10.654Z" fill="#1646AA"/>
</svg>
