<svg width="24" height="24" viewBox="0 0 24 24" fill="none" xmlns="http://www.w3.org/2000/svg">
<path d="M2.66554 7.90704L22.3608 3.73479C22.3608 3.73479 23.3807 3.53958 22.6719 4.06919L9.66227 13.1421C9.56014 13.2569 9.43482 13.3507 9.29383 13.418C9.15285 13.4852 8.99911 13.5246 8.84184 13.5336C8.68458 13.5426 8.52702 13.5212 8.37864 13.4705C8.23025 13.4199 8.0941 13.3411 7.97834 13.2388L2.52095 10.3388C-0.72468 8.75053 2.66554 7.90704 2.66554 7.90704Z" stroke="#1646AA" stroke-width="1.75"/>
<path d="M13.4516 21.0789L22.8905 4.07759C22.8905 4.07759 22.8668 3.76974 22.5122 4.05888L9.2369 13.5451C9.19077 13.5685 9.15176 13.6029 9.12369 13.645C9.09562 13.687 9.07943 13.7354 9.07673 13.7852C9.07402 13.835 9.08488 13.8847 9.10824 13.9293C9.13161 13.974 9.16668 14.012 9.21003 14.0398L11.0634 20.6409C12.2383 22.6227 13.4516 21.0789 13.4516 21.0789Z" stroke="#1646AA" stroke-width="1.75"/>
</svg>
