<svg width="48" height="48" viewBox="0 0 48 48" fill="none" xmlns="http://www.w3.org/2000/svg">
<path d="M18.0747 32.6171L19.8476 28.3651C19.948 28.1241 20.0947 27.9052 20.2793 27.7206L25.4055 22.5943C26.1866 21.8133 27.4529 21.8133 28.2339 22.5943L29.4055 23.7658C30.1865 24.5468 30.1866 25.8132 29.4055 26.5942L24.2794 31.7205C24.0947 31.9051 23.8757 32.0518 23.6347 32.1523L19.3825 33.925C18.5582 34.2686 17.731 33.4415 18.0747 32.6171Z" fill="#1646AA"/>
<path fill-rule="evenodd" clip-rule="evenodd" d="M26.2273 4.00006C27.4973 3.99946 28.4569 3.999 29.3823 4.22117C30.1986 4.41714 30.9789 4.74038 31.6947 5.179C32.5062 5.67626 33.1844 6.35511 34.082 7.25356L36.7466 9.91818C37.645 10.8158 38.3239 11.494 38.8211 12.3054C39.2598 13.0212 39.583 13.8016 39.779 14.6178C40.0011 15.5432 40.0007 16.5028 40.0001 17.7728L40 32.4827C40 34.0926 40 35.4214 39.9116 36.5038C39.8198 37.628 39.6226 38.6614 39.1281 39.632C38.3611 41.1373 37.1372 42.3612 35.6319 43.1282C34.6613 43.6228 33.6278 43.8199 32.5037 43.9117C31.4213 44.0002 30.0926 44.0002 28.4827 44.0001H19.5174C17.9074 44.0002 16.5787 44.0002 15.4964 43.9117C14.3722 43.8199 13.3388 43.6228 12.3681 43.1282C10.8628 42.3612 9.63894 41.1373 8.87195 39.632C8.37737 38.6614 8.18024 37.628 8.08839 36.5038C7.99996 35.4214 7.99998 34.0927 8 32.4828V15.5175C7.99998 13.9076 7.99996 12.5789 8.08839 11.4965C8.18024 10.3723 8.37737 9.33887 8.87195 8.3682C9.63894 6.86291 10.8628 5.63906 12.3681 4.87207C13.3388 4.37749 14.3722 4.18036 15.4964 4.08851C16.5787 4.00008 17.9075 4.0001 19.5174 4.00013L26.2273 4.00006ZM19.6 8.00013H26V12.0001C26 15.3138 28.6863 18.0001 32 18.0001H36V32.4001C36 34.1133 35.9984 35.2779 35.9249 36.1781C35.8533 37.0549 35.7234 37.5033 35.564 37.8161C35.1805 38.5687 34.5686 39.1807 33.816 39.5642C33.5032 39.7235 33.0548 39.8534 32.1779 39.925C31.2777 39.9986 30.1132 40.0001 28.4 40.0001H19.6C17.8868 40.0001 16.7223 39.9986 15.8221 39.925C14.9452 39.8534 14.4968 39.7235 14.184 39.5642C13.4314 39.1807 12.8195 38.5687 12.436 37.8161C12.2766 37.5033 12.1467 37.0549 12.0751 36.1781C12.0016 35.2779 12 34.1133 12 32.4001V15.6001C12 13.887 12.0016 12.7224 12.0751 11.8222C12.1467 10.9454 12.2766 10.497 12.436 10.1842C12.8195 9.43152 13.4314 8.81959 14.184 8.4361C14.4968 8.27672 14.9452 8.14687 15.8221 8.07523C16.7223 8.00168 17.8868 8.00013 19.6 8.00013ZM33.774 12.6026C34.4958 13.3243 34.8796 13.7159 35.1199 14.0001H32C30.8954 14.0001 30 13.1047 30 12.0001V8.88017C30.2842 9.12052 30.6758 9.50435 31.3976 10.2261L33.774 12.6026Z" fill="#1646AA"/>
</svg>
