<svg width="19" height="18" viewBox="0 0 19 18" fill="none" xmlns="http://www.w3.org/2000/svg">
<path d="M16.5 12.2L16.5 9C16.5 8.44771 16.9477 8 17.5 8C18.0523 8 18.5 8.44771 18.5 9V12.2413C18.5 13.0463 18.5 13.7106 18.4558 14.2518C18.4099 14.8139 18.3113 15.3306 18.064 15.816C17.6805 16.5686 17.0686 17.1805 16.316 17.564C15.8306 17.8113 15.3139 17.9099 14.7518 17.9558C14.2106 18 13.5463 18 12.7413 18H6.25872C5.45375 18 4.78937 18 4.24817 17.9558C3.68608 17.9099 3.16937 17.8113 2.68404 17.564C1.93139 17.1805 1.31947 16.5686 0.935975 15.816C0.688683 15.3306 0.590119 14.8139 0.544194 14.2518C0.499978 13.7106 0.499987 13.0463 0.5 12.2413V9C0.5 8.44771 0.947717 8 1.5 8C2.05229 8 2.5 8.44772 2.5 9L2.5 12.2C2.5 13.0566 2.50078 13.6389 2.53755 14.089C2.57337 14.5274 2.6383 14.7516 2.71799 14.908C2.90973 15.2843 3.21569 15.5903 3.59202 15.782C3.74842 15.8617 3.97262 15.9266 4.41104 15.9624C4.86113 15.9992 5.44342 16 6.3 16H12.7C13.5566 16 14.1389 15.9992 14.589 15.9624C15.0274 15.9266 15.2516 15.8617 15.408 15.782C15.7843 15.5903 16.0903 15.2843 16.282 14.908C16.3617 14.7516 16.4266 14.5274 16.4624 14.089C16.4992 13.6389 16.5 13.0566 16.5 12.2Z" fill="#F5F5F5"/>
<path d="M9.5 0C10.0523 0 10.5 0.447715 10.5 1V9.58579L11.7929 8.29289C12.1834 7.90237 12.8166 7.90237 13.2071 8.29289C13.5976 8.68342 13.5976 9.31658 13.2071 9.70711L10.2071 12.7071C9.81658 13.0976 9.18342 13.0976 8.79289 12.7071L5.79289 9.70711C5.40237 9.31658 5.40237 8.68342 5.79289 8.29289C6.18342 7.90237 6.81658 7.90237 7.20711 8.29289L8.5 9.58579V1C8.5 0.447715 8.94772 0 9.5 0Z" fill="#F5F5F5"/>
</svg>
