<svg width="24" height="24" viewBox="0 0 24 24" fill="none" xmlns="http://www.w3.org/2000/svg">
<path fill-rule="evenodd" clip-rule="evenodd" d="M12.5878 3.29906C12.2974 3.62379 11.93 4.34801 11.5218 5.99192C10.89 8.53579 9.31643 9.9768 8.16963 10.5935L7.11386 19.4499C8.33723 19.6218 9.70315 19.8406 11.0807 20.0614C11.3576 20.1058 11.6349 20.1502 11.9117 20.1943C13.955 20.5203 15.9679 20.8308 17.59 20.9941C18.1962 21.0551 18.9102 20.6502 19.6013 19.4425C20.2693 18.2751 20.7447 16.6149 20.9122 14.8933C21.043 13.5487 21.1026 12.2529 20.9923 11.1645C20.879 10.0453 20.6032 9.33103 20.2303 8.9557C20.1949 8.92008 19.9923 8.79583 19.4093 8.80997C18.8759 8.82291 18.2259 8.94703 17.5651 9.12575C16.9131 9.30207 16.2938 9.51947 15.8341 9.69453C15.6054 9.78165 15.4188 9.85732 15.2904 9.91071C15.2263 9.93738 15.1769 9.95843 15.1443 9.97249L15.1081 9.98816L15.1 9.99172L15.0988 9.99227C14.3072 10.3434 13.4925 9.5455 13.8002 8.71953L13.8006 8.71847L13.8032 8.7113L13.8165 8.67424C13.8286 8.63979 13.8472 8.58609 13.8709 8.51445C13.9184 8.37111 13.9864 8.15624 14.0647 7.88015C14.2216 7.32731 14.4191 6.53271 14.5772 5.57811C14.7532 4.51481 14.5563 3.85673 14.3183 3.4973C14.0825 3.14129 13.7615 2.99893 13.4711 2.99893C12.9819 2.99893 12.7901 3.07275 12.5878 3.29906ZM16.1916 7.45454C16.298 7.00147 16.4053 6.48287 16.4997 5.91258C16.7372 4.47862 16.5206 3.26376 15.9317 2.37457C15.3405 1.48195 14.4211 1 13.4711 1C12.7199 1 11.8781 1.13428 11.1501 1.9485C10.5101 2.66429 10.0506 3.81301 9.63194 5.49877C9.10023 7.63974 7.71799 8.63386 7.09269 8.90797H4.17979C2.61059 8.90797 1.32094 10.1772 1.25708 11.7843L1.00247 18.1917C0.934826 19.8941 2.26298 21.3121 3.92518 21.3121H5.96882C7.36796 21.4898 9.04272 21.7581 10.7755 22.0357C11.0531 22.0802 11.3321 22.1249 11.6118 22.1695C13.6476 22.4943 15.7138 22.8138 17.3994 22.9834C19.1582 23.1605 20.4606 21.8916 21.2833 20.4539C22.1292 18.9757 22.6652 17.0188 22.8527 15.0917C22.9875 13.7058 23.0629 12.2501 22.932 10.958C22.8042 9.69662 22.4627 8.40124 21.5967 7.52949C20.9705 6.89918 20.0672 6.79452 19.3632 6.8116C18.6098 6.82987 17.7919 6.99709 17.0676 7.19296C16.7638 7.27513 16.4686 7.36454 16.1916 7.45454ZM5.16556 19.3132L6.16767 10.9069H4.17979C3.65672 10.9069 3.22684 11.33 3.20555 11.8657L2.95095 18.2731C2.9284 18.8405 3.37111 19.3132 3.92518 19.3132H5.16556Z" fill="#06122B"/>
</svg>
