<svg width="18" height="18" viewBox="0 0 18 18" fill="none" xmlns="http://www.w3.org/2000/svg">
    <path
        d="M6.00003 8C7.1046 8 8.00003 7.10457 8.00003 6C8.00003 4.89543 7.1046 4 6.00003 4C4.89546 4 4.00003 4.89543 4.00003 6C4.00003 7.10457 4.89546 8 6.00003 8Z"
        fill="#8C8C8C"
    />
    <path
        fill-rule="evenodd"
        clip-rule="evenodd"
        d="M10.6428 2.51339e-07H7.35719C6.27341 -9.47584e-06 5.39925 -1.73263e-05 4.69138 0.0578186C3.96253 0.117368 3.32234 0.243181 2.73005 0.544968C1.78924 1.02434 1.02434 1.78924 0.544968 2.73005C0.243181 3.32234 0.117368 3.96253 0.0578186 4.69138C-1.73226e-05 5.39925 -9.47584e-06 6.2734 2.51339e-07 7.35719V10.6428C-9.47584e-06 11.7266 -1.73263e-05 12.6007 0.0578186 13.3086C0.117368 14.0375 0.243181 14.6777 0.544968 15.27C1.02434 16.2108 1.78924 16.9757 2.73005 17.455C3.32234 17.7568 3.96253 17.8826 4.69138 17.9422C5.39923 18 6.27334 18 7.35707 18H10.6428C11.7266 18 12.6008 18 13.3086 17.9422C14.0375 17.8826 14.6777 17.7568 15.27 17.455C16.2108 16.9757 16.9757 16.2108 17.455 15.27C17.699 14.7912 17.8279 14.2812 17.8998 13.7184C17.9169 13.5849 17.9308 13.4484 17.9422 13.3086C17.986 12.7727 17.9966 12.1414 17.9992 11.3959C18 11.1569 18 10.9061 18 10.6429V7.35717C18 6.27344 18 5.39923 17.9422 4.69138C17.8826 3.96253 17.7568 3.32234 17.455 2.73005C16.9757 1.78924 16.2108 1.02434 15.27 0.544968C14.6777 0.243181 14.0375 0.117368 13.3086 0.0578186C12.6007 -1.73226e-05 11.7266 -9.47584e-06 10.6428 2.51339e-07ZM16 10.0931V7.4C16 6.2634 15.9992 5.47108 15.9488 4.85424C15.8994 4.24907 15.8072 3.90138 15.673 3.63803C15.3854 3.07354 14.9265 2.6146 14.362 2.32698C14.0986 2.1928 13.7509 2.10062 13.1458 2.05118C12.5289 2.00078 11.7366 2 10.6 2H7.4C6.2634 2 5.47108 2.00078 4.85424 2.05118C4.24907 2.10062 3.90138 2.1928 3.63803 2.32698C3.07354 2.6146 2.6146 3.07354 2.32698 3.63803C2.1928 3.90138 2.10062 4.24907 2.05118 4.85424C2.00078 5.47108 2 6.26339 2 7.4V10.6C2 10.6855 2.00001 10.7691 2.00003 10.8508L2.34986 10.6345L2.4285 10.5857C2.7582 10.381 3.08979 10.1751 3.46336 10.079C3.78945 9.9951 4.12912 9.97795 4.462 10.0286C4.84335 10.0866 5.19399 10.258 5.54262 10.4285L5.62578 10.4691L6.15413 10.7262C6.68352 10.9838 6.74666 11.001 6.78884 11.0065C6.86003 11.0159 6.93241 11.0099 7.00105 10.9888C7.04171 10.9763 7.10113 10.9489 7.58028 10.6068L10.0859 8.81774L10.179 8.75105C10.5633 8.47538 10.9489 8.19875 11.3939 8.08001C11.7814 7.97659 12.1882 7.96794 12.5798 8.0548C13.0294 8.15452 13.4264 8.41451 13.822 8.6736L13.9179 8.73627L16 10.0931ZM2.05314 13.1694C2.10304 13.76 2.19455 14.1021 2.32698 14.362C2.6146 14.9265 3.07354 15.3854 3.63803 15.673C3.90138 15.8072 4.24907 15.8994 4.85424 15.9488C5.47108 15.9992 6.26339 16 7.4 16H10.6C11.7366 16 12.5289 15.9992 13.1458 15.9488C13.7509 15.8994 14.0986 15.8072 14.362 15.673C14.9265 15.3854 15.3854 14.9265 15.673 14.362C15.8072 14.0986 15.8994 13.7509 15.9488 13.1458C15.9655 12.9418 15.9767 12.7186 15.9843 12.4701L12.826 10.4119C12.2633 10.0452 12.1926 10.0175 12.1467 10.0073C12.0684 9.98997 11.987 9.9917 11.9095 10.0124C11.8641 10.0245 11.7946 10.0552 11.2481 10.4454L8.74244 12.2344L8.66122 12.2926C8.32249 12.5355 7.98203 12.7796 7.58858 12.9005C7.24539 13.006 6.8835 13.0363 6.52754 12.9894C6.11946 12.9356 5.74313 12.7515 5.36871 12.5684L5.27895 12.5246L4.7506 12.2674C4.25899 12.0282 4.20097 12.0119 4.16134 12.0058C4.09476 11.9957 4.02683 11.9991 3.96161 12.0159C3.92278 12.0259 3.8667 12.048 3.40169 12.3355L2.05314 13.1694Z"
        fill="#8C8C8C"
    />
</svg>