<svg width="24" height="24" viewBox="0 0 24 24" fill="none" xmlns="http://www.w3.org/2000/svg">
<path d="M15.7071 8.70711C16.0976 8.31658 16.0976 7.68342 15.7071 7.29289C15.3166 6.90237 14.6834 6.90237 14.2929 7.29289L11 10.5858L9.70711 9.29289C9.31658 8.90237 8.68342 8.90237 8.29289 9.29289C7.90237 9.68342 7.90237 10.3166 8.29289 10.7071L10.2929 12.7071C10.6834 13.0976 11.3166 13.0976 11.7071 12.7071L15.7071 8.70711Z" fill="white"/>
<path fill-rule="evenodd" clip-rule="evenodd" d="M9 2C6.23858 2 4 4.23858 4 7V18.9892C4 21.543 6.98734 22.9289 8.93724 21.2799L11.3542 19.2358C11.727 18.9205 12.273 18.9205 12.6457 19.2358L15.0627 21.2799C17.0126 22.9289 19.9999 21.5429 19.9999 18.9892V7C19.9999 4.23858 17.7614 2 14.9999 2H9ZM6 7C6 5.34315 7.34315 4 9 4H14.9999C16.6568 4 17.9999 5.34315 17.9999 7V18.9892C17.9999 19.8405 17.0042 20.3024 16.3542 19.7528L13.9372 17.7087C12.8189 16.7629 11.1811 16.7629 10.0628 17.7087L7.64575 19.7528C6.99578 20.3025 6 19.8405 6 18.9892V7Z" fill="white"/>
</svg>
