<svg width="48" height="48" viewBox="0 0 48 48" fill="none" xmlns="http://www.w3.org/2000/svg">
<path d="M14 16C14 14.8954 14.8954 14 16 14H32C33.1046 14 34 14.8954 34 16C34 17.1046 33.1046 18 32 18H16C14.8954 18 14 17.1046 14 16Z" fill="#1646AA"/>
<path d="M14 24C14 22.8954 14.8954 22 16 22H22C23.1046 22 24 22.8954 24 24C24 25.1046 23.1046 26 22 26H16C14.8954 26 14 25.1046 14 24Z" fill="#1646AA"/>
<path fill-rule="evenodd" clip-rule="evenodd" d="M28.071 6H20.7144C18.5468 5.99998 16.7985 5.99997 15.3828 6.11564C13.9251 6.23474 12.6447 6.48636 11.4601 7.08994C9.57848 8.04867 8.04867 9.57848 7.08994 11.4601C6.48636 12.6447 6.23474 13.9251 6.11564 15.3828C5.99997 16.7985 5.99998 18.5468 6 20.7144V30.929C5.99999 32.9481 5.99998 34.5571 6.07358 35.7755C6.14277 36.9209 6.28639 38.1283 6.83932 39.0606C8.3608 41.6261 11.5357 42.6844 14.2922 41.5449C15.2939 41.1308 16.1333 40.251 16.8758 39.3763C17.6658 38.4457 18.6311 37.1585 19.8425 35.5433L19.8857 35.4857C20.4372 34.7504 20.5546 34.6093 20.6684 34.5078C20.9335 34.2712 21.2569 34.1095 21.6052 34.0394C21.7547 34.0093 21.938 34 22.8571 34H28.071C29.8745 34 31.3294 34 32.5134 33.9192C33.7309 33.8362 34.8074 33.661 35.8268 33.2388C38.2771 32.2239 40.2239 30.2771 41.2388 27.8268C41.661 26.8074 41.8362 25.7309 41.9192 24.5134C42 23.3294 42 21.8746 42 20.071V19.929C42 18.1254 42 16.6706 41.9192 15.4866C41.8362 14.2691 41.661 13.1926 41.2388 12.1732C40.2239 9.72289 38.2771 7.77615 35.8268 6.76121C34.8074 6.33896 33.7309 6.16383 32.5134 6.08076C31.3294 5.99998 29.8745 5.99999 28.071 6ZM13.2761 10.654C13.8028 10.3856 14.4981 10.2012 15.7085 10.1024C16.9422 10.0016 18.5268 10 20.8 10H28C29.8911 10 31.2093 10.0011 32.2411 10.0715C33.2549 10.1407 33.8453 10.27 34.2961 10.4567C35.7663 11.0657 36.9343 12.2337 37.5433 13.7039C37.73 14.1547 37.8593 14.7451 37.9285 15.7589C37.9989 16.7907 38 18.1089 38 20C38 21.8911 37.9989 23.2093 37.9285 24.2411C37.8593 25.2549 37.73 25.8453 37.5433 26.2961C36.9343 27.7663 35.7663 28.9343 34.2961 29.5433C33.8453 29.73 33.2549 29.8593 32.2411 29.9285C31.2093 29.9989 29.8911 30 28 30L22.7135 29.9999C22.0183 29.9994 21.4074 29.9989 20.8156 30.1181C19.7706 30.3285 18.8005 30.8135 18.0051 31.5233C17.5547 31.9253 17.1886 32.4142 16.7719 32.9707L16.6857 33.0857C15.4215 34.7714 14.5284 35.9606 13.8264 36.7877C13.479 37.1969 13.2169 37.471 13.0151 37.6514C12.8534 37.796 12.7713 37.843 12.7586 37.8503C12.7579 37.8507 12.7589 37.8501 12.7586 37.8503C11.8437 38.2245 10.791 37.875 10.2836 37.0266C10.2835 37.0264 10.2839 37.0274 10.2836 37.0266C10.2778 37.0133 10.2397 36.9247 10.1971 36.712C10.1439 36.4467 10.0987 36.0701 10.0663 35.5343C10.0009 34.4514 10 32.9642 10 30.8571V20.8C10 18.5268 10.0016 16.9422 10.1024 15.7085C10.2012 14.4981 10.3856 13.8028 10.654 13.2761C11.2292 12.1471 12.1471 11.2292 13.2761 10.654Z" fill="#1646AA"/>
</svg>
