<svg width="24" height="24" viewBox="0 0 24 24" fill="none" xmlns="http://www.w3.org/2000/svg">
<path fill-rule="evenodd" clip-rule="evenodd" d="M12 2C9.23858 2 7 4.23858 7 7C7 9.76142 9.23858 12 12 12C14.7614 12 17 9.76142 17 7C17 4.23858 14.7614 2 12 2ZM9 7C9 5.34315 10.3431 4 12 4C13.6569 4 15 5.34315 15 7C15 8.65685 13.6569 10 12 10C10.3431 10 9 8.65685 9 7Z" fill="white"/>
<path fill-rule="evenodd" clip-rule="evenodd" d="M9 14C6.23858 14 4 16.2386 4 19C4 20.6569 5.34315 22 7 22H17C18.6569 22 20 20.6569 20 19C20 16.2386 17.7614 14 15 14H9ZM6 19C6 17.3431 7.34315 16 9 16H15C16.6569 16 18 17.3431 18 19C18 19.5523 17.5523 20 17 20H7C6.44772 20 6 19.5523 6 19Z" fill="white"/>
</svg>
