<svg width="21" height="18" viewBox="0 0 21 18" fill="none" xmlns="http://www.w3.org/2000/svg">
              <path
                d="M14.2413 4.11648e-07H5.7587C4.95374 -1.19522e-05 4.28937 -2.2158e-05 3.74818 0.0441949C3.18608 0.0901201 2.66937 0.188684 2.18404 0.435975C1.43139 0.819469 0.819469 1.43139 0.435975 2.18404C0.188684 2.66937 0.0901201 3.18608 0.0441949 3.74818C-2.21655e-05 4.28937 -1.19578e-05 4.95372 4.11943e-07 5.75869V10.2413C-1.19578e-05 11.0463 -2.21655e-05 11.7106 0.0441949 12.2518C0.0901201 12.8139 0.188684 13.3306 0.435975 13.816C0.819469 14.5686 1.43139 15.1805 2.18404 15.564C2.66937 15.8113 3.18608 15.9099 3.74818 15.9558C4.28937 16 4.95373 16 5.7587 16H10C10.5523 16 11 15.5523 11 15C11 14.4477 10.5523 14 10 14H5.8C4.94342 14 4.36113 13.9992 3.91104 13.9624C3.47262 13.9266 3.24842 13.8617 3.09202 13.782C2.7157 13.5903 2.40973 13.2843 2.21799 12.908C2.1383 12.7516 2.07337 12.5274 2.03755 12.089C2.00078 11.6389 2 11.0566 2 10.2V5.8C2 4.94342 2.00078 4.36113 2.03755 3.91104C2.07337 3.47262 2.1383 3.24842 2.21799 3.09202C2.40973 2.7157 2.7157 2.40973 3.09202 2.21799C3.24842 2.1383 3.47262 2.07337 3.91104 2.03755C4.36113 2.00078 4.94342 2 5.8 2H14.2C15.0566 2 15.6389 2.00078 16.089 2.03755C16.5274 2.07337 16.7516 2.1383 16.908 2.21799C17.2843 2.40973 17.5903 2.7157 17.782 3.09202C17.8617 3.24842 17.9266 3.47262 17.9624 3.91104C17.9992 4.36113 18 4.94342 18 5.8V9C18 9.55229 18.4477 10 19 10C19.5523 10 20 9.55229 20 9V5.75868C20 4.95372 20 4.28937 19.9558 3.74818C19.9099 3.18608 19.8113 2.66937 19.564 2.18404C19.1805 1.43139 18.5686 0.819469 17.816 0.435975C17.3306 0.188684 16.8139 0.0901201 16.2518 0.0441949C15.7106 -2.21543e-05 15.0463 -1.19522e-05 14.2413 4.11648e-07Z"
                fill="#1646AA"
              />
              <path
                d="M4.17548 4.43441C4.4879 3.97898 5.11036 3.86305 5.56578 4.17548L9.4344 6.82935C9.77528 7.06319 10.2249 7.06319 10.5658 6.82935L14.4344 4.17548C14.8898 3.86305 15.5123 3.97898 15.8247 4.43441C16.1371 4.88983 16.0212 5.51229 15.5658 5.82471L11.6972 8.47859C10.6745 9.18011 9.32566 9.18011 8.30303 8.47859L4.43441 5.82471C3.97898 5.51229 3.86305 4.88983 4.17548 4.43441Z"
                fill="#1646AA"
              />
              <path
                d="M20.7071 15.7071L18.7071 17.7071C18.3166 18.0976 17.6834 18.0976 17.2929 17.7071C16.9024 17.3166 16.9024 16.6834 17.2929 16.2929L17.5858 16H14C13.4477 16 13 15.5523 13 15C13 14.4477 13.4477 14 14 14H17.5858L17.2929 13.7071C16.9024 13.3166 16.9024 12.6834 17.2929 12.2929C17.6834 11.9024 18.3166 11.9024 18.7071 12.2929L20.7071 14.2929C21.0976 14.6834 21.0976 15.3166 20.7071 15.7071Z"
                fill="#1646AA"
              />
            </svg>