<svg width="24" height="24" viewBox="0 0 24 24" fill="none" xmlns="http://www.w3.org/2000/svg">
<path fill-rule="evenodd" clip-rule="evenodd" d="M19 17C19 17.5523 18.5523 18 18 18H6C5.44772 18 5 17.5523 5 17C5 16.4477 5.44771 16 6 16H18C18.5523 16 19 16.4477 19 17ZM18 13C18.5523 13 19 12.5523 19 12C19 11.4477 18.5523 11 18 11H6C5.44772 11 5 11.4477 5 12C5 12.5523 5.44772 13 6 13H18ZM19 7C19 7.55229 18.5523 8 18 8L6 8C5.44772 8 5 7.55229 5 7C5 6.44772 5.44772 6 6 6L18 6C18.5523 6 19 6.44771 19 7Z" fill="white"/>
</svg>
