<svg width="10" height="10" viewBox="0 0 10 10" fill="none" xmlns="http://www.w3.org/2000/svg">
    <path
        d="M0.73624 0.730869C0.345722 1.12139 0.345743 1.75459 0.73624 2.14508L3.56467 4.97351L0.73624 7.80194C0.345722 8.19246 0.345743 8.82565 0.73624 9.21615C1.12674 9.60665 1.75994 9.60667 2.15045 9.21615L4.97888 6.38772L7.80731 9.21615C8.1978 9.60665 8.831 9.60667 9.22152 9.21615C9.61204 8.82563 9.61202 8.19243 9.22152 7.80194L6.39309 4.97351L9.22152 2.14508C9.61204 1.75456 9.61202 1.12137 9.22152 0.730869C8.83102 0.340372 8.19783 0.340351 7.80731 0.730869L4.97888 3.5593L2.15045 0.730869C1.75996 0.340372 1.12676 0.340351 0.73624 0.730869Z"
        fill="#FFFFFF" />
</svg>