<svg width="56" height="56" viewBox="0 0 56 56" fill="none" xmlns="http://www.w3.org/2000/svg">
<g clip-path="url(#clip0_1207_4582)">
<path d="M-0.276157 36.7656L-0.559814 36.7988L-0.0555065 41.1093L0.228151 41.0761L-0.276157 36.7656Z" fill="#407BFF"/>
<path d="M0.417202 42.6807L0.133545 42.7139L0.387977 44.8886L0.671634 44.8554L0.417202 42.6807Z" fill="#407BFF"/>
<path d="M19.2511 27.9814L18.9151 27.0406C18.4391 25.705 17.1035 24.8762 15.6951 25.0414L2.31395 26.6066C0.645148 26.8026 -0.550452 28.3146 -0.354452 29.9834L3.45355 62.5474C3.58795 63.6926 4.62395 64.5102 5.76915 64.3786L53.6463 58.7786C54.7915 58.6442 55.6091 57.6082 55.4775 56.463L52.1819 28.309C52.0475 27.1638 51.0115 26.3462 49.8663 26.4778L22.0651 29.7286C20.8359 29.8742 19.6655 29.149 19.2511 27.9814Z" fill="#CBD7F0"/>
<path d="M20.5884 9.96777L5.46094 12.9834L9.6157 33.8252L24.7432 30.8096L20.5884 9.96777Z" fill="#A3B8E2"/>
<path d="M18.5679 14.9853L9.2495 16.8417C8.7987 16.9313 8.3591 16.6373 8.2695 16.1865C8.1799 15.7357 8.47389 15.2961 8.92469 15.2065L18.2431 13.3501C18.6939 13.2605 19.1335 13.5545 19.2231 14.0053C19.3127 14.4561 19.0187 14.8957 18.5679 14.9853Z" fill="#B5C5E7"/>
<path d="M19.2537 18.4316L9.93529 20.288C9.48449 20.3776 9.04489 20.0836 8.95529 19.6328C8.86569 19.182 9.15969 18.7424 9.61049 18.6528L18.9289 16.7964C19.3797 16.7068 19.8193 17.0008 19.9089 17.4516C19.9985 17.9024 19.7073 18.342 19.2537 18.4316Z" fill="#B5C5E7"/>
<path d="M19.94 21.8788L10.6216 23.7352C10.1708 23.8248 9.73117 23.5308 9.64157 23.08C9.55197 22.6292 9.84597 22.1896 10.2968 22.1L19.6152 20.2436C20.066 20.154 20.5056 20.448 20.5952 20.8988C20.6876 21.3468 20.3936 21.7864 19.94 21.8788Z" fill="#B5C5E7"/>
<path d="M20.6284 25.3222L11.31 27.1786C10.8592 27.2682 10.4196 26.9742 10.33 26.5234C10.2404 26.0726 10.5344 25.633 10.9852 25.5434L20.3036 23.687C20.7544 23.5974 21.194 23.8914 21.2836 24.3422C21.3732 24.793 21.0792 25.2326 20.6284 25.3222Z" fill="#B5C5E7"/>
<path opacity="0.4" d="M18.7667 33.1239L11.9963 34.4735C11.5455 34.5631 11.1059 34.2691 11.0163 33.8183C10.9267 33.3675 11.2207 32.9279 11.6715 32.8383L18.4419 31.4887C18.8927 31.3991 19.3323 31.6931 19.4219 32.1439C19.5143 32.5947 19.2203 33.0343 18.7667 33.1239Z" fill="#407BFF"/>
<path d="M42.0172 8.75485L26.6345 7.60254L25.0469 28.7959L40.4296 29.9482L42.0172 8.75485Z" fill="#839ED7"/>
<path d="M38.7233 13.0446L29.2486 12.3345C28.7894 12.2993 28.4455 11.8993 28.478 11.4395C28.5133 10.9803 28.9133 10.6364 29.373 10.6689L38.8478 11.379C39.307 11.4142 39.6509 11.8142 39.6184 12.274C39.5831 12.7332 39.1831 13.0771 38.7233 13.0446Z" fill="#B5C5E7"/>
<path d="M38.4606 16.5475L28.9859 15.8374C28.5267 15.8022 28.1828 15.4022 28.2153 14.9424C28.2506 14.4832 28.6506 14.1393 29.1103 14.1718L38.5851 14.8819C39.0443 14.9172 39.3882 15.3172 39.3557 15.7769C39.3204 16.2361 38.9198 16.5828 38.4606 16.5475Z" fill="#B5C5E7"/>
<path d="M31.3323 19.5374L28.7225 19.3427C28.2633 19.3074 27.9194 18.9074 27.9519 18.4476C27.9871 17.9885 28.3872 17.6445 28.8469 17.677L31.4567 17.8718C31.9159 17.9071 32.2598 18.3071 32.2273 18.7668C32.1921 19.226 31.7921 19.5699 31.3323 19.5374Z" fill="#B5C5E7"/>
<path opacity="0.4" d="M36.3967 19.9173L33.7869 19.7226C33.3277 19.6873 32.9838 19.2873 33.0163 18.8275C33.0516 18.3683 33.4516 18.0244 33.9114 18.0569L36.5212 18.2517C36.9804 18.2869 37.3243 18.6869 37.2918 19.1467C37.2565 19.6059 36.8565 19.9498 36.3967 19.9173Z" fill="#407BFF"/>
<path d="M37.9345 23.5563L28.4598 22.8462C28.0006 22.811 27.6567 22.411 27.6892 21.9512C27.7244 21.492 28.1244 21.1481 28.5842 21.1806L38.059 21.8907C38.5181 21.9259 38.8621 22.326 38.8295 22.7857C38.7943 23.2449 38.3943 23.5888 37.9345 23.5563Z" fill="#B5C5E7"/>
<path d="M35.0845 26.8666L28.1998 26.3499C27.7407 26.3146 27.3967 25.9146 27.4293 25.4548C27.4645 24.9956 27.8645 24.6517 28.3243 24.6842L35.209 25.2009C35.6682 25.2362 36.0121 25.6362 35.9796 26.096C35.9443 26.5552 35.5443 26.8991 35.0845 26.8666Z" fill="#B5C5E7"/>
<path d="M29.8568 12.0214L14.4902 13.3604L16.3349 34.5316L31.7015 33.1927L29.8568 12.0214Z" fill="#5E7DBE"/>
<g opacity="0.4">
<path d="M27.302 16.7835L17.8352 17.6095C17.376 17.6487 16.9728 17.3099 16.9308 16.8507C16.8916 16.3915 17.2304 15.9883 17.6896 15.9463L27.1564 15.1203C27.6156 15.0811 28.0188 15.4199 28.0608 15.8791C28.1 16.3411 27.7612 16.7443 27.302 16.7835Z" fill="#B5C5E7"/>
<path d="M27.6072 20.2864L18.1404 21.1124C17.6812 21.1516 17.278 20.8128 17.236 20.3536C17.1968 19.8944 17.5356 19.4912 17.9948 19.4492L27.4616 18.6232C27.9208 18.584 28.324 18.9228 28.366 19.382C28.4052 19.8412 28.0664 20.2444 27.6072 20.2864Z" fill="#B5C5E7"/>
<path d="M27.9124 23.7864L18.4456 24.6124C17.9864 24.6516 17.5832 24.3128 17.5412 23.8536C17.502 23.3944 17.8408 22.9912 18.3 22.9492L27.7668 22.1232C28.226 22.084 28.6292 22.4228 28.6712 22.882C28.7104 23.3412 28.3716 23.7472 27.9124 23.7864Z" fill="#B5C5E7"/>
<path d="M28.2175 27.2864L18.7507 28.1124C18.2915 28.1516 17.8883 27.8128 17.8463 27.3536C17.8071 26.8944 18.1459 26.4912 18.6051 26.4492L28.072 25.6232C28.5312 25.584 28.9344 25.9228 28.9763 26.382C29.0155 26.8412 28.6767 27.2472 28.2175 27.2864Z" fill="#B5C5E7"/>
<path opacity="0.4" d="M25.9355 34.8606L19.0559 35.4598C18.5967 35.499 18.1935 35.1602 18.1515 34.701C18.1123 34.2418 18.4511 33.8386 18.9103 33.7966L25.7899 33.1974C26.2491 33.1582 26.6523 33.497 26.6943 33.9562C26.7335 34.4154 26.3947 34.8214 25.9355 34.8606Z" fill="#407BFF"/>
</g>
<path d="M46.982 15.199L31.6448 13.5596L29.386 34.6904L44.7233 36.3298L46.982 15.199Z" fill="#496BB2"/>
<g opacity="0.4">
<path d="M43.5584 19.3851L34.109 18.3762C33.6519 18.3276 33.3193 17.9158 33.368 17.4587C33.4166 17.0015 33.8284 16.669 34.2855 16.7176L43.7349 17.7265C44.1921 17.7751 44.5246 18.1869 44.476 18.6441C44.4301 19.1017 44.0184 19.4342 43.5584 19.3851Z" fill="#B5C5E7"/>
<path d="M43.1866 22.8773L33.7372 21.8684C33.28 21.8198 32.9475 21.408 32.9961 20.9508C33.0448 20.4937 33.4565 20.1612 33.9137 20.2098L43.3631 21.2187C43.8203 21.2673 44.1528 21.6791 44.1042 22.1363C44.0551 22.5962 43.6433 22.9287 43.1866 22.8773Z" fill="#B5C5E7"/>
<path d="M35.9681 25.6429L33.3647 25.3644C32.9076 25.3157 32.575 24.904 32.6237 24.4468C32.6723 23.9897 33.084 23.6571 33.5412 23.7058L36.1446 23.9842C36.6018 24.0329 36.9343 24.4446 36.8856 24.9018C36.837 25.359 36.4253 25.6915 35.9681 25.6429Z" fill="#B5C5E7"/>
<path d="M41.0164 26.1809L38.4131 25.9025C37.9559 25.8538 37.6234 25.4421 37.672 24.9849C37.7206 24.5277 38.1324 24.1952 38.5896 24.2438L41.1929 24.5223C41.6501 24.571 41.9826 24.9827 41.934 25.4399C41.8854 25.897 41.4736 26.2296 41.0164 26.1809Z" fill="#B5C5E7"/>
<path d="M42.4398 29.8656L32.9904 28.8567C32.5332 28.808 32.2007 28.3963 32.2493 27.9391C32.2979 27.482 32.7097 27.1494 33.1669 27.1981L42.6163 28.207C43.0734 28.2556 43.4059 28.6674 43.3573 29.1245C43.3083 29.5845 42.8965 29.917 42.4398 29.8656Z" fill="#B5C5E7"/>
<path opacity="0.4" d="M38.8905 36.8875L32.0252 36.1541C31.568 36.1054 31.2355 35.6937 31.2841 35.2365C31.3327 34.7793 31.7445 34.4468 32.2017 34.4954L39.067 35.2289C39.5242 35.2775 39.8567 35.6893 39.8081 36.1465C39.7595 36.6036 39.3477 36.9361 38.8905 36.8875Z" fill="#407BFF"/>
</g>
<path d="M23.5238 28.5826L23.2774 27.6614C22.9302 26.3538 21.6842 25.5446 20.2786 25.7098L6.89736 27.275C5.22856 27.471 3.90696 28.9522 3.94616 30.5874L4.70496 62.4626C4.73296 63.5826 5.68216 64.3834 6.82736 64.249L54.7045 58.649C55.8497 58.5146 56.7569 57.4982 56.7289 56.3782L56.0737 28.8234C56.0457 27.7034 55.0965 26.9026 53.9513 27.037L26.1502 30.2878C24.9154 30.4334 23.829 29.725 23.5238 28.5826Z" fill="#3F5C99"/>
</g>
<defs>
<clipPath id="clip0_1207_4582">
<rect width="56" height="56" rx="28" fill="white"/>
</clipPath>
</defs>
</svg>
