<svg width="200" height="80" viewBox="0 0 200 80" fill="none" xmlns="http://www.w3.org/2000/svg">
<path d="M26.9182 0H0V26.9182L3.93443 22.9838V3.93443H22.9838L26.9182 0Z" fill="url(#paint0_linear_1800_59184)"/>
<path d="M3.93443 29.4753L0 33.4097V80H80V58.0328H76.0656V76.0656H3.93443V29.4753Z" fill="url(#paint1_linear_1800_59184)"/>
<path d="M29.4753 3.93443L33.4097 0H80V22.2951H76.0656V3.93443H29.4753Z" fill="url(#paint2_linear_1800_59184)"/>
<path d="M15.1322 54.0525H10.5615V26.6614H26.4719V30.4459H15.1322V39.008H25.7584V42.8113H15.1322V54.0525Z" fill="black"/>
<path d="M54.0477 40.3195C54.0477 44.7785 52.897 48.2445 50.5956 50.7176C48.3071 53.1907 45.0607 54.4272 40.8565 54.4272C36.6009 54.4272 33.3288 53.2031 31.0403 50.7551C28.7646 48.2945 27.6267 44.8035 27.6267 40.282C27.6267 35.7605 28.771 32.2882 31.0595 29.8651C33.3609 27.442 36.6394 26.2305 40.8951 26.2305C45.0864 26.2305 48.3264 27.4608 50.6149 29.9213C52.9034 32.3819 54.0477 35.848 54.0477 40.3195ZM32.5252 40.3195C32.5252 43.6918 33.2259 46.2523 34.6273 48.001C36.0287 49.7371 38.1051 50.6052 40.8565 50.6052C43.595 50.6052 45.6586 49.7434 47.0471 48.0197C48.4485 46.296 49.1492 43.7293 49.1492 40.3195C49.1492 36.9596 48.4549 34.4116 47.0664 32.6754C45.6907 30.9393 43.6336 30.0712 40.8951 30.0712C38.1308 30.0712 36.0416 30.9393 34.6273 32.6754C33.2259 34.4116 32.5252 36.9596 32.5252 40.3195Z" fill="black"/>
<path d="M57.536 54.0525V26.6614H62.1452V50.2117H74.0828V54.0525H57.536Z" fill="black"/>
<path d="M76.3755 54.0525V26.6614H80.3246V54.0525H76.3755Z" fill="black"/>
<path d="M110.913 40.3195C110.913 44.7785 109.763 48.2445 107.461 50.7176C105.173 53.1907 101.926 54.4272 97.7221 54.4272C93.4664 54.4272 90.1944 53.2031 87.9058 50.7551C85.6301 48.2945 84.4923 44.8035 84.4923 40.282C84.4923 35.7605 85.6366 32.2882 87.9251 29.8651C90.2265 27.442 93.505 26.2305 97.7606 26.2305C101.952 26.2305 105.192 27.4608 107.48 29.9213C109.769 32.3819 110.913 35.848 110.913 40.3195ZM89.3908 40.3195C89.3908 43.6918 90.0915 46.2523 91.4929 48.001C92.8943 49.7371 94.9707 50.6052 97.7221 50.6052C100.461 50.6052 102.524 49.7434 103.913 48.0197C105.314 46.296 106.015 43.7293 106.015 40.3195C106.015 36.9596 105.32 34.4116 103.932 32.6754C102.556 30.9393 100.499 30.0712 97.7606 30.0712C94.9964 30.0712 92.9072 30.9393 91.4929 32.6754C90.0915 34.4116 89.3908 36.9596 89.3908 40.3195Z" fill="black"/>
<path d="M114.402 54.0525V26.6614H119.011V50.2117H130.948V54.0525H114.402Z" fill="black"/>
<path d="M149.19 54.0525H133.241V26.6614H149.19V30.4459H137.85V37.9026H148.477V41.6497H137.85V50.2492H149.19V54.0525Z" fill="black"/>
<path d="M176.226 54.0525H170.575L156.709 32.2258H156.555L156.651 33.4436C156.831 35.7668 156.921 37.8901 156.921 39.8136V54.0525H152.736V26.6614H158.329L172.157 48.3757H172.272C172.247 48.0884 172.195 47.0455 172.118 45.2469C172.041 43.4358 172.002 42.0244 172.002 41.0127V26.6614H176.226V54.0525Z" fill="black"/>
<path d="M197.36 46.6145C197.36 49.0501 196.454 50.9611 194.641 52.3476C192.828 53.734 190.327 54.4272 187.139 54.4272C183.95 54.4272 181.341 53.9463 179.309 52.9846V48.7504C180.595 49.3374 181.958 49.7996 183.398 50.1368C184.85 50.474 186.2 50.6426 187.448 50.6426C189.273 50.6426 190.617 50.3054 191.478 49.6309C192.352 48.9565 192.79 48.0509 192.79 46.9143C192.79 45.8901 192.391 45.022 191.594 44.3101C190.797 43.5982 189.151 42.7551 186.657 41.7808C184.085 40.7691 182.273 39.6138 181.218 38.3148C180.164 37.0158 179.637 35.4545 179.637 33.6309C179.637 31.3452 180.473 29.5466 182.144 28.2352C183.815 26.9237 186.059 26.2679 188.875 26.2679C191.575 26.2679 194.262 26.8425 196.936 27.9916L195.47 31.645C192.963 30.6208 190.726 30.1087 188.759 30.1087C187.268 30.1087 186.136 30.4272 185.365 31.0642C184.593 31.6887 184.208 32.5193 184.208 33.556C184.208 34.2679 184.362 34.88 184.67 35.3921C184.979 35.8917 185.487 36.3663 186.194 36.8159C186.901 37.2656 188.174 37.8589 190.012 38.5958C192.082 39.4327 193.6 40.2133 194.564 40.9377C195.528 41.6622 196.235 42.4803 196.685 43.3921C197.135 44.3038 197.36 45.378 197.36 46.6145Z" fill="black"/>
<defs>
<linearGradient id="paint0_linear_1800_59184" x1="-6.88525" y1="-4.91803" x2="92.1311" y2="98.3607" gradientUnits="userSpaceOnUse">
<stop stop-color="#2BF78D"/>
<stop offset="1" stop-color="#21C3EE"/>
</linearGradient>
<linearGradient id="paint1_linear_1800_59184" x1="-6.88525" y1="-4.91803" x2="92.1311" y2="98.3607" gradientUnits="userSpaceOnUse">
<stop stop-color="#2BF78D"/>
<stop offset="1" stop-color="#21C3EE"/>
</linearGradient>
<linearGradient id="paint2_linear_1800_59184" x1="-6.88525" y1="-4.91803" x2="92.1311" y2="98.3607" gradientUnits="userSpaceOnUse">
<stop stop-color="#2BF78D"/>
<stop offset="1" stop-color="#21C3EE"/>
</linearGradient>
</defs>
</svg>
