<svg width="14" height="14" viewBox="0 0 14 14" fill="none" xmlns="http://www.w3.org/2000/svg">
<path d="M6.33398 4.33301C6.33398 3.96482 6.63246 3.66634 7.00065 3.66634C7.36884 3.66634 7.66732 3.96482 7.66732 4.33301C7.66732 4.7012 7.36884 4.99967 7.00065 4.99967C6.63246 4.99967 6.33398 4.7012 6.33398 4.33301Z" fill="#8C8C8C"/>
<path d="M7.00065 6.33301C7.36884 6.33301 7.66732 6.63148 7.66732 6.99967V9.66634C7.66732 10.0345 7.36884 10.333 7.00065 10.333C6.63246 10.333 6.33398 10.0345 6.33398 9.66634V6.99967C6.33398 6.63148 6.63246 6.33301 7.00065 6.33301Z" fill="#8C8C8C"/>
<path fill-rule="evenodd" clip-rule="evenodd" d="M7.00065 0.333008C3.31875 0.333008 0.333984 3.31778 0.333984 6.99967C0.333984 10.6816 3.31875 13.6663 7.00065 13.6663C10.6825 13.6663 13.6673 10.6816 13.6673 6.99967C13.6673 3.31778 10.6825 0.333008 7.00065 0.333008ZM1.66732 6.99967C1.66732 4.05416 4.05513 1.66634 7.00065 1.66634C9.94617 1.66634 12.334 4.05416 12.334 6.99967C12.334 9.94519 9.94617 12.333 7.00065 12.333C4.05513 12.333 1.66732 9.94519 1.66732 6.99967Z" fill="#8C8C8C"/>
</svg>
