<svg width="24" height="24" viewBox="0 0 24 24" fill="none" xmlns="http://www.w3.org/2000/svg">
<g clip-path="url(#clip0_2098_16540)">
<path d="M23.527 21.0797V21.1276H23.5718C23.5802 21.1278 23.5885 21.1257 23.5958 21.1215C23.5987 21.1195 23.6011 21.1167 23.6026 21.1135C23.6042 21.1103 23.605 21.1067 23.6048 21.1032C23.6049 21.0997 23.6042 21.0962 23.6026 21.0931C23.6011 21.0899 23.5987 21.0873 23.5958 21.0853C23.5886 21.0809 23.5802 21.0788 23.5718 21.0792H23.527V21.0797ZM23.5723 21.0457C23.5915 21.0445 23.6105 21.05 23.626 21.0613C23.6323 21.0664 23.6372 21.0729 23.6405 21.0803C23.6438 21.0877 23.6453 21.0957 23.6449 21.1038C23.6452 21.1107 23.644 21.1176 23.6414 21.1241C23.6387 21.1305 23.6348 21.1363 23.6298 21.1411C23.6177 21.1515 23.6027 21.1578 23.5868 21.1589L23.6468 21.2273H23.6006L23.5454 21.1594H23.5275V21.2273H23.4889V21.0458H23.5729L23.5723 21.0457ZM23.5603 21.29C23.5805 21.2901 23.6006 21.2861 23.6192 21.278C23.6371 21.2702 23.6534 21.2592 23.6672 21.2454C23.681 21.2317 23.6921 21.2154 23.6997 21.1975C23.7155 21.1594 23.7155 21.1167 23.6997 21.0787C23.692 21.0608 23.6809 21.0445 23.6672 21.0307C23.6534 21.0169 23.6371 21.0059 23.6192 20.9982C23.6005 20.9905 23.5805 20.9867 23.5603 20.9869C23.5397 20.9867 23.5194 20.9906 23.5003 20.9982C23.482 21.0058 23.4653 21.0168 23.4512 21.0307C23.43 21.0525 23.4156 21.08 23.4099 21.1099C23.4042 21.1397 23.4074 21.1706 23.4192 21.1987C23.4265 21.2167 23.4374 21.233 23.4512 21.2466C23.4653 21.2605 23.482 21.2716 23.5003 21.2792C23.5192 21.2872 23.5397 21.2913 23.5603 21.2912M23.5603 20.9432C23.613 20.9432 23.6637 20.9639 23.7013 21.0008C23.7194 21.0186 23.7339 21.0397 23.7438 21.0631C23.754 21.0871 23.7593 21.1129 23.7593 21.139C23.7593 21.1651 23.754 21.1909 23.7438 21.2149C23.7336 21.2381 23.7192 21.2592 23.7013 21.2771C23.6829 21.2948 23.6615 21.309 23.638 21.3191C23.6135 21.3295 23.587 21.3349 23.5603 21.3347C23.5333 21.3349 23.5065 21.3296 23.4816 21.3191C23.4579 21.3092 23.4363 21.295 23.4178 21.2771C23.3999 21.2585 23.3857 21.2367 23.376 21.2128C23.3657 21.1888 23.3604 21.163 23.3604 21.1369C23.3604 21.1109 23.3657 21.085 23.376 21.0611C23.3859 21.0377 23.4003 21.0165 23.4184 20.9988C23.4366 20.9806 23.4583 20.9663 23.4822 20.9568C23.5071 20.9463 23.5339 20.941 23.5609 20.9412M5.18588 20.2423C5.18588 19.8962 5.41268 19.6119 5.78336 19.6119C6.1376 19.6119 6.37664 19.884 6.37664 20.2423C6.37664 20.6006 6.1376 20.8727 5.78336 20.8727C5.41268 20.8727 5.18588 20.5884 5.18588 20.2423ZM6.78044 20.2423V19.2574H6.35216V19.4973C6.21632 19.32 6.01028 19.2088 5.73008 19.2088C5.17808 19.2088 4.74488 19.6416 4.74488 20.2428C4.74488 20.8439 5.17784 21.2768 5.73008 21.2768C6.01016 21.2768 6.21632 21.1654 6.35216 20.9882V21.2273H6.77996V20.2423H6.78044ZM21.2515 20.2423C21.2515 19.8962 21.4783 19.6119 21.8491 19.6119C22.2037 19.6119 22.4424 19.884 22.4424 20.2423C22.4424 20.6006 22.2037 20.8727 21.8491 20.8727C21.4784 20.8727 21.2515 20.5884 21.2515 20.2423ZM22.8465 20.2423V18.4668H22.4179V19.4973C22.282 19.32 22.076 19.2088 21.7958 19.2088C21.2438 19.2088 20.8106 19.6416 20.8106 20.2428C20.8106 20.8439 21.2436 21.2768 21.7958 21.2768C22.076 21.2768 22.282 21.1654 22.4179 20.9882V21.2273H22.8465V20.2423ZM12.096 19.5916C12.372 19.5916 12.5492 19.7646 12.5944 20.0692H11.5725C11.6182 19.7849 11.7909 19.5916 12.0961 19.5916M12.1046 19.2077C11.5274 19.2077 11.1236 19.6276 11.1236 20.2417C11.1236 20.8678 11.5436 21.2757 12.1333 21.2757C12.4299 21.2757 12.7016 21.2017 12.9406 20.9998L12.7308 20.6824C12.5656 20.8144 12.3554 20.8884 12.1578 20.8884C11.8818 20.8884 11.6305 20.7607 11.5687 20.4062H13.0311C13.0353 20.3529 13.0396 20.2992 13.0396 20.2416C13.0353 19.6277 12.6556 19.2076 12.1044 19.2076M17.2752 20.2416C17.2752 19.8955 17.502 19.6112 17.8726 19.6112C18.2269 19.6112 18.4659 19.8832 18.4659 20.2416C18.4659 20.5999 18.2269 20.872 17.8726 20.872C17.502 20.872 17.275 20.5877 17.275 20.2416M18.8696 20.2416V19.2574H18.4416V19.4973C18.3052 19.32 18.0997 19.2088 17.8195 19.2088C17.2675 19.2088 16.8343 19.6416 16.8343 20.2428C16.8343 20.8439 17.2672 21.2768 17.8195 21.2768C18.0997 21.2768 18.3052 21.1654 18.4416 20.9882V21.2273H18.8697V20.2423L18.8696 20.2416ZM14.8566 20.2416C14.8566 20.8389 15.2725 21.2756 15.9073 21.2756C16.2039 21.2756 16.4016 21.2096 16.6153 21.0408L16.4096 20.6947C16.2488 20.8102 16.08 20.872 15.8936 20.872C15.5517 20.8678 15.3003 20.6207 15.3003 20.2416C15.3003 19.8625 15.5517 19.6155 15.8936 19.6112C16.0795 19.6112 16.2483 19.6729 16.4096 19.7885L16.6153 19.4424C16.4012 19.2736 16.2036 19.2076 15.9073 19.2076C15.2725 19.2076 14.8566 19.6441 14.8566 20.2416ZM20.3778 19.2076C20.1307 19.2076 19.9698 19.3231 19.8585 19.4961V19.2574H19.4341V21.2262H19.8628V20.1226C19.8628 19.7967 20.0029 19.6157 20.2828 19.6157C20.3745 19.6144 20.4655 19.6312 20.5507 19.6653L20.6827 19.2617C20.5879 19.2244 20.4643 19.2079 20.3775 19.2079M8.89784 19.4139C8.6918 19.2781 8.40788 19.2079 8.09468 19.2079C7.59572 19.2079 7.27448 19.447 7.27448 19.8382C7.27448 20.1593 7.51364 20.3573 7.95404 20.4191L8.15636 20.4479C8.3912 20.4809 8.50208 20.5427 8.50208 20.6539C8.50208 20.8061 8.34608 20.893 8.05316 20.893C7.75652 20.893 7.54244 20.7982 7.39808 20.687L7.19684 21.0209C7.43168 21.1939 7.72832 21.2764 8.04956 21.2764C8.61836 21.2764 8.948 21.0086 8.948 20.6337C8.948 20.2876 8.68856 20.1066 8.25992 20.0448L8.05808 20.0156C7.87268 19.9916 7.72412 19.9543 7.72412 19.8223C7.72412 19.6783 7.86416 19.5917 8.09912 19.5917C8.35052 19.5917 8.59388 19.6865 8.71316 19.7605L8.89856 19.4144L8.89784 19.4139ZM14.424 19.2083C14.1769 19.2083 14.016 19.3238 13.9052 19.4968V19.2574H13.4808V21.2262H13.909V20.1226C13.909 19.7967 14.0491 19.6157 14.329 19.6157C14.4207 19.6144 14.5117 19.6312 14.5969 19.6653L14.7289 19.2617C14.6341 19.2244 14.5105 19.2079 14.4237 19.2079M10.7692 19.2574H10.0689V18.6601H9.63596V19.2574H9.23648V19.6487H9.63596V20.5469C9.63596 21.0037 9.81332 21.2758 10.32 21.2758C10.5058 21.2758 10.7199 21.2182 10.8558 21.1236L10.732 20.7569C10.6042 20.831 10.4642 20.8683 10.3528 20.8683C10.1388 20.8683 10.0689 20.7363 10.0689 20.5387V19.6491H10.7692V19.2574ZM4.36616 21.2267V19.9911C4.36616 19.5257 4.06952 19.2126 3.59132 19.2084C3.33992 19.2042 3.0806 19.2824 2.89904 19.5587C2.7632 19.3404 2.54912 19.2084 2.24816 19.2084C2.0378 19.2084 1.83224 19.2702 1.67132 19.5008V19.2574H1.24268V21.2262H1.67468V20.1346C1.67468 19.7928 1.86428 19.6112 2.15708 19.6112C2.44148 19.6112 2.58536 19.7965 2.58536 20.1302V21.226H3.01832V20.1343C3.01832 19.7925 3.21596 19.6109 3.50024 19.6109C3.79268 19.6109 3.93224 19.7963 3.93224 20.13V21.2258L4.36616 21.2267Z" fill="#231F20"/>
<path d="M23.7711 14.6785V14.3906H23.6961L23.6093 14.5882L23.523 14.3906H23.4478V14.6785H23.5011V14.4616L23.5822 14.6488H23.6374L23.7185 14.4612V14.6785H23.7713H23.7711ZM23.2953 14.6785V14.4399H23.3913V14.3913H23.146V14.4399H23.242V14.6785H23.2948H23.2953Z" fill="#F79410"/>
<path d="M15.2467 15.9126H8.75635V4.25195H15.2468L15.2467 15.9126Z" fill="#FF5F00"/>
<path d="M9.168 10.0819C9.168 7.71658 10.2758 5.6095 12.001 4.25161C10.6951 3.22224 9.08002 2.66357 7.41708 2.66602C3.32064 2.66602 0 5.98619 0 10.0819C0 14.1777 3.32064 17.4979 7.41708 17.4979C9.08007 17.5003 10.6952 16.9417 12.0011 15.9123C10.2761 14.5546 9.168 12.4474 9.168 10.0819Z" fill="#EB001B"/>
<path d="M24.0031 10.0819C24.0031 14.1777 20.6825 17.4979 16.5861 17.4979C14.9229 17.5003 13.3076 16.9416 12.0015 15.9123C13.7271 14.5544 14.8349 12.4474 14.8349 10.0819C14.8349 7.71646 13.7271 5.6095 12.0015 4.25161C13.3075 3.22227 14.9228 2.66361 16.5859 2.66602C20.6824 2.66602 24.003 5.98619 24.003 10.0819" fill="#F79E1B"/>
</g>
<defs>
<clipPath id="clip0_2098_16540">
<rect width="24" height="24" fill="white"/>
</clipPath>
</defs>
</svg>
