<svg width="22" height="22" viewBox="0 0 22 22" fill="none" xmlns="http://www.w3.org/2000/svg">
<path d="M5 4C4.44772 4 4 4.44772 4 5C4 5.55228 4.44772 6 5 6H7C7.55228 6 8 5.55228 8 5C8 4.44772 7.55228 4 7 4H5Z" fill="#1646AA"/>
<path d="M4 9C4 8.44771 4.44772 8 5 8H7C7.55228 8 8 8.44771 8 9C8 9.55228 7.55228 10 7 10H5C4.44772 10 4 9.55228 4 9Z" fill="#1646AA"/>
<path d="M5 12C4.44772 12 4 12.4477 4 13C4 13.5523 4.44772 14 5 14H7C7.55228 14 8 13.5523 8 13C8 12.4477 7.55228 12 7 12H5Z" fill="#1646AA"/>
<path d="M4 17C4 16.4477 4.44772 16 5 16H7C7.55228 16 8 16.4477 8 17C8 17.5523 7.55228 18 7 18H5C4.44772 18 4 17.5523 4 17Z" fill="#1646AA"/>
<path d="M15 8C14.4477 8 14 8.44771 14 9C14 9.55228 14.4477 10 15 10H17C17.5523 10 18 9.55228 18 9C18 8.44771 17.5523 8 17 8H15Z" fill="#1646AA"/>
<path d="M14 13C14 12.4477 14.4477 12 15 12C15.5523 12 16 12.4477 16 13C16 13.5523 15.5523 14 15 14C14.4477 14 14 13.5523 14 13Z" fill="#1646AA"/>
<path fill-rule="evenodd" clip-rule="evenodd" d="M14 21C14 21.5523 13.5523 22 13 22H12H10H2C0.895431 22 0 21.1046 0 20V2C0 0.89543 0.895431 0 2 0H10C11.1046 0 12 0.895431 12 2V4H20C21.1046 4 22 4.89543 22 6V12C22 12.5523 21.5523 13 21 13V13C20.4477 13 20 12.5523 20 12V6H12V20H13C13.5523 20 14 20.4477 14 21V21ZM2 2H10V20H2L2 2Z" fill="#1646AA"/>
<path d="M18 14C18.5523 14 19 14.4477 19 15V17H21C21.5523 17 22 17.4477 22 18C22 18.5523 21.5523 19 21 19H19V21C19 21.5523 18.5523 22 18 22C17.4477 22 17 21.5523 17 21V19H15C14.4477 19 14 18.5523 14 18C14 17.4477 14.4477 17 15 17H17V15C17 14.4477 17.4477 14 18 14Z" fill="#1646AA"/>
</svg>
