<svg width="20" height="19" viewBox="0 0 20 19" fill="none" xmlns="http://www.w3.org/2000/svg">
<path fill-rule="evenodd" clip-rule="evenodd" d="M12.1089 2.84623C12.1089 2.79451 12.0551 2.69238 11.9132 2.69238H8.08715C7.94525 2.69238 7.8915 2.79451 7.8915 2.84623V3.76931C7.8915 3.82102 7.94525 3.92315 8.08715 3.92315H11.9132C12.0551 3.92315 12.1089 3.82102 12.1089 3.76931V2.84623ZM11.9132 0.692383C13.092 0.692383 14.1089 1.62344 14.1089 2.84623V3.76931C14.1089 3.84745 14.1047 3.9244 14.0967 4H17.1163C18.7723 4 20 5.41647 20 7.01724V15.9828C20 17.5835 18.7723 19 17.1163 19H2.88372C1.22769 19 0 17.5835 0 15.9828V7.01724C0 5.41647 1.22769 4 2.88372 4H5.90373C5.89565 3.9244 5.8915 3.84745 5.8915 3.76931V2.84623C5.8915 1.62344 6.90837 0.692383 8.08715 0.692383H11.9132ZM18 7.01724C18 6.38983 17.5409 6 17.1163 6H2.88372C2.45905 6 2 6.38983 2 7.01724V9.71919L6 10.7192V10.5196C6 9.14694 7.09592 8 8.48957 8H11.5104C12.9041 8 14 9.14694 14 10.5196V10.6273L18 9.70421V7.01724ZM18 11.7568L13.9921 12.6817C13.8912 13.9634 12.8354 15 11.5104 15H8.48957C7.20051 15 6.16618 14.0188 6.01818 12.7853L2 11.7807V15.9828C2 16.6102 2.45905 17 2.88372 17H17.1163C17.5409 17 18 16.6102 18 15.9828V11.7568ZM12 12.4804C12 12.7863 11.7621 13 11.5104 13H8.48957C8.23789 13 8 12.7863 8 12.4804V10.5196C8 10.2137 8.23789 10 8.48957 10H11.5104C11.7621 10 12 10.2137 12 10.5196V12.4804Z" fill="#06122B"/>
</svg>
