<svg width="20" height="19" viewBox="0 0 20 19" fill="none" xmlns="http://www.w3.org/2000/svg">
<path fill-rule="evenodd" clip-rule="evenodd" d="M12.1089 2.84525C12.1089 2.79353 12.0551 2.69141 11.9132 2.69141H8.08715C7.94525 2.69141 7.8915 2.79353 7.8915 2.84525V3.76833C7.8915 3.82005 7.94525 3.92218 8.08715 3.92218H11.9132C12.0551 3.92218 12.1089 3.82005 12.1089 3.76833V2.84525ZM11.9132 0.691406C13.092 0.691406 14.1089 1.62247 14.1089 2.84525V3.76833C14.1089 3.84647 14.1047 3.92343 14.0967 3.99902H17.1163C18.7723 3.99902 20 5.41549 20 7.01626V15.9818C20 17.5826 18.7723 18.999 17.1163 18.999H2.88372C1.22769 18.999 0 17.5826 0 15.9818V7.01626C0 5.41549 1.22769 3.99902 2.88372 3.99902H5.90373C5.89565 3.92343 5.8915 3.84647 5.8915 3.76833V2.84525C5.8915 1.62247 6.90837 0.691406 8.08715 0.691406H11.9132ZM18 7.01626C18 6.38885 17.5409 5.99902 17.1163 5.99902H2.88372C2.45905 5.99902 2 6.38885 2 7.01626V9.71821L6 10.7182V10.5186C6 9.14597 7.09592 7.99902 8.48957 7.99902H11.5104C12.9041 7.99902 14 9.14597 14 10.5186V10.6263L18 9.70324V7.01626ZM18 11.7558L13.9921 12.6807C13.8912 13.9624 12.8354 14.999 11.5104 14.999H8.48957C7.20051 14.999 6.16618 14.0178 6.01818 12.7843L2 11.7798V15.9818C2 16.6092 2.45905 16.999 2.88372 16.999H17.1163C17.5409 16.999 18 16.6092 18 15.9818V11.7558ZM12 12.4795C12 12.7853 11.7621 12.999 11.5104 12.999H8.48957C8.23789 12.999 8 12.7853 8 12.4795V10.5186C8 10.2128 8.23789 9.99902 8.48957 9.99902H11.5104C11.7621 9.99902 12 10.2128 12 10.5186V12.4795Z" fill="#06122B"/>
</svg>
