<svg width="336" height="95" viewBox="0 0 336 95" fill="none" xmlns="http://www.w3.org/2000/svg">
<g clip-path="url(#clip0_7612_12725)">
<path d="M0 16C0 7.16344 7.16344 0 16 0H320C328.837 0 336 7.16344 336 16V79C336 87.8366 328.837 95 320 95H16C7.16344 95 0 87.8366 0 79V16Z" fill="#E8EDF7"/>
<mask id="mask0_7612_12725" style="mask-type:alpha" maskUnits="userSpaceOnUse" x="-173" y="22" width="688" height="73">
<path fill-rule="evenodd" clip-rule="evenodd" d="M182.659 22.2343C184.603 23.5093 186.555 24.7844 188.508 26.0606C192.79 28.8584 197.079 31.6613 201.312 34.4783C201.71 34.7429 201.864 35.2617 201.679 35.7084L200.502 38.5387C200.391 38.8068 200.17 39.0119 199.899 39.1001C199.628 39.1884 199.332 39.1511 199.09 38.9979L198.758 38.7882V57.4374H221.464C221.798 57.4374 222.108 57.6116 222.287 57.8994L225.475 63.0135C225.667 63.3213 225.68 63.7118 225.509 64.0321C225.337 64.3523 225.009 64.5514 224.652 64.5514H222.872L222.498 71.373L260.434 70.6223V51.9491L260.091 52.1649C259.848 52.3175 259.553 52.3541 259.282 52.2651C259.01 52.1761 258.791 51.9704 258.68 51.7018L257.513 48.8715C257.328 48.4226 257.486 47.9026 257.887 47.6401L276.654 35.3527C276.976 35.1423 277.387 35.1427 277.708 35.3537C280.824 37.4022 285.501 40.4815 289.4 43.0486C291.35 44.3322 293.105 45.4877 294.372 46.3224L296.417 47.6693L296.419 47.6704C296.419 47.6705 296.419 47.6708 295.891 48.5118L296.419 47.6704C296.82 47.9343 296.976 48.456 296.789 48.9046L295.613 51.7251C295.501 51.9926 295.281 52.197 295.011 52.2853C294.74 52.3735 294.445 52.3367 294.203 52.1844L293.86 51.9686V70.6129H314.65V55.719H311.964C311.609 55.719 311.282 55.522 311.11 55.2045C310.938 54.887 310.947 54.4988 311.135 54.1904L314.114 49.2911C314.292 48.9979 314.606 48.8196 314.943 48.8196H316.016V46.8059C315.69 46.6438 315.466 46.3017 315.466 45.906V43.4368C315.466 42.8845 315.903 42.4368 316.442 42.4368H327.61C328.149 42.4368 328.587 42.8845 328.587 43.4368V45.8865C328.587 46.2822 328.362 46.6243 328.036 46.7864V48.8001H353.408C353.746 48.8001 354.06 48.9789 354.238 49.2728L357.208 54.1721C357.395 54.4805 357.404 54.8684 357.232 55.1856C357.059 55.5028 356.733 55.6994 356.378 55.6994H353.692V67.9722L370.058 53.7828C370.279 53.572 370.583 53.477 370.882 53.5271C371.102 53.5641 371.301 53.6765 371.447 53.8418L377.613 59.1819V57.7445C377.613 57.1922 378.05 56.7445 378.59 56.7445H387.747V48.0192L386.615 48.476C386.185 48.6491 385.697 48.4914 385.442 48.0978L383.857 45.6481C383.696 45.3986 383.652 45.0883 383.738 44.8023C383.824 44.5162 384.03 44.2846 384.301 44.1709L391.238 41.2537V34.8097C390.867 34.668 390.603 34.3018 390.603 33.8723V31.7252C390.603 31.1729 391.04 30.7252 391.579 30.7252H401.76C402.299 30.7252 402.737 31.1729 402.737 31.7252V33.8723C402.737 34.3018 402.472 34.668 402.101 34.8097V36.6855L409.449 33.6004C409.602 33.5028 409.78 33.4482 409.967 33.4482H409.977C410.104 33.4482 410.23 33.4737 410.348 33.5233L435.634 44.1711C435.905 44.2849 436.111 44.5165 436.197 44.8025C436.282 45.0885 436.238 45.3987 436.077 45.6481L434.493 48.0978C434.238 48.4914 433.749 48.6491 433.32 48.476L432.188 48.0192V57.1353C432.198 57.135 432.207 57.1348 432.217 57.1348H454.41V38.8211L454.072 39.0313C453.829 39.1822 453.534 39.2173 453.264 39.1276C452.994 39.0379 452.775 38.8322 452.665 38.5641L451.498 35.7241C451.314 35.2761 451.471 34.7574 451.871 34.4948L470.502 22.2489C470.734 22.0405 471.056 21.9509 471.37 22.0266C471.523 22.0634 471.661 22.1359 471.775 22.2343C473.719 23.509 475.67 24.7838 477.622 26.0597C481.905 28.8579 486.195 31.661 490.428 34.4783C490.826 34.7429 490.98 35.2617 490.794 35.7084L489.618 38.5387C489.506 38.8068 489.286 39.0119 489.015 39.1001C488.744 39.1884 488.448 39.1511 488.206 38.9979L487.874 38.7882V57.4374H510.58C510.913 57.4374 511.224 57.6116 511.403 57.8994L514.591 63.0135C514.783 63.3213 514.796 63.7118 514.625 64.0321C514.453 64.3523 514.125 64.5514 513.768 64.5514H512.041V94.5609H510.087V63.5514C510.087 62.9992 510.524 62.5514 511.064 62.5514H511.986L510.045 59.4374H486.897C486.358 59.4374 485.921 58.9897 485.921 58.4374V36.9954C485.921 36.6329 486.112 36.2987 486.422 36.1221C486.731 35.9455 487.109 35.9541 487.411 36.1446L488.265 36.6849L488.676 35.698C484.673 33.0396 480.627 30.3958 476.581 27.7518C474.769 26.5682 472.958 25.3846 471.15 24.1996L453.617 35.7235L454.027 36.7202L454.881 36.1899C455.182 36.0026 455.559 35.9963 455.866 36.1734C456.174 36.3506 456.364 36.6837 456.364 37.0448V58.1348C456.364 58.6871 455.927 59.1348 455.387 59.1348H432.654L431.94 59.953C431.67 60.2621 431.241 60.3686 430.863 60.2207C430.485 60.0728 430.235 59.7011 430.235 59.2865V46.5501C430.235 46.2192 430.394 45.9097 430.662 45.7235C430.929 45.5373 431.269 45.4984 431.57 45.6198L433.301 46.3183L433.792 45.558L409.99 35.535L401.495 39.1016C401.194 39.2281 400.851 39.1925 400.58 39.0068C400.31 38.8211 400.148 38.5097 400.148 38.1764V33.8723C400.148 33.4429 400.412 33.0767 400.783 32.935V32.7252H392.556V32.935C392.927 33.0767 393.192 33.4429 393.192 33.8723V41.9241C393.192 42.3296 392.952 42.695 392.586 42.8491L386.143 45.5586L386.634 46.3183L388.365 45.6198C388.666 45.4984 389.006 45.5373 389.273 45.7235C389.54 45.9097 389.7 46.2192 389.7 46.5501V57.7445C389.7 58.2967 389.263 58.7445 388.723 58.7445H379.567V59.1969C379.987 59.3086 380.297 59.6996 380.297 60.1648V61.9704C380.297 62.3597 380.076 62.7137 379.732 62.8775C379.387 63.0414 378.98 62.9853 378.69 62.7338L370.719 55.8305L353.347 70.8926C353.057 71.1443 352.65 71.2005 352.305 71.0367C351.96 70.8729 351.739 70.5189 351.739 70.1295V54.6994C351.739 54.1472 352.176 53.6994 352.716 53.6994H354.622L352.865 50.8001H327.06C326.52 50.8001 326.083 50.3524 326.083 49.8001V45.8865C326.083 45.4907 326.307 45.1487 326.633 44.9866V44.4368H317.419V45.0061C317.745 45.1682 317.969 45.5102 317.969 45.906V49.8196C317.969 50.3719 317.532 50.8196 316.993 50.8196H315.486L313.723 53.719H315.626C316.166 53.719 316.603 54.1667 316.603 54.719V71.6129C316.603 72.1652 316.166 72.6129 315.626 72.6129H292.883C292.344 72.6129 291.907 72.1652 291.907 71.6129V50.1807C291.907 49.8186 292.098 49.4847 292.406 49.308C292.715 49.1312 293.093 49.1391 293.395 49.3286L294.261 49.8735L294.669 48.8959L293.315 48.0045C292.048 47.1698 290.293 46.0143 288.344 44.7308C284.659 42.3046 280.278 39.4212 277.179 37.3829L259.633 48.8706L260.037 49.8515L260.9 49.3091C261.201 49.1196 261.579 49.1117 261.888 49.2884C262.196 49.4652 262.388 49.7991 262.388 50.1612V71.6032C262.388 72.1479 261.962 72.5924 261.43 72.603L221.483 73.3935C221.211 73.3989 220.95 73.2881 220.761 73.0877C220.572 72.8874 220.474 72.6156 220.489 72.3377L220.973 63.4955C221.002 62.9658 221.43 62.5514 221.948 62.5514H222.87L220.929 59.4374H197.782C197.242 59.4374 196.805 58.9897 196.805 58.4374V36.9954C196.805 36.6329 196.997 36.2987 197.306 36.1221C197.615 35.9455 197.993 35.9541 198.295 36.1446L199.15 36.685L199.56 35.698C195.558 33.0397 191.512 30.396 187.465 27.7521C185.654 26.5684 183.842 25.3847 182.035 24.1996L164.501 35.7236L164.911 36.7202L165.765 36.1899C166.066 36.0026 166.443 35.9963 166.751 36.1734C167.058 36.3506 167.248 36.6837 167.248 37.0448V58.1348C167.248 58.6871 166.811 59.1348 166.271 59.1348H143.538L142.824 59.953C142.554 60.2621 142.125 60.3686 141.747 60.2207C141.369 60.0728 141.119 59.7011 141.119 59.2865V46.5501C141.119 46.2192 141.279 45.9097 141.546 45.7235C141.813 45.5373 142.153 45.4984 142.454 45.6198L144.185 46.3183L144.677 45.558L120.874 35.535L112.379 39.1016C112.078 39.2281 111.735 39.1925 111.464 39.0068C111.194 38.8211 111.032 38.5097 111.032 38.1764V33.8723C111.032 33.4429 111.296 33.0767 111.667 32.935V32.7252H103.44V32.935C103.811 33.0767 104.076 33.4429 104.076 33.8723V41.9241C104.076 42.3296 103.837 42.695 103.47 42.8491L97.0268 45.5586L97.5182 46.3183L99.2493 45.6198C99.55 45.4984 99.8899 45.5373 100.157 45.7235C100.424 45.9097 100.584 46.2192 100.584 46.5501V57.7445C100.584 58.2967 100.147 58.7445 99.6075 58.7445H90.4508V59.1969C90.8711 59.3086 91.1814 59.6996 91.1814 60.1648V61.9704C91.1814 62.3597 90.9607 62.7137 90.6157 62.8775C90.2707 63.0414 89.8642 62.9853 89.5739 62.7338L81.6031 55.8305L64.2311 70.8926C63.9408 71.1443 63.5342 71.2005 63.1891 71.0367C62.844 70.8729 62.6231 70.5189 62.6231 70.1295V54.6994C62.6231 54.1472 63.0604 53.6994 63.5999 53.6994H65.5066L63.7491 50.8001H37.9439C37.4044 50.8001 36.9671 50.3524 36.9671 49.8001V45.8865C36.9671 45.4907 37.1917 45.1487 37.5174 44.9866V44.4368H28.3033V45.0061C28.6291 45.1682 28.8537 45.5102 28.8537 45.906V49.8196C28.8537 50.3719 28.4164 50.8196 27.8769 50.8196H26.3699L24.6068 53.719H26.5106C27.05 53.719 27.4874 54.1667 27.4874 54.719V71.6129C27.4874 72.1652 27.05 72.6129 26.5106 72.6129H3.76746C3.22801 72.6129 2.79071 72.1652 2.79071 71.6129V50.1807C2.79071 49.8186 2.98195 49.4847 3.29065 49.308C3.59935 49.1312 3.97729 49.1391 4.27869 49.3286L5.14513 49.8735L5.55293 48.8959L4.19939 48.0045C2.93201 47.1698 1.17728 46.0143 -0.772141 44.7308C-4.45703 42.3046 -8.83733 39.4212 -11.9366 37.3829L-29.4828 48.8706L-29.0784 49.8515L-28.216 49.3091C-27.9147 49.1196 -27.5367 49.1117 -27.228 49.2884C-26.9193 49.4652 -26.7281 49.7991 -26.7281 50.1612V71.6032C-26.7281 72.1554 -27.1654 72.6032 -27.7048 72.6032H-50.8808L-51.0861 72.9321C-51.3197 73.3065 -51.7666 73.4782 -52.1831 73.3535C-52.5996 73.2289 -52.8859 72.8379 -52.8859 72.3937V67.8457C-52.8859 67.2934 -52.4486 66.8457 -51.9091 66.8457H-49.9959L-51.759 63.9463H-53.2565C-53.7959 63.9463 -54.2332 63.4986 -54.2332 62.9463V59.0327C-54.2332 58.6408 -54.013 58.3016 -53.6924 58.1376V57.5733H-62.897V58.1328C-62.5712 58.2949 -62.3466 58.637 -62.3466 59.0327V62.9463C-62.3466 63.4986 -62.784 63.9463 -63.3234 63.9463H-89.0079C-89.5473 63.9463 -89.9846 63.4986 -89.9846 62.9463V59.6769C-89.9846 59.3459 -89.8247 59.0364 -89.5575 58.8502C-89.2903 58.664 -88.9504 58.6252 -88.6497 58.7465L-86.9186 59.4451L-86.4269 58.6848L-92.8615 55.9756C-93.2277 55.8215 -93.4668 55.4562 -93.4668 55.0508V47.0088C-93.4668 46.5794 -93.2023 46.2131 -92.8311 46.0715V45.8617H-101.068V46.0617C-100.697 46.2034 -100.432 46.5696 -100.432 46.9991V51.3031C-100.432 51.6366 -100.595 51.9482 -100.865 52.1338C-101.136 52.3195 -101.479 52.3548 -101.78 52.228L-110.259 48.6591L-134.077 58.6943L-133.585 59.4548L-131.854 58.7563C-131.553 58.6349 -131.213 58.6738 -130.946 58.86C-130.679 59.0462 -130.519 59.3557 -130.519 59.6866V83.1C-130.519 83.4895 -130.74 83.8435 -131.085 84.0073C-131.43 84.1711 -131.837 84.1148 -132.127 83.8632L-149.305 68.9711L-157.271 75.8703C-157.561 76.1218 -157.968 76.1779 -158.313 76.014C-158.657 75.8502 -158.878 75.4962 -158.878 75.1069V73.3013C-158.878 72.8361 -158.568 72.4451 -158.148 72.3334V71.8809H-167.732V72.3359C-167.316 72.451 -167.011 72.8396 -167.011 73.3013V83.8418C-167.011 84.1358 -167.137 84.415 -167.356 84.605L-170.611 87.426L-169.912 88.5032L-167.961 86.7829C-167.671 86.5278 -167.263 86.4687 -166.916 86.6317C-166.569 86.7946 -166.346 87.1497 -166.346 87.5407V94.5609H-168.3V89.7215L-169.475 90.7579C-169.688 90.945 -169.968 91.0298 -170.246 90.9908C-170.523 90.9517 -170.771 90.7925 -170.926 90.5537L-172.719 87.7917C-172.994 87.369 -172.916 86.8028 -172.537 86.4749L-168.964 83.3781V74.2667C-169.38 74.1517 -169.685 73.7631 -169.685 73.3013V70.8809C-169.685 70.3287 -169.248 69.8809 -168.709 69.8809H-157.171C-156.631 69.8809 -156.194 70.3287 -156.194 70.8809V72.3184L-150.029 66.9788C-149.795 66.7145 -149.434 66.5922 -149.082 66.677C-148.887 66.724 -148.717 66.8291 -148.588 66.9718L-132.473 80.9429V61.1556L-133.605 61.6125C-134.034 61.7856 -134.523 61.6279 -134.777 61.2342L-136.362 58.7846C-136.523 58.5352 -136.567 58.225 -136.481 57.9391C-136.395 57.6531 -136.189 57.4215 -135.919 57.3077L-110.742 46.7C-110.66 46.6516 -110.571 46.6146 -110.475 46.5916C-110.214 46.5288 -109.948 46.5797 -109.733 46.7178L-102.386 49.8107V47.9364C-102.757 47.7948 -103.021 47.4285 -103.021 46.9991V44.8617C-103.021 44.3094 -102.584 43.8617 -102.045 43.8617H-91.8543C-91.3149 43.8617 -90.8776 44.3094 -90.8776 44.8617V47.0088C-90.8776 47.4383 -91.142 47.8045 -91.5133 47.9462V54.3808L-84.5849 57.2978C-84.3147 57.4116 -84.1084 57.6432 -84.0227 57.9292C-83.937 58.2152 -83.9807 58.5254 -84.1421 58.7748L-85.7266 61.2245C-85.9812 61.6181 -86.4701 61.7758 -86.8991 61.6027L-88.0311 61.1459V61.9463H-64.3001V59.9326C-64.6259 59.7705 -64.8505 59.4285 -64.8505 59.0327V56.5733C-64.8505 56.021 -64.4132 55.5733 -63.8737 55.5733H-52.7156C-52.1762 55.5733 -51.7389 56.021 -51.7389 56.5733V59.0327C-51.7389 59.4246 -51.9591 59.7639 -52.2797 59.9279V61.9463H-51.2165C-50.8791 61.9463 -50.5656 62.1246 -50.3873 62.4178L-47.408 67.3172C-47.2205 67.6255 -47.2111 68.0137 -47.3833 68.3312C-47.5556 68.6488 -47.8824 68.8457 -48.2372 68.8457H-50.9324V70.6032H-28.6815V51.9491L-29.0248 52.1649C-29.2674 52.3175 -29.563 52.3541 -29.8342 52.2651C-30.1054 52.1761 -30.3251 51.9704 -30.4359 51.7018L-31.6029 48.8715C-31.788 48.4226 -31.6302 47.9026 -31.2293 47.6401L-12.4617 35.3527C-12.1403 35.1423 -11.7286 35.1427 -11.4076 35.3537C-8.29228 37.4022 -3.6144 40.4815 0.2845 43.0486C2.23399 44.3322 3.98877 45.4877 5.25618 46.3224L7.30139 47.6693L7.3031 47.6704C7.30321 47.6705 7.30367 47.6708 6.77522 48.5118L7.3031 47.6704C7.70375 47.9343 7.86058 48.456 7.67348 48.9046L6.49695 51.7251C6.38539 51.9926 6.16562 52.197 5.89494 52.2853C5.62428 52.3735 5.3295 52.3367 5.08745 52.1844L4.7442 51.9686V70.6129H25.5339V55.719H22.8482C22.4934 55.719 22.1665 55.522 21.9943 55.2045C21.822 54.887 21.8315 54.4988 22.019 54.1904L24.9983 49.2911C25.1766 48.9979 25.4901 48.8196 25.8275 48.8196H26.9002V46.8059C26.5744 46.6438 26.3498 46.3018 26.3498 45.906V43.4368C26.3498 42.8845 26.7871 42.4368 27.3266 42.4368H38.4942C39.0336 42.4368 39.4709 42.8845 39.4709 43.4368V45.8865C39.4709 46.2822 39.2464 46.6243 38.9206 46.7864V48.8001H64.2925C64.6304 48.8001 64.9443 48.9789 65.1224 49.2728L68.0922 54.1721C68.2792 54.4805 68.2882 54.8684 68.1159 55.1856C67.9435 55.5028 67.6168 55.6994 67.2623 55.6994H64.5766V67.9722L80.9421 53.7828C81.1624 53.5723 81.4661 53.4773 81.7648 53.5269C81.9856 53.5636 82.1846 53.6761 82.3315 53.8418L88.4974 59.1819V57.7445C88.4974 57.1922 88.9347 56.7445 89.4741 56.7445H98.6307V48.0192L97.4987 48.476C97.0697 48.6491 96.5808 48.4914 96.3262 48.0977L94.7417 45.6481C94.5803 45.3986 94.5366 45.0883 94.6224 44.8023C94.7082 44.5162 94.9146 44.2846 95.185 44.1709L102.122 41.2537V34.8097C101.751 34.668 101.487 34.3018 101.487 33.8723V31.7252C101.487 31.1729 101.924 30.7252 102.463 30.7252H112.644C113.184 30.7252 113.621 31.1729 113.621 31.7252V33.8723C113.621 34.3018 113.357 34.668 112.985 34.8097V36.6855L120.334 33.6003C120.486 33.5027 120.665 33.4482 120.851 33.4482H120.861C120.988 33.4482 121.115 33.4737 121.232 33.5233L146.518 44.1711C146.789 44.2849 146.995 44.5165 147.081 44.8025C147.166 45.0884 147.123 45.3987 146.961 45.6481L145.377 48.0977C145.122 48.4914 144.633 48.6491 144.204 48.476L143.072 48.0192V57.1353C143.082 57.135 143.092 57.1348 143.101 57.1348H165.295V38.8211L164.956 39.0313C164.713 39.1822 164.418 39.2173 164.148 39.1276C163.878 39.0379 163.659 38.8322 163.549 38.5641L162.382 35.7241C162.198 35.2761 162.355 34.7574 162.755 34.4948L181.386 22.2488C181.618 22.0405 181.94 21.9509 182.255 22.0266C182.408 22.0634 182.545 22.1359 182.659 22.2343Z" fill="#E8EDF7"/>
</mask>
<g mask="url(#mask0_7612_12725)">
<path fill-rule="evenodd" clip-rule="evenodd" d="M182.659 22.2343C184.603 23.5093 186.555 24.7844 188.508 26.0606C192.79 28.8584 197.079 31.6613 201.312 34.4783C201.71 34.7429 201.864 35.2617 201.679 35.7084L200.502 38.5387C200.391 38.8068 200.17 39.0119 199.899 39.1001C199.628 39.1884 199.332 39.1511 199.09 38.9979L198.758 38.7882V57.4374H221.464C221.798 57.4374 222.108 57.6116 222.287 57.8994L225.475 63.0135C225.667 63.3213 225.68 63.7118 225.509 64.0321C225.337 64.3523 225.009 64.5514 224.652 64.5514H222.872L222.498 71.373L260.434 70.6223V51.9491L260.091 52.1649C259.848 52.3175 259.553 52.3541 259.282 52.2651C259.01 52.1761 258.791 51.9704 258.68 51.7018L257.513 48.8715C257.328 48.4226 257.486 47.9026 257.887 47.6401L276.654 35.3527C276.976 35.1423 277.387 35.1427 277.708 35.3537C280.824 37.4022 285.501 40.4815 289.4 43.0486C291.35 44.3322 293.105 45.4877 294.372 46.3224L296.417 47.6693L296.419 47.6704C296.419 47.6705 296.419 47.6708 295.891 48.5118L296.419 47.6704C296.82 47.9343 296.976 48.456 296.789 48.9046L295.613 51.7251C295.501 51.9926 295.281 52.197 295.011 52.2853C294.74 52.3735 294.445 52.3367 294.203 52.1844L293.86 51.9686V70.6129H314.65V55.719H311.964C311.609 55.719 311.282 55.522 311.11 55.2045C310.938 54.887 310.947 54.4988 311.135 54.1904L314.114 49.2911C314.292 48.9979 314.606 48.8196 314.943 48.8196H316.016V46.8059C315.69 46.6438 315.466 46.3017 315.466 45.906V43.4368C315.466 42.8845 315.903 42.4368 316.442 42.4368H327.61C328.149 42.4368 328.587 42.8845 328.587 43.4368V45.8865C328.587 46.2822 328.362 46.6243 328.036 46.7864V48.8001H353.408C353.746 48.8001 354.06 48.9789 354.238 49.2728L357.208 54.1721C357.395 54.4805 357.404 54.8684 357.232 55.1856C357.059 55.5028 356.733 55.6994 356.378 55.6994H353.692V67.9722L370.058 53.7828C370.279 53.572 370.583 53.477 370.882 53.5271C371.102 53.5641 371.301 53.6765 371.447 53.8418L377.613 59.1819V57.7445C377.613 57.1922 378.05 56.7445 378.59 56.7445H387.747V48.0192L386.615 48.476C386.185 48.6491 385.697 48.4914 385.442 48.0978L383.857 45.6481C383.696 45.3986 383.652 45.0883 383.738 44.8023C383.824 44.5162 384.03 44.2846 384.301 44.1709L391.238 41.2537V34.8097C390.867 34.668 390.603 34.3018 390.603 33.8723V31.7252C390.603 31.1729 391.04 30.7252 391.579 30.7252H401.76C402.299 30.7252 402.737 31.1729 402.737 31.7252V33.8723C402.737 34.3018 402.472 34.668 402.101 34.8097V36.6855L409.449 33.6004C409.602 33.5028 409.78 33.4482 409.967 33.4482H409.977C410.104 33.4482 410.23 33.4737 410.348 33.5233L435.634 44.1711C435.905 44.2849 436.111 44.5165 436.197 44.8025C436.282 45.0885 436.238 45.3987 436.077 45.6481L434.493 48.0978C434.238 48.4914 433.749 48.6491 433.32 48.476L432.188 48.0192V57.1353C432.198 57.135 432.207 57.1348 432.217 57.1348H454.41V38.8211L454.072 39.0313C453.829 39.1822 453.534 39.2173 453.264 39.1276C452.994 39.0379 452.775 38.8322 452.665 38.5641L451.498 35.7241C451.314 35.2761 451.471 34.7574 451.871 34.4948L470.502 22.2489C470.734 22.0405 471.056 21.9509 471.37 22.0266C471.523 22.0634 471.661 22.1359 471.775 22.2343C473.719 23.509 475.67 24.7838 477.622 26.0597C481.905 28.8579 486.195 31.661 490.428 34.4783C490.826 34.7429 490.98 35.2617 490.794 35.7084L489.618 38.5387C489.506 38.8068 489.286 39.0119 489.015 39.1001C488.744 39.1884 488.448 39.1511 488.206 38.9979L487.874 38.7882V57.4374H510.58C510.913 57.4374 511.224 57.6116 511.403 57.8994L514.591 63.0135C514.783 63.3213 514.796 63.7118 514.625 64.0321C514.453 64.3523 514.125 64.5514 513.768 64.5514H512.041V94.5609H510.087V63.5514C510.087 62.9992 510.524 62.5514 511.064 62.5514H511.986L510.045 59.4374H486.897C486.358 59.4374 485.921 58.9897 485.921 58.4374V36.9954C485.921 36.6329 486.112 36.2987 486.422 36.1221C486.731 35.9455 487.109 35.9541 487.411 36.1446L488.265 36.6849L488.676 35.698C484.673 33.0396 480.627 30.3958 476.581 27.7518C474.769 26.5682 472.958 25.3846 471.15 24.1996L453.617 35.7235L454.027 36.7202L454.881 36.1899C455.182 36.0026 455.559 35.9963 455.866 36.1734C456.174 36.3506 456.364 36.6837 456.364 37.0448V58.1348C456.364 58.6871 455.927 59.1348 455.387 59.1348H432.654L431.94 59.953C431.67 60.2621 431.241 60.3686 430.863 60.2207C430.485 60.0728 430.235 59.7011 430.235 59.2865V46.5501C430.235 46.2192 430.394 45.9097 430.662 45.7235C430.929 45.5373 431.269 45.4984 431.57 45.6198L433.301 46.3183L433.792 45.558L409.99 35.535L401.495 39.1016C401.194 39.2281 400.851 39.1925 400.58 39.0068C400.31 38.8211 400.148 38.5097 400.148 38.1764V33.8723C400.148 33.4429 400.412 33.0767 400.783 32.935V32.7252H392.556V32.935C392.927 33.0767 393.192 33.4429 393.192 33.8723V41.9241C393.192 42.3296 392.952 42.695 392.586 42.8491L386.143 45.5586L386.634 46.3183L388.365 45.6198C388.666 45.4984 389.006 45.5373 389.273 45.7235C389.54 45.9097 389.7 46.2192 389.7 46.5501V57.7445C389.7 58.2967 389.263 58.7445 388.723 58.7445H379.567V59.1969C379.987 59.3086 380.297 59.6996 380.297 60.1648V61.9704C380.297 62.3597 380.076 62.7137 379.732 62.8775C379.387 63.0414 378.98 62.9853 378.69 62.7338L370.719 55.8305L353.347 70.8926C353.057 71.1443 352.65 71.2005 352.305 71.0367C351.96 70.8729 351.739 70.5189 351.739 70.1295V54.6994C351.739 54.1472 352.176 53.6994 352.716 53.6994H354.622L352.865 50.8001H327.06C326.52 50.8001 326.083 50.3524 326.083 49.8001V45.8865C326.083 45.4907 326.307 45.1487 326.633 44.9866V44.4368H317.419V45.0061C317.745 45.1682 317.969 45.5102 317.969 45.906V49.8196C317.969 50.3719 317.532 50.8196 316.993 50.8196H315.486L313.723 53.719H315.626C316.166 53.719 316.603 54.1667 316.603 54.719V71.6129C316.603 72.1652 316.166 72.6129 315.626 72.6129H292.883C292.344 72.6129 291.907 72.1652 291.907 71.6129V50.1807C291.907 49.8186 292.098 49.4847 292.406 49.308C292.715 49.1312 293.093 49.1391 293.395 49.3286L294.261 49.8735L294.669 48.8959L293.315 48.0045C292.048 47.1698 290.293 46.0143 288.344 44.7308C284.659 42.3046 280.278 39.4212 277.179 37.3829L259.633 48.8706L260.037 49.8515L260.9 49.3091C261.201 49.1196 261.579 49.1117 261.888 49.2884C262.196 49.4652 262.388 49.7991 262.388 50.1612V71.6032C262.388 72.1479 261.962 72.5924 261.43 72.603L221.483 73.3935C221.211 73.3989 220.95 73.2881 220.761 73.0877C220.572 72.8874 220.474 72.6156 220.489 72.3377L220.973 63.4955C221.002 62.9658 221.43 62.5514 221.948 62.5514H222.87L220.929 59.4374H197.782C197.242 59.4374 196.805 58.9897 196.805 58.4374V36.9954C196.805 36.6329 196.997 36.2987 197.306 36.1221C197.615 35.9455 197.993 35.9541 198.295 36.1446L199.15 36.685L199.56 35.698C195.558 33.0397 191.512 30.396 187.465 27.7521C185.654 26.5684 183.842 25.3847 182.035 24.1996L164.501 35.7236L164.911 36.7202L165.765 36.1899C166.066 36.0026 166.443 35.9963 166.751 36.1734C167.058 36.3506 167.248 36.6837 167.248 37.0448V58.1348C167.248 58.6871 166.811 59.1348 166.271 59.1348H143.538L142.824 59.953C142.554 60.2621 142.125 60.3686 141.747 60.2207C141.369 60.0728 141.119 59.7011 141.119 59.2865V46.5501C141.119 46.2192 141.279 45.9097 141.546 45.7235C141.813 45.5373 142.153 45.4984 142.454 45.6198L144.185 46.3183L144.677 45.558L120.874 35.535L112.379 39.1016C112.078 39.2281 111.735 39.1925 111.464 39.0068C111.194 38.8211 111.032 38.5097 111.032 38.1764V33.8723C111.032 33.4429 111.296 33.0767 111.667 32.935V32.7252H103.44V32.935C103.811 33.0767 104.076 33.4429 104.076 33.8723V41.9241C104.076 42.3296 103.837 42.695 103.47 42.8491L97.0268 45.5586L97.5182 46.3183L99.2493 45.6198C99.55 45.4984 99.8899 45.5373 100.157 45.7235C100.424 45.9097 100.584 46.2192 100.584 46.5501V57.7445C100.584 58.2967 100.147 58.7445 99.6075 58.7445H90.4508V59.1969C90.8711 59.3086 91.1814 59.6996 91.1814 60.1648V61.9704C91.1814 62.3597 90.9607 62.7137 90.6157 62.8775C90.2707 63.0414 89.8642 62.9853 89.5739 62.7338L81.6031 55.8305L64.2311 70.8926C63.9408 71.1443 63.5342 71.2005 63.1891 71.0367C62.844 70.8729 62.6231 70.5189 62.6231 70.1295V54.6994C62.6231 54.1472 63.0604 53.6994 63.5999 53.6994H65.5066L63.7491 50.8001H37.9439C37.4044 50.8001 36.9671 50.3524 36.9671 49.8001V45.8865C36.9671 45.4907 37.1917 45.1487 37.5174 44.9866V44.4368H28.3033V45.0061C28.6291 45.1682 28.8537 45.5102 28.8537 45.906V49.8196C28.8537 50.3719 28.4164 50.8196 27.8769 50.8196H26.3699L24.6068 53.719H26.5106C27.05 53.719 27.4874 54.1667 27.4874 54.719V71.6129C27.4874 72.1652 27.05 72.6129 26.5106 72.6129H3.76746C3.22801 72.6129 2.79071 72.1652 2.79071 71.6129V50.1807C2.79071 49.8186 2.98195 49.4847 3.29065 49.308C3.59935 49.1312 3.97729 49.1391 4.27869 49.3286L5.14513 49.8735L5.55293 48.8959L4.19939 48.0045C2.93201 47.1698 1.17728 46.0143 -0.772141 44.7308C-4.45703 42.3046 -8.83733 39.4212 -11.9366 37.3829L-29.4828 48.8706L-29.0784 49.8515L-28.216 49.3091C-27.9147 49.1196 -27.5367 49.1117 -27.228 49.2884C-26.9193 49.4652 -26.7281 49.7991 -26.7281 50.1612V71.6032C-26.7281 72.1554 -27.1654 72.6032 -27.7048 72.6032H-50.8808L-51.0861 72.9321C-51.3197 73.3065 -51.7666 73.4782 -52.1831 73.3535C-52.5996 73.2289 -52.8859 72.8379 -52.8859 72.3937V67.8457C-52.8859 67.2934 -52.4486 66.8457 -51.9091 66.8457H-49.9959L-51.759 63.9463H-53.2565C-53.7959 63.9463 -54.2332 63.4986 -54.2332 62.9463V59.0327C-54.2332 58.6408 -54.013 58.3016 -53.6924 58.1376V57.5733H-62.897V58.1328C-62.5712 58.2949 -62.3466 58.637 -62.3466 59.0327V62.9463C-62.3466 63.4986 -62.784 63.9463 -63.3234 63.9463H-89.0079C-89.5473 63.9463 -89.9846 63.4986 -89.9846 62.9463V59.6769C-89.9846 59.3459 -89.8247 59.0364 -89.5575 58.8502C-89.2903 58.664 -88.9504 58.6252 -88.6497 58.7465L-86.9186 59.4451L-86.4269 58.6848L-92.8615 55.9756C-93.2277 55.8215 -93.4668 55.4562 -93.4668 55.0508V47.0088C-93.4668 46.5794 -93.2023 46.2131 -92.8311 46.0715V45.8617H-101.068V46.0617C-100.697 46.2034 -100.432 46.5696 -100.432 46.9991V51.3031C-100.432 51.6366 -100.595 51.9482 -100.865 52.1338C-101.136 52.3195 -101.479 52.3548 -101.78 52.228L-110.259 48.6591L-134.077 58.6943L-133.585 59.4548L-131.854 58.7563C-131.553 58.6349 -131.213 58.6738 -130.946 58.86C-130.679 59.0462 -130.519 59.3557 -130.519 59.6866V83.1C-130.519 83.4895 -130.74 83.8435 -131.085 84.0073C-131.43 84.1711 -131.837 84.1148 -132.127 83.8632L-149.305 68.9711L-157.271 75.8703C-157.561 76.1218 -157.968 76.1779 -158.313 76.014C-158.657 75.8502 -158.878 75.4962 -158.878 75.1069V73.3013C-158.878 72.8361 -158.568 72.4451 -158.148 72.3334V71.8809H-167.732V72.3359C-167.316 72.451 -167.011 72.8396 -167.011 73.3013V83.8418C-167.011 84.1358 -167.137 84.415 -167.356 84.605L-170.611 87.426L-169.912 88.5032L-167.961 86.7829C-167.671 86.5278 -167.263 86.4687 -166.916 86.6317C-166.569 86.7946 -166.346 87.1497 -166.346 87.5407V94.5609H-168.3V89.7215L-169.475 90.7579C-169.688 90.945 -169.968 91.0298 -170.246 90.9908C-170.523 90.9517 -170.771 90.7925 -170.926 90.5537L-172.719 87.7917C-172.994 87.369 -172.916 86.8028 -172.537 86.4749L-168.964 83.3781V74.2667C-169.38 74.1517 -169.685 73.7631 -169.685 73.3013V70.8809C-169.685 70.3287 -169.248 69.8809 -168.709 69.8809H-157.171C-156.631 69.8809 -156.194 70.3287 -156.194 70.8809V72.3184L-150.029 66.9788C-149.795 66.7145 -149.434 66.5922 -149.082 66.677C-148.887 66.724 -148.717 66.8291 -148.588 66.9718L-132.473 80.9429V61.1556L-133.605 61.6125C-134.034 61.7856 -134.523 61.6279 -134.777 61.2342L-136.362 58.7846C-136.523 58.5352 -136.567 58.225 -136.481 57.9391C-136.395 57.6531 -136.189 57.4215 -135.919 57.3077L-110.742 46.7C-110.66 46.6516 -110.571 46.6146 -110.475 46.5916C-110.214 46.5288 -109.948 46.5797 -109.733 46.7178L-102.386 49.8107V47.9364C-102.757 47.7948 -103.021 47.4285 -103.021 46.9991V44.8617C-103.021 44.3094 -102.584 43.8617 -102.045 43.8617H-91.8543C-91.3149 43.8617 -90.8776 44.3094 -90.8776 44.8617V47.0088C-90.8776 47.4383 -91.142 47.8045 -91.5133 47.9462V54.3808L-84.5849 57.2978C-84.3147 57.4116 -84.1084 57.6432 -84.0227 57.9292C-83.937 58.2152 -83.9807 58.5254 -84.1421 58.7748L-85.7266 61.2245C-85.9812 61.6181 -86.4701 61.7758 -86.8991 61.6027L-88.0311 61.1459V61.9463H-64.3001V59.9326C-64.6259 59.7705 -64.8505 59.4285 -64.8505 59.0327V56.5733C-64.8505 56.021 -64.4132 55.5733 -63.8737 55.5733H-52.7156C-52.1762 55.5733 -51.7389 56.021 -51.7389 56.5733V59.0327C-51.7389 59.4246 -51.9591 59.7639 -52.2797 59.9279V61.9463H-51.2165C-50.8791 61.9463 -50.5656 62.1246 -50.3873 62.4178L-47.408 67.3172C-47.2205 67.6255 -47.2111 68.0137 -47.3833 68.3312C-47.5556 68.6488 -47.8824 68.8457 -48.2372 68.8457H-50.9324V70.6032H-28.6815V51.9491L-29.0248 52.1649C-29.2674 52.3175 -29.563 52.3541 -29.8342 52.2651C-30.1054 52.1761 -30.3251 51.9704 -30.4359 51.7018L-31.6029 48.8715C-31.788 48.4226 -31.6302 47.9026 -31.2293 47.6401L-12.4617 35.3527C-12.1403 35.1423 -11.7286 35.1427 -11.4076 35.3537C-8.29228 37.4022 -3.6144 40.4815 0.2845 43.0486C2.23399 44.3322 3.98877 45.4877 5.25618 46.3224L7.30139 47.6693L7.3031 47.6704C7.30321 47.6705 7.30367 47.6708 6.77522 48.5118L7.3031 47.6704C7.70375 47.9343 7.86058 48.456 7.67348 48.9046L6.49695 51.7251C6.38539 51.9926 6.16562 52.197 5.89494 52.2853C5.62428 52.3735 5.3295 52.3367 5.08745 52.1844L4.7442 51.9686V70.6129H25.5339V55.719H22.8482C22.4934 55.719 22.1665 55.522 21.9943 55.2045C21.822 54.887 21.8315 54.4988 22.019 54.1904L24.9983 49.2911C25.1766 48.9979 25.4901 48.8196 25.8275 48.8196H26.9002V46.8059C26.5744 46.6438 26.3498 46.3018 26.3498 45.906V43.4368C26.3498 42.8845 26.7871 42.4368 27.3266 42.4368H38.4942C39.0336 42.4368 39.4709 42.8845 39.4709 43.4368V45.8865C39.4709 46.2822 39.2464 46.6243 38.9206 46.7864V48.8001H64.2925C64.6304 48.8001 64.9443 48.9789 65.1224 49.2728L68.0922 54.1721C68.2792 54.4805 68.2882 54.8684 68.1159 55.1856C67.9435 55.5028 67.6168 55.6994 67.2623 55.6994H64.5766V67.9722L80.9421 53.7828C81.1624 53.5723 81.4661 53.4773 81.7648 53.5269C81.9856 53.5636 82.1846 53.6761 82.3315 53.8418L88.4974 59.1819V57.7445C88.4974 57.1922 88.9347 56.7445 89.4741 56.7445H98.6307V48.0192L97.4987 48.476C97.0697 48.6491 96.5808 48.4914 96.3262 48.0977L94.7417 45.6481C94.5803 45.3986 94.5366 45.0883 94.6224 44.8023C94.7082 44.5162 94.9146 44.2846 95.185 44.1709L102.122 41.2537V34.8097C101.751 34.668 101.487 34.3018 101.487 33.8723V31.7252C101.487 31.1729 101.924 30.7252 102.463 30.7252H112.644C113.184 30.7252 113.621 31.1729 113.621 31.7252V33.8723C113.621 34.3018 113.357 34.668 112.985 34.8097V36.6855L120.334 33.6003C120.486 33.5027 120.665 33.4482 120.851 33.4482H120.861C120.988 33.4482 121.115 33.4737 121.232 33.5233L146.518 44.1711C146.789 44.2849 146.995 44.5165 147.081 44.8025C147.166 45.0884 147.123 45.3987 146.961 45.6481L145.377 48.0977C145.122 48.4914 144.633 48.6491 144.204 48.476L143.072 48.0192V57.1353C143.082 57.135 143.092 57.1348 143.101 57.1348H165.295V38.8211L164.956 39.0313C164.713 39.1822 164.418 39.2173 164.148 39.1276C163.878 39.0379 163.659 38.8322 163.549 38.5641L162.382 35.7241C162.198 35.2761 162.355 34.7574 162.755 34.4948L181.386 22.2488C181.618 22.0405 181.94 21.9509 182.255 22.0266C182.408 22.0634 182.545 22.1359 182.659 22.2343Z" fill="white"/>
<rect x="-185" y="18" width="720" height="80" fill="#1646AA"/>
</g>
</g>
<defs>
<clipPath id="clip0_7612_12725">
<path d="M0 16C0 7.16344 7.16344 0 16 0H320C328.837 0 336 7.16344 336 16V79C336 87.8366 328.837 95 320 95H16C7.16344 95 0 87.8366 0 79V16Z" fill="white"/>
</clipPath>
</defs>
</svg>