<svg width="15" height="15" viewBox="0 0 15 15" fill="none" xmlns="http://www.w3.org/2000/svg">
<path d="M3.66634 2.99967C3.29815 2.99967 2.99967 3.29815 2.99967 3.66634C2.99967 4.03453 3.29815 4.33301 3.66634 4.33301H4.99967C5.36786 4.33301 5.66634 4.03453 5.66634 3.66634C5.66634 3.29815 5.36786 2.99967 4.99967 2.99967H3.66634Z" fill="#06122B"/>
<path d="M2.99967 6.33301C2.99967 5.96482 3.29815 5.66634 3.66634 5.66634H4.99967C5.36786 5.66634 5.66634 5.96482 5.66634 6.33301C5.66634 6.7012 5.36786 6.99967 4.99967 6.99967H3.66634C3.29815 6.99967 2.99967 6.7012 2.99967 6.33301Z" fill="#06122B"/>
<path d="M3.66634 8.33301C3.29815 8.33301 2.99967 8.63148 2.99967 8.99967C2.99967 9.36786 3.29815 9.66634 3.66634 9.66634H4.99967C5.36786 9.66634 5.66634 9.36786 5.66634 8.99967C5.66634 8.63148 5.36786 8.33301 4.99967 8.33301H3.66634Z" fill="#06122B"/>
<path d="M2.99967 11.6663C2.99967 11.2982 3.29815 10.9997 3.66634 10.9997H4.99967C5.36786 10.9997 5.66634 11.2982 5.66634 11.6663C5.66634 12.0345 5.36786 12.333 4.99967 12.333H3.66634C3.29815 12.333 2.99967 12.0345 2.99967 11.6663Z" fill="#06122B"/>
<path d="M10.333 5.66634C9.96482 5.66634 9.66634 5.96482 9.66634 6.33301C9.66634 6.7012 9.96482 6.99967 10.333 6.99967H11.6663C12.0345 6.99967 12.333 6.7012 12.333 6.33301C12.333 5.96482 12.0345 5.66634 11.6663 5.66634H10.333Z" fill="#06122B"/>
<path d="M9.66634 8.99967C9.66634 8.63148 9.96482 8.33301 10.333 8.33301H11.6663C12.0345 8.33301 12.333 8.63148 12.333 8.99967C12.333 9.36786 12.0345 9.66634 11.6663 9.66634H10.333C9.96482 9.66634 9.66634 9.36786 9.66634 8.99967Z" fill="#06122B"/>
<path d="M10.333 10.9997C9.96482 10.9997 9.66634 11.2982 9.66634 11.6663C9.66634 12.0345 9.96482 12.333 10.333 12.333H11.6663C12.0345 12.333 12.333 12.0345 12.333 11.6663C12.333 11.2982 12.0345 10.9997 11.6663 10.9997H10.333Z" fill="#06122B"/>
<path fill-rule="evenodd" clip-rule="evenodd" d="M8.33301 14.9997H13.6663C14.4027 14.9997 14.9997 14.4027 14.9997 13.6663V4.33301C14.9997 3.59663 14.4027 2.99967 13.6663 2.99967H8.33301V1.66634C8.33301 0.929962 7.73605 0.333008 6.99967 0.333008H1.66634C0.929962 0.333008 0.333008 0.929961 0.333008 1.66634V13.6663C0.333008 14.4027 0.929962 14.9997 1.66634 14.9997H6.99967C7.45838 14.9997 7.8743 14.9997 8.33301 14.9997ZM6.99967 1.66634H1.66634L1.66634 13.6663H6.99967V1.66634ZM8.33301 4.33301V13.6663H13.6663V4.33301H8.33301Z" fill="#06122B"/>
</svg>
