<svg width="17" height="20" viewBox="0 0 17 20" fill="none" xmlns="http://www.w3.org/2000/svg">
<path fill-rule="evenodd" clip-rule="evenodd" d="M7.28564 1C7.28564 0.447715 7.73336 0 8.28564 0C8.83793 0 9.28564 0.447715 9.28564 1V2C9.28564 2.02774 9.28452 2.05522 9.2823 2.08239C12.1217 2.55707 14.2857 5.02582 14.2857 8V9.95736C14.2857 10.3881 14.4416 10.8042 14.7246 11.1289L15.369 11.8682C17.4559 14.2623 15.7555 18 12.5796 18H10.2856C10.2856 19.1046 9.39021 20 8.28564 20C7.18108 20 6.28564 19.1046 6.28564 18H3.99173C0.815836 18 -0.884497 14.2623 1.20232 11.8682L1.84676 11.1289C2.12977 10.8042 2.28569 10.3881 2.28569 9.95735V8C2.28569 5.02585 4.44965 2.55712 7.28899 2.08241C7.28677 2.05523 7.28564 2.02775 7.28564 2V1ZM8.28569 4C6.07655 4 4.28569 5.79086 4.28569 8V9.95735C4.28569 10.8712 3.95488 11.7542 3.35441 12.443L2.70996 13.1824C1.75105 14.2825 2.53237 16 3.99173 16H12.5796C14.039 16 14.8203 14.2825 13.8614 13.1824L13.217 12.443C12.6165 11.7542 12.2857 10.8712 12.2857 9.95736V8C12.2857 5.79086 10.4948 4 8.28569 4Z" fill="#FF5050"/>
</svg>
