<svg width="18" height="19" viewBox="0 0 18 19" fill="none" xmlns="http://www.w3.org/2000/svg">
<path d="M9 5.00037C9.55228 5.00037 10 5.44808 10 6.00037V10.0004C10 10.5527 9.55228 11.0004 9 11.0004C8.44771 11.0004 8 10.5527 8 10.0004V6.00037C8 5.44808 8.44771 5.00037 9 5.00037Z" fill="#FF5050"/>
<path d="M8 14.0004C8 13.4481 8.44772 13.0004 9 13.0004C9.55228 13.0004 10 13.4481 10 14.0004C10 14.5527 9.55228 15.0004 9 15.0004C8.44772 15.0004 8 14.5527 8 14.0004Z" fill="#FF5050"/>
<path fill-rule="evenodd" clip-rule="evenodd" d="M5.42112 3.2107C6.89432 0.259181 11.1059 0.259196 12.579 3.21073L17.5719 13.214C18.8992 15.8734 16.9652 19.0003 13.9929 19.0003H4.0071C1.03478 19.0003 -0.89926 15.8734 0.428157 13.2139L5.42112 3.2107ZM10.7896 4.1039L15.7824 14.1072C16.4461 15.4369 15.479 17.0003 13.9929 17.0003H4.0071C2.52095 17.0003 1.55392 15.4369 2.21763 14.1071L7.21059 4.10389C7.9472 2.62812 10.053 2.62814 10.7896 4.1039Z" fill="#FF5050"/>
</svg>
