<svg width="16" height="16" viewBox="0 0 16 16" fill="none" xmlns="http://www.w3.org/2000/svg">
<path d="M8.31236 0C8.43736 0.0479167 8.56403 0.0904167 8.68653 0.14375C9.52611 0.51 9.92986 1.48125 9.59861 2.33625C9.56153 2.43208 9.51694 2.52542 9.46195 2.65208C10.5144 3.15292 10.4965 4.20583 10.7107 5.12625C10.8053 5.53208 10.4199 5.92667 9.9832 5.93125C8.66111 5.94417 7.33861 5.94625 6.01611 5.93083C5.52861 5.925 5.2007 5.485 5.3007 5.00125C5.3932 4.55375 5.50278 4.10833 5.63319 3.67083C5.77069 3.20958 6.09111 2.8875 6.51736 2.66167C6.44736 2.44625 6.35611 2.24625 6.31861 2.03708C6.15861 1.14417 6.65236 0.345417 7.51778 0.06875C7.57569 0.0504167 7.63111 0.02375 7.68736 0.000833333C7.8957 0.000833333 8.10403 0.000833333 8.31236 0.000833333V0ZM9.73861 4.98792C9.65236 4.64208 9.58361 4.32792 9.49486 4.02C9.39028 3.6575 9.11736 3.4475 8.73736 3.44083C8.23903 3.43208 7.74028 3.43125 7.24195 3.44167C6.89403 3.44917 6.61528 3.65375 6.51695 3.97958C6.4182 4.30583 6.3482 4.64042 6.26111 4.98792H9.73861ZM8.01069 0.939583C7.58653 0.933333 7.2357 1.27333 7.22653 1.69958C7.21736 2.12792 7.54903 2.4825 7.97361 2.4975C8.40861 2.51292 8.77236 2.16042 8.77445 1.72125C8.77611 1.295 8.43528 0.945417 8.01069 0.939167V0.939583Z" fill="#1646AA"/>
<path d="M0 14.9999C0.0779167 14.7333 0.1775 14.4708 0.229583 14.1991C0.353333 13.5524 0.636667 13.0241 1.24625 12.7258C0.872917 11.5849 1.02458 10.8795 1.74208 10.3745C2.35875 9.94036 3.18333 9.96119 3.77708 10.4262C4.45667 10.9583 4.59542 11.697 4.195 12.7233C4.82375 13.0183 5.10125 13.5658 5.22833 14.2179C5.26792 14.4216 5.32667 14.6212 5.37583 14.8233C5.52917 15.4537 5.43292 15.6791 4.87542 15.9999H0.5625C0.375 15.8124 0.1875 15.6249 0 15.4374C0 15.2916 0 15.1458 0 14.9999ZM0.984583 15.0462H4.46583C4.37208 14.6874 4.30042 14.342 4.19 14.0095C4.08042 13.6795 3.82 13.5112 3.47583 13.5041C2.97667 13.4937 2.47708 13.4933 1.97833 13.5041C1.62083 13.5116 1.35917 13.6899 1.25 14.0345C1.14708 14.3591 1.07583 14.6941 0.984583 15.0466V15.0462ZM2.72417 11.0016C2.30333 11.0016 1.94792 11.3529 1.94333 11.7733C1.93875 12.2041 2.30792 12.5691 2.74 12.5604C3.16292 12.5516 3.505 12.1979 3.50125 11.7733C3.4975 11.3499 3.14667 11.0016 2.72417 11.002V11.0016Z" fill="#1646AA"/>
<path d="M11.1248 16C10.5673 15.6792 10.4715 15.4542 10.6244 14.8238C10.6735 14.6221 10.7223 14.42 10.7731 14.2188C10.994 13.3475 11.0865 13.2108 11.7965 12.7008C11.3956 11.6767 11.5527 10.9121 12.2715 10.3883C12.8865 9.94001 13.7344 9.95709 14.3331 10.43C15.0073 10.9629 15.1552 11.7492 14.7394 12.7175C15.5581 13.0796 15.7006 13.8596 15.8765 14.6225C15.906 14.7513 15.9581 14.8746 15.9998 15.0004V15.4379L15.4373 16.0004H11.1248V16ZM15.0156 15.0467C14.9219 14.6846 14.8527 14.3379 14.7406 14.0058C14.6298 13.6783 14.3677 13.51 14.0231 13.5033C13.524 13.4938 13.0244 13.495 12.5252 13.5033C12.1931 13.5088 11.9323 13.6671 11.8215 13.9788C11.7006 14.3179 11.6306 14.6754 11.5327 15.0467H15.0156ZM13.2823 12.5608C13.7027 12.5563 14.056 12.2013 14.0565 11.7817C14.0569 11.3504 13.6848 10.9896 13.2523 11.0025C12.8285 11.015 12.491 11.37 12.4985 11.7958C12.506 12.2188 12.8606 12.5654 13.2823 12.5608Z" fill="#1646AA"/>
<path d="M1.28648 8.64963C1.40106 6.91921 2.01231 5.48754 3.16856 4.30296C3.29273 4.17546 3.5369 4.07296 3.70398 4.09838C4.08273 4.15629 4.15481 4.61046 3.85023 4.92671C3.14315 5.66088 2.64231 6.51504 2.40773 7.50504C2.29606 7.97629 2.2769 8.46963 2.21273 8.95213C2.17315 9.25004 1.98481 9.41463 1.7144 9.39546C1.46023 9.37754 1.30148 9.20004 1.28731 8.91171C1.2819 8.79796 1.28648 8.68338 1.28648 8.64921V8.64963Z" fill="#1646AA"/>
<path d="M14.7097 8.63751C14.7097 8.71334 14.7189 8.83876 14.708 8.96251C14.6843 9.22876 14.5339 9.38542 14.2659 9.39376C14.0005 9.40209 13.8289 9.26167 13.7951 8.99501C13.7559 8.68626 13.7526 8.37292 13.7068 8.06542C13.5293 6.86834 13.0084 5.83751 12.1809 4.95667C12.0914 4.86126 11.968 4.73042 11.9759 4.62501C11.9889 4.45917 12.0589 4.22584 12.1805 4.15917C12.3155 4.08501 12.5689 4.10959 12.7105 4.19292C12.8993 4.30376 13.0401 4.50501 13.1847 4.68126C14.1151 5.81792 14.6226 7.12084 14.7097 8.63751Z" fill="#1646AA"/>
<path d="M7.25738 10.0462C7.86738 9.43041 8.43654 8.85541 9.00654 8.28041C9.07988 8.20666 9.15029 8.12958 9.22946 8.06208C9.44529 7.87791 9.72779 7.88333 9.90196 8.06958C10.0674 8.24624 10.0707 8.51958 9.88529 8.71833C9.63029 8.99208 9.35988 9.25166 9.09529 9.51666C8.62488 9.98791 8.15696 10.4612 7.68279 10.9283C7.39113 11.2158 7.16613 11.2154 6.87613 10.9333C6.62988 10.6942 6.38613 10.4521 6.14863 10.2046C5.93113 9.97791 5.91863 9.70041 6.10488 9.51C6.29279 9.3175 6.57404 9.32 6.79863 9.53583C6.95529 9.68624 7.09113 9.85916 7.25738 10.0458V10.0462Z" fill="#1646AA"/>
<path d="M8.00752 15.6996C7.58919 15.6512 7.16502 15.6137 6.7446 15.5504C6.41085 15.5 6.24794 15.2779 6.29794 14.9912C6.3446 14.7216 6.55669 14.5712 6.88502 14.6291C7.63044 14.7604 8.37044 14.76 9.11585 14.6291C9.44336 14.5716 9.65627 14.7229 9.70211 14.9925C9.75086 15.2796 9.58752 15.5004 9.25377 15.5512C8.84377 15.6137 8.43002 15.6508 8.00794 15.7L8.00752 15.6996Z" fill="#1646AA"/>
</svg>
