<svg width="21" height="20" viewBox="0 0 21 20" fill="none" xmlns="http://www.w3.org/2000/svg">
<path d="M13.8499 8.70711C14.2405 8.31658 14.2405 7.68342 13.8499 7.29289C13.4594 6.90237 12.8262 6.90237 12.4357 7.29289L9.14282 10.5858L7.84993 9.29289C7.4594 8.90237 6.82624 8.90237 6.43572 9.29289C6.04519 9.68342 6.04519 10.3166 6.43572 10.7071L8.43572 12.7071C8.82624 13.0976 9.4594 13.0976 9.84993 12.7071L13.8499 8.70711Z" fill="#4FB980"/>
<path fill-rule="evenodd" clip-rule="evenodd" d="M10.1428 0C4.61998 0 0.142822 4.47715 0.142822 10C0.142822 15.5228 4.61998 20 10.1428 20C15.6657 20 20.1428 15.5228 20.1428 10C20.1428 4.47715 15.6657 0 10.1428 0ZM2.14282 10C2.14282 5.58172 5.72454 2 10.1428 2C14.5611 2 18.1428 5.58172 18.1428 10C18.1428 14.4183 14.5611 18 10.1428 18C5.72454 18 2.14282 14.4183 2.14282 10Z" fill="#4FB980"/>
</svg>
