<svg width="14" height="14" viewBox="0 0 14 14" fill="none" xmlns="http://www.w3.org/2000/svg">
<path d="M6.33301 4.33594C6.33301 3.96775 6.63148 3.66927 6.99967 3.66927C7.36786 3.66927 7.66634 3.96775 7.66634 4.33594C7.66634 4.70413 7.36786 5.0026 6.99967 5.0026C6.63148 5.0026 6.33301 4.70413 6.33301 4.33594Z" fill="#8C8C8C"/>
<path d="M6.99967 6.33594C7.36786 6.33594 7.66634 6.63441 7.66634 7.0026V9.66927C7.66634 10.0375 7.36786 10.3359 6.99967 10.3359C6.63148 10.3359 6.33301 10.0375 6.33301 9.66927V7.0026C6.33301 6.63441 6.63148 6.33594 6.99967 6.33594Z" fill="#8C8C8C"/>
<path fill-rule="evenodd" clip-rule="evenodd" d="M6.99967 0.335938C3.31778 0.335938 0.333008 3.32071 0.333008 7.0026C0.333008 10.6845 3.31778 13.6693 6.99967 13.6693C10.6816 13.6693 13.6663 10.6845 13.6663 7.0026C13.6663 3.32071 10.6816 0.335938 6.99967 0.335938ZM1.66634 7.0026C1.66634 4.05709 4.05416 1.66927 6.99967 1.66927C9.94519 1.66927 12.333 4.05709 12.333 7.0026C12.333 9.94812 9.94519 12.3359 6.99967 12.3359C4.05416 12.3359 1.66634 9.94812 1.66634 7.0026Z" fill="#8C8C8C"/>
</svg>
