<svg width="24" height="24" viewBox="0 0 24 24" fill="none" xmlns="http://www.w3.org/2000/svg">
<path d="M22.8153 5.00545L16.9055 5.00391H16.9039C16.8993 5.00391 16.8949 5.00472 16.8904 5.00472C16.0786 5.02957 15.0673 5.68078 14.8832 6.4837L12.0884 18.8502C11.9042 19.6607 12.4052 20.3201 13.2112 20.3322H19.4197C20.2133 20.293 20.9847 19.6492 21.1657 18.8554L23.9606 6.48882C24.1477 5.67022 23.6348 5.00545 22.8153 5.00545Z" fill="#01798A"/>
<path d="M12.0884 18.8497L14.8832 6.48321C15.0674 5.68029 16.0786 5.02908 16.8905 5.00423L14.5407 5.00277L10.3072 5.00195C9.49305 5.0186 8.46873 5.67436 8.2846 6.48329L5.489 18.8497C5.30415 19.6602 5.80591 20.3196 6.61135 20.3317H13.2112C12.4052 20.3196 11.9042 19.6602 12.0884 18.8497Z" fill="#024381"/>
<path d="M5.48928 18.8492L8.28489 6.48272C8.46901 5.67378 9.49333 5.01803 10.3075 5.00138L4.88413 5C4.06545 5 3.01579 5.66331 2.82866 6.48272L0.0330577 18.8492C0.0160831 18.9247 0.00658061 18.9987 0.000976562 19.0709V19.3003C0.0557175 19.8911 0.506884 20.3213 1.15541 20.3311H6.61164C5.8062 20.3191 5.30443 19.6597 5.48928 18.8492Z" fill="#DD0228"/>
<path d="M10.4217 14.0124H10.5244C10.6187 14.0124 10.6821 13.9806 10.7119 13.918L10.9786 13.5189H11.6928L11.5439 13.7814H12.4002L12.2915 14.1837H11.2726C11.1552 14.3602 11.0107 14.4432 10.8371 14.4333H10.3063L10.4217 14.0124ZM10.3044 14.5888H12.1807L12.061 15.0257H11.3064L11.1913 15.4474H11.9256L11.806 15.8844H11.0718L10.9012 16.5076C10.859 16.6118 10.9146 16.6585 11.0669 16.648H11.6653L11.5544 17.0541H10.4056C10.1878 17.0541 10.1131 16.9295 10.1814 16.6797L10.3995 15.8845H9.93019L10.0494 15.4475H10.5188L10.6339 15.0258H10.1852L10.3044 14.5888ZM13.299 13.5158L13.2695 13.7717C13.2695 13.7717 13.6233 13.506 13.9447 13.506H15.1324L14.6782 15.1502C14.6405 15.3381 14.479 15.4316 14.1937 15.4316H12.8475L12.5323 16.5861C12.514 16.648 12.5397 16.6797 12.6076 16.6797H12.8726L12.7752 17.0381H12.1018C11.8434 17.0381 11.7358 16.9604 11.7785 16.8042L12.6695 13.5158H13.299ZM14.3048 13.9806H13.2446L13.1178 14.4243C13.1178 14.4243 13.2943 14.2969 13.5894 14.2923C13.8836 14.2877 14.2195 14.2923 14.2195 14.2923L14.3048 13.9806ZM13.9206 15.0098C13.999 15.0205 14.0429 14.9895 14.0481 14.9163L14.113 14.6824H13.0513L12.9623 15.0098H13.9206ZM13.2046 15.5411H13.8166L13.8051 15.8059H13.968C14.0504 15.8059 14.0912 15.7795 14.0912 15.7275L14.1395 15.5562H14.6482L14.5803 15.8059C14.5227 16.0142 14.3705 16.1228 14.1229 16.1335H13.7969L13.7954 16.5861C13.7894 16.6586 13.8549 16.6956 13.99 16.6956H14.2963L14.1975 17.0541H13.4625C13.2565 17.0638 13.1554 16.9657 13.1576 16.7575L13.2046 15.5411ZM5.78873 11.3254C5.70572 11.7321 5.51332 12.0445 5.21484 12.2663C4.91904 12.4843 4.53764 12.5937 4.07056 12.5937C3.63101 12.5937 3.30881 12.4821 3.10317 12.258C2.96055 12.0988 2.88965 11.8966 2.88965 11.6521C2.88965 11.551 2.90175 11.4423 2.92587 11.3254L3.42349 8.92603H4.175L3.68429 11.2982C3.67025 11.3577 3.66343 11.4188 3.66398 11.48C3.66317 11.6015 3.69338 11.7011 3.75446 11.7788C3.84347 11.8943 3.98796 11.9516 4.18914 11.9516C4.42036 11.9516 4.6109 11.895 4.7588 11.781C4.9067 11.6678 5.00327 11.5071 5.04664 11.2981L5.53898 8.92578H6.28675L5.78873 11.3254ZM8.94502 10.3814H9.53361L9.07253 12.5228H8.48508L8.94502 10.3814ZM9.13028 9.60119H9.72414L9.6132 10.121H9.01942L9.13028 9.60119ZM10.0546 12.3598C9.90063 12.2127 9.82291 12.0143 9.82218 11.7622C9.82218 11.7192 9.82477 11.6702 9.83054 11.6166C9.83623 11.5623 9.84337 11.5095 9.85352 11.4604C9.92329 11.1126 10.072 10.8364 10.301 10.6327C10.5296 10.4282 10.8054 10.3256 11.1284 10.3256C11.3928 10.3256 11.6026 10.3996 11.7562 10.5474C11.9097 10.6961 11.9866 10.8967 11.9866 11.1518C11.9866 11.1955 11.9833 11.2461 11.9776 11.3004C11.971 11.354 11.9628 11.4074 11.9531 11.4604C11.8849 11.803 11.7366 12.0761 11.5076 12.2761C11.2786 12.4775 11.0035 12.5778 10.6828 12.5778C10.4173 12.5779 10.2082 12.5055 10.0546 12.3598ZM11.1763 11.9358C11.2801 11.8234 11.3544 11.6528 11.3997 11.4258C11.4065 11.3903 11.4125 11.3533 11.4162 11.3164C11.42 11.2801 11.4215 11.2462 11.4215 11.2152C11.4215 11.0832 11.3879 10.9806 11.3204 10.9082C11.2533 10.835 11.1579 10.7987 11.0345 10.7987C10.8715 10.7987 10.7386 10.856 10.6346 10.9708C10.5297 11.0855 10.4553 11.259 10.4085 11.4899C10.4021 11.5254 10.3968 11.5609 10.3919 11.5956C10.3882 11.6311 10.387 11.6642 10.3878 11.6944C10.3878 11.8258 10.4214 11.9269 10.4889 11.9985C10.5561 12.0702 10.6511 12.1056 10.776 12.1056C10.9398 12.1055 11.0725 12.0489 11.1763 11.9358Z" fill="white"/>
<path d="M16.9043 5.00268L14.541 5.00195L16.8908 5.0035C16.8952 5.0035 16.8997 5.00268 16.9043 5.00268Z" fill="#E02F41"/>
<path d="M14.5411 5.00227L10.3401 5C10.3295 5 10.3186 5.00073 10.3076 5.00146L14.5411 5.00227Z" fill="#2E4F7D"/>
<path d="M15.8056 14.0306L15.9474 13.5311H16.6651L16.6341 13.7145C16.6341 13.7145 17.0008 13.5311 17.2649 13.5311H18.1522L18.0112 14.0306H17.8716L17.2023 16.3864H17.3419L17.2091 16.8542H17.0695L17.0114 17.0572H16.3164L16.3744 16.8542H15.0034L15.1371 16.3864H15.2744L15.9444 14.0306H15.8056ZM16.5798 14.0306L16.3972 14.6681C16.3972 14.6681 16.7098 14.5482 16.9791 14.5142C17.0385 14.2917 17.1163 14.0306 17.1163 14.0306H16.5798ZM16.3127 14.967L16.1294 15.6349C16.1294 15.6349 16.4757 15.4643 16.7133 15.45C16.782 15.1919 16.8507 14.9671 16.8507 14.9671H16.3127V14.967ZM16.4469 16.3864L16.5842 15.9019H16.0486L15.9105 16.3864H16.4469ZM18.1824 13.5002H18.8571L18.8857 13.7491C18.8812 13.8124 18.919 13.8427 18.999 13.8427H19.1182L18.9976 14.2644H18.5018C18.3125 14.2742 18.2151 14.2018 18.206 14.0456L18.1824 13.5002ZM17.9847 14.4049H20.1699L20.0416 14.8577H19.3459L19.2266 15.2787H19.9218L19.7926 15.7306H19.0185L18.8434 15.9956H19.2224L19.3099 16.526C19.3203 16.5788 19.367 16.6045 19.4471 16.6045H19.5647L19.4411 17.0413H19.0246C18.8087 17.0519 18.6972 16.9795 18.688 16.8233L18.5876 16.3388L18.2428 16.8542C18.1613 16.9998 18.036 17.0677 17.867 17.0572H17.2309L17.3546 16.6202H17.5531C17.6347 16.6202 17.7025 16.5841 17.7636 16.5108L18.3033 15.7306H17.6075L17.7365 15.2787H18.4911L18.6111 14.8577H17.8558L17.9847 14.4049ZM6.48108 10.3808H7.01192L6.95117 10.6902L7.02735 10.6019C7.19945 10.4178 7.40843 10.3265 7.65517 10.3265C7.87852 10.3265 8.03957 10.3914 8.14077 10.5219C8.24034 10.6524 8.26755 10.8328 8.22036 11.0644L7.9279 12.5237H7.38235L7.64639 11.201C7.6736 11.0644 7.66605 10.9626 7.62414 10.8969C7.58272 10.8312 7.50345 10.7988 7.3891 10.7988C7.24875 10.7988 7.13066 10.8425 7.03442 10.9294C6.93785 11.0169 6.87409 11.1384 6.84274 11.2931L6.59941 12.5237H6.05273L6.48108 10.3808ZM12.5685 10.3808H13.0998L13.0394 10.6902L13.1147 10.6019C13.287 10.4178 13.4967 10.3265 13.7427 10.3265C13.966 10.3265 14.1273 10.3914 14.2278 10.5219C14.3268 10.6524 14.3553 10.8328 14.3071 11.0644L14.0158 12.5237H13.4695L13.7337 11.201C13.7608 11.0644 13.7532 10.9626 13.7117 10.8969C13.6686 10.8312 13.5909 10.7988 13.477 10.7988C13.3366 10.7988 13.219 10.8425 13.1216 10.9294C13.0251 11.0169 12.9609 11.1384 12.9308 11.2931L12.6862 12.5237H12.1403L12.5685 10.3808ZM15.1945 9.05273H16.7368C17.0332 9.05273 17.2627 9.1199 17.4203 9.25188C17.5772 9.38557 17.6558 9.57716 17.6558 9.8269V9.83446C17.6558 9.88197 17.6527 9.93557 17.6481 9.99364C17.6403 10.0526 17.6302 10.1113 17.618 10.1695C17.55 10.5 17.3924 10.7656 17.1487 10.967C16.9041 11.1677 16.6145 11.2688 16.281 11.2688H15.4539L15.1981 12.5237H14.482L15.1945 9.05273ZM15.5799 10.6653H16.2658C16.4446 10.6653 16.5865 10.6237 16.69 10.5415C16.7927 10.4585 16.8606 10.3318 16.8981 10.1597C16.9041 10.128 16.9079 10.0993 16.9125 10.0729C16.9148 10.0481 16.9178 10.023 16.9178 9.99901C16.9178 9.87596 16.8741 9.78695 16.7864 9.73107C16.699 9.67438 16.5616 9.64733 16.3715 9.64733H15.789L15.5799 10.6653ZM20.8611 12.938C20.6347 13.4194 20.419 13.7 20.2923 13.8305C20.1654 13.9597 19.9141 14.2599 19.309 14.2373L19.3612 13.8699C19.8704 13.7129 20.1458 13.0059 20.3028 12.6928L20.1156 10.3868L20.5095 10.3815H20.84L20.8756 11.828L21.495 10.3815H22.1221L20.8611 12.938ZM19.1076 10.5558L18.8585 10.7271C18.5982 10.5234 18.3606 10.3974 17.9019 10.6102C17.2771 10.8999 16.7549 13.1222 18.4754 12.3902L18.5734 12.5064L19.2503 12.5238L19.6948 10.5046L19.1076 10.5558ZM18.7227 11.6598C18.614 11.9805 18.3712 12.1925 18.1809 12.1321C17.9908 12.0732 17.9228 11.7639 18.0331 11.4424C18.1418 11.121 18.3863 10.9097 18.5748 10.97C18.765 11.0289 18.8336 11.3383 18.7227 11.6598Z" fill="white"/>
</svg>
