<svg width="24" height="24" viewBox="0 0 24 24" fill="none" xmlns="http://www.w3.org/2000/svg">
<path fill-rule="evenodd" clip-rule="evenodd" d="M23.6473 6.32625C23.6473 5.20741 23.0658 4.65234 21.9379 4.65234H2.0623C1.49852 4.65234 1.0844 4.80213 0.811223 5.11041C0.502937 5.41883 0.353027 5.81526 0.353027 6.32625V17.6738C0.353027 18.1848 0.502937 18.5724 0.811223 18.8895C1.12847 19.1979 1.53375 19.3477 2.0623 19.3477H21.9379C23.0658 19.3477 23.6473 18.7841 23.6473 17.6739V6.32625ZM21.9379 4.91668C22.8717 4.91668 23.3476 5.39243 23.3476 6.32625V17.6738C23.3476 18.6164 22.8717 19.0833 21.9379 19.0833H2.0623C1.61294 19.0833 1.26942 18.9512 1.01393 18.6868C0.749591 18.4312 0.617486 18.0789 0.617486 17.6737V6.32625C0.617486 5.39243 1.0844 4.91668 2.0623 4.91668H21.9379Z" fill="#315881"/>
<path fill-rule="evenodd" clip-rule="evenodd" d="M2.22083 5.56836C1.84207 5.56836 1.60413 5.62999 1.47203 5.76222C1.35748 5.91201 1.30469 6.15866 1.30469 6.51986V8.97781H22.6957V6.51986C22.6957 5.87677 22.3783 5.56836 21.7441 5.56836H2.22083Z" fill="#315881"/>
<path fill-rule="evenodd" clip-rule="evenodd" d="M1.30469 17.4444C1.30469 18.0961 1.61297 18.431 2.22083 18.431H21.7441C22.3783 18.431 22.6957 18.0962 22.6957 17.4444V14.9863H1.30469V17.4444Z" fill="#DFA43B"/>
<path fill-rule="evenodd" clip-rule="evenodd" d="M8.38792 10.0258C8.38792 10.1403 8.37024 10.2283 8.32629 10.2901L6.78448 12.9773L6.68749 9.6998H4.2207L5.04882 10.0962C5.28663 10.246 5.41002 10.4398 5.41002 10.6865L5.63899 14.1667H6.84599L9.73586 9.6998H8.25582C8.34384 9.77911 8.38792 9.90238 8.38792 10.0258ZM18.3611 9.83191L18.4579 9.69968H16.9513C17.0041 9.75247 17.0218 9.77899 17.0218 9.79654C17.004 9.86689 16.9688 9.91109 16.9513 9.96389L14.7576 13.9636C14.7048 14.0341 14.6518 14.0959 14.5902 14.1665H15.8325L15.7707 14.0342C15.7707 13.9197 15.8325 13.7084 15.9646 13.4088L16.2289 12.9154H17.5064C17.5594 13.3295 17.5947 13.6732 17.6122 13.9288L17.5064 14.1666H19.0482L18.8191 13.8318L18.3611 9.83191ZM17.4448 12.29H16.5285L17.3125 10.7834L17.4448 12.29ZM13.6387 9.4707C13.1631 9.4707 12.7577 9.60293 12.3965 9.86714C11.9999 10.0962 11.8062 10.387 11.8062 10.7483C11.8062 11.1624 11.9472 11.5236 12.229 11.7967L13.0838 12.3868C13.3922 12.6072 13.542 12.801 13.542 12.9773C13.542 13.1446 13.4624 13.2944 13.3129 13.4089C13.1631 13.5235 12.9955 13.5763 12.7842 13.5763C12.4758 13.5763 11.9473 13.3562 11.216 12.9509V13.7701C11.7887 14.1138 12.3438 14.2901 12.8811 14.2901C13.3922 14.2901 13.8239 14.149 14.1941 13.8319C14.5905 13.5411 14.7842 13.1977 14.7842 12.8188C14.7842 12.5014 14.6432 12.2108 14.326 11.9024L13.5065 11.3121C13.2337 11.0918 13.0838 10.898 13.0838 10.7483C13.0838 10.4048 13.2864 10.2285 13.7005 10.2285C13.9824 10.2285 14.3965 10.3871 14.9515 10.7219L15.119 9.86727C14.6519 9.60281 14.1674 9.4707 13.6387 9.4707ZM10.3614 14.1666C10.3437 13.9816 10.3085 13.8142 10.2908 13.6379L11.4098 10.0258L11.6741 9.6998H10.0618C10.0795 9.77911 10.0971 9.88482 10.1147 9.96413C10.1147 10.0434 10.1147 10.1404 10.0971 10.2285L8.97822 13.8054L8.74912 14.1667H10.3614V14.1666Z" fill="#315881"/>
</svg>
